M48
; DRILL file {KiCad (5.1.6)-1} date 12/20/20 00:19:41
; FORMAT={3:3/ absolute / metric / suppress leading zeros}
; #@! TF.CreationDate,2020-12-20T00:19:41+09:00
; #@! TF.GenerationSoftware,Kicad,Pcbnew,(5.1.6)-1
FMAT,2
METRIC,TZ
T1C0.400
T2C0.500
T3C0.600
T4C0.762
T5C0.800
T6C0.813
T7C1.000
T8C1.090
T9C1.100
T10C1.499
T11C1.500
T12C3.200
%
G90
G05
T1
X91000Y-71000
X91000Y-96000
X91000Y-98000
X91000Y-109000
X93472Y-74803
X94996Y-88138
X95631Y-76327
X98000Y-61000
X98806Y-101727
X100000Y-118000
X101029Y-66611
X101308Y-76276
X101346Y-81534
X101346Y-87122
X101346Y-93980
X101473Y-98425
X101981Y-66611
X104267Y-100330
X104318Y-84506
X104902Y-74803
X105791Y-94005
X106553Y-70612
X107188Y-76327
X109000Y-61000
X109220Y-84582
X109982Y-104140
X109982Y-114808
X110020Y-110541
X110998Y-95758
X111000Y-118000
X113538Y-67691
X113792Y-75311
X113919Y-80264
X114808Y-97917
X114808Y-101854
X115824Y-75184
X115824Y-84836
X116586Y-86995
X116840Y-70358
X116840Y-105918
X116967Y-75692
X118618Y-96139
X118745Y-90170
X120523Y-73025
X120523Y-74168
X120777Y-100711
X120904Y-77216
X121666Y-78232
X121666Y-93599
X122000Y-118000
X122047Y-84709
X122174Y-97663
X122174Y-101981
X122428Y-80518
X122428Y-108585
X124460Y-108585
X124714Y-84328
X124841Y-77851
X125857Y-79756
X126111Y-87249
X126746Y-75946
X128143Y-81915
X128778Y-117983
X129794Y-87122
X129921Y-76581
X129921Y-100711
X131064Y-72009
X131115Y-77800
X131318Y-79629
X131318Y-97536
X131572Y-81407
X132461Y-88900
X133350Y-97409
X134747Y-102743
X134874Y-100711
X135509Y-72009
X136000Y-67000
X136000Y-79000
X136017Y-74295
X136017Y-104648
X136398Y-84709
X136525Y-94996
X137414Y-106807
X137541Y-63500
X138557Y-106045
X138684Y-104394
X139573Y-77978
X139573Y-94996
X140000Y-61000
X140335Y-84709
X141351Y-67437
X141351Y-72009
X141478Y-102489
X141605Y-82296
X141605Y-83312
X141605Y-98679
X141845Y-76059
X142621Y-80264
X144399Y-112903
X144526Y-105537
X144780Y-79121
X145669Y-83312
X145669Y-84328
X145796Y-87757
X146304Y-82042
X146685Y-94869
X147574Y-81915
X149352Y-72009
X149352Y-76073
X149733Y-84582
X149987Y-95250
X149987Y-97790
X151130Y-80772
X151511Y-104556
X151511Y-63500
X151765Y-77978
X151765Y-92202
X152019Y-85344
X152908Y-81153
X154000Y-61000
X154305Y-102108
X154432Y-77978
X154432Y-89281
X154432Y-92202
X154559Y-83820
X155321Y-67310
X155448Y-94361
X157353Y-86360
X157988Y-89281
X157988Y-92837
X157988Y-97917
X158953Y-95237
X159131Y-104267
X160147Y-82169
X160147Y-93472
X160909Y-94869
X161442Y-99822
X161544Y-112776
X162306Y-102108
X162433Y-70104
X162433Y-72009
X162433Y-76073
X162433Y-100965
X162560Y-96393
X162687Y-84582
X163703Y-80899
X164465Y-77978
X164465Y-89789
X164465Y-92456
X164592Y-85344
X165608Y-63500
X165608Y-81026
X167259Y-79756
X167310Y-84849
X167386Y-82042
X167386Y-86360
X167475Y-89522
X167513Y-92964
X168000Y-61000
X168402Y-98679
X168656Y-105156
X168656Y-112776
X170053Y-96393
X170053Y-100965
X171069Y-76073
X171831Y-67056
X171958Y-105537
X172720Y-77724
X172720Y-84201
X172720Y-88519
X172720Y-92583
X173609Y-105918
X174117Y-73203
X174625Y-76200
X175006Y-83693
X175006Y-85598
X175006Y-91440
X175641Y-105918
X176354Y-95709
X176530Y-100965
X176594Y-72707
X176657Y-66167
X176784Y-75946
X177342Y-92760
X178181Y-81280
X179070Y-94615
X179070Y-100965
X180340Y-89154
X180975Y-64008
X180975Y-83566
X181102Y-73406
X181102Y-76962
X181610Y-90932
X181610Y-94615
X181610Y-100965
X182372Y-81915
X182372Y-83439
X182880Y-89281
X183896Y-108585
X184004Y-74573
X184150Y-79121
X184150Y-87249
X184150Y-100965
X184150Y-77089
X185039Y-76073
X185166Y-89154
X185293Y-79502
X185293Y-109982
X185420Y-106807
X186563Y-83566
X187452Y-112141
X188000Y-61000
X188151Y-92685
X188214Y-86741
X188341Y-68326
X189103Y-107188
X189103Y-110236
X189230Y-100330
X189294Y-78042
X189484Y-75819
X189484Y-83693
X189498Y-96026
X190169Y-92760
X190754Y-88633
X191389Y-75819
X191516Y-83185
X191516Y-116332
X191770Y-94526
X192024Y-97028
X192024Y-107188
X193294Y-89027
X193421Y-81026
X193548Y-69977
X193548Y-75692
X193675Y-114427
X193802Y-66802
X193929Y-91186
X194564Y-107188
X195326Y-94488
X195453Y-89789
X196952Y-81420
X196977Y-66929
X196977Y-72009
X197104Y-87503
X197104Y-107188
X197231Y-98171
X197866Y-78042
X198056Y-68072
X199517Y-93853
X199771Y-107188
X199898Y-90678
X200025Y-100965
X200279Y-104013
X200406Y-98171
X200787Y-95123
X200914Y-78105
X201000Y-61000
X202438Y-105537
X202692Y-88519
X203200Y-72517
X203835Y-83820
X204089Y-89789
X204216Y-63373
X204343Y-94742
X204711Y-99123
X205232Y-72517
X205334Y-78105
X205359Y-75946
X205359Y-85598
X205600Y-108394
X205613Y-105537
X206248Y-79248
X206502Y-77089
X206502Y-99187
X206731Y-89903
X208026Y-65786
X208407Y-88646
X208534Y-80137
X208661Y-99187
X208661Y-104013
X208686Y-105080
X208915Y-107950
X208915Y-117983
X209550Y-113538
X209804Y-78105
X210566Y-97409
X210693Y-93091
X210820Y-105410
X212598Y-110109
X212725Y-83693
X214000Y-118000
X214249Y-85598
X214309Y-95631
X215000Y-61000
X215138Y-81280
X215265Y-97917
X215519Y-76708
X215646Y-100838
X216154Y-87249
X216154Y-93218
X218059Y-84201
X218059Y-87503
X218084Y-78715
X218440Y-100838
X218440Y-107188
X220980Y-88392
X221488Y-98806
X222758Y-96520
X224000Y-70000
X224000Y-95000
X224000Y-109000
T3
X204216Y-92456
X211328Y-99568
T4
X109115Y-76797
X109115Y-79337
X109115Y-81877
X109115Y-86957
X109115Y-89497
X109115Y-92037
X109115Y-94577
X97764Y-76797
X97764Y-79337
X97764Y-81877
X97764Y-86957
X97764Y-89497
X97764Y-92037
X97764Y-94577
T5
X125984Y-98806
X125984Y-100806
X125984Y-102806
T6
X180000Y-62793
X180000Y-65282
X182007Y-62793
X182007Y-65282
X184013Y-62793
X184013Y-65282
X193000Y-62793
X193000Y-65282
X195007Y-62793
X195007Y-65282
X197013Y-62793
X197013Y-65282
X219718Y-74600
X219718Y-76607
X219718Y-78613
X222207Y-74600
X222207Y-76607
X222207Y-78613
X219718Y-87400
X219718Y-89407
X219718Y-91413
X222207Y-87400
X222207Y-89407
X222207Y-91413
T7
X201600Y-111500
X201600Y-114000
X204100Y-111500
X204100Y-114000
X206600Y-111500
X206600Y-114000
X129600Y-111500
X129600Y-114000
X132100Y-111500
X132100Y-114000
X134600Y-111500
X134600Y-114000
X177600Y-111500
X177600Y-114000
X180100Y-111500
X180100Y-114000
X182600Y-111500
X182600Y-114000
X153600Y-111500
X153600Y-114000
X156100Y-111500
X156100Y-114000
X158600Y-111500
X158600Y-114000
T8
X105800Y-104740
X105800Y-107280
X105800Y-109820
X105800Y-114900
T9
X112242Y-99800
X114782Y-99800
X117322Y-99800
X111324Y-62200
X111324Y-68700
X115824Y-62200
X115824Y-68700
X93720Y-99800
X96260Y-99800
X98800Y-99800
T10
X177907Y-64037
X186107Y-64037
X190907Y-64037
X199107Y-64037
X220963Y-72507
X220963Y-80707
X220963Y-85307
X220963Y-93507
T11
X169400Y-62404
X169400Y-69404
X215600Y-102600
X222600Y-102600
X141400Y-62400
X141400Y-69400
X155400Y-62404
X155400Y-69404
X207978Y-62340
X207978Y-69341
X125984Y-96706
X125984Y-104906
T12
X94000Y-115000
X221000Y-64000
X94000Y-64000
X221000Y-115000
T2
G00X100000Y-62834
M15
G01X100000Y-62134
M16
G05
G00X106600Y-62834
M15
G01X106600Y-62134
M16
G05
T0
M30
