G04 #@! TF.GenerationSoftware,KiCad,Pcbnew,(5.1.6)-1*
G04 #@! TF.CreationDate,2020-12-20T01:09:14+09:00*
G04 #@! TF.ProjectId,Mixer,4d697865-722e-46b6-9963-61645f706362,rev?*
G04 #@! TF.SameCoordinates,Original*
G04 #@! TF.FileFunction,Soldermask,Bot*
G04 #@! TF.FilePolarity,Negative*
%FSLAX46Y46*%
G04 Gerber Fmt 4.6, Leading zero omitted, Abs format (unit mm)*
G04 Created by KiCad (PCBNEW (5.1.6)-1) date 2020-12-20 01:09:14*
%MOMM*%
%LPD*%
G01*
G04 APERTURE LIST*
%ADD10C,1.100000*%
%ADD11O,3.600000X2.300000*%
%ADD12O,2.600000X1.600000*%
%ADD13R,2.600000X1.600000*%
%ADD14C,3.300000*%
%ADD15C,2.100000*%
%ADD16C,2.106600*%
%ADD17C,1.420800*%
%ADD18C,1.624000*%
%ADD19O,1.000000X1.700000*%
%ADD20O,2.005000X2.100000*%
%ADD21R,2.005000X2.100000*%
G04 APERTURE END LIST*
D10*
X127127000Y-83566000D03*
X121793000Y-73025000D03*
X129540000Y-81407000D03*
X129540000Y-83566000D03*
X127127000Y-79375000D03*
X129540000Y-79375000D03*
G36*
G01*
X188078500Y-95423000D02*
X188603500Y-95423000D01*
G75*
G02*
X188866000Y-95685500I0J-262500D01*
G01*
X188866000Y-96310500D01*
G75*
G02*
X188603500Y-96573000I-262500J0D01*
G01*
X188078500Y-96573000D01*
G75*
G02*
X187816000Y-96310500I0J262500D01*
G01*
X187816000Y-95685500D01*
G75*
G02*
X188078500Y-95423000I262500J0D01*
G01*
G37*
G36*
G01*
X188078500Y-93673000D02*
X188603500Y-93673000D01*
G75*
G02*
X188866000Y-93935500I0J-262500D01*
G01*
X188866000Y-94560500D01*
G75*
G02*
X188603500Y-94823000I-262500J0D01*
G01*
X188078500Y-94823000D01*
G75*
G02*
X187816000Y-94560500I0J262500D01*
G01*
X187816000Y-93935500D01*
G75*
G02*
X188078500Y-93673000I262500J0D01*
G01*
G37*
G36*
G01*
X174753500Y-95134000D02*
X175278500Y-95134000D01*
G75*
G02*
X175541000Y-95396500I0J-262500D01*
G01*
X175541000Y-96021500D01*
G75*
G02*
X175278500Y-96284000I-262500J0D01*
G01*
X174753500Y-96284000D01*
G75*
G02*
X174491000Y-96021500I0J262500D01*
G01*
X174491000Y-95396500D01*
G75*
G02*
X174753500Y-95134000I262500J0D01*
G01*
G37*
G36*
G01*
X174753500Y-93384000D02*
X175278500Y-93384000D01*
G75*
G02*
X175541000Y-93646500I0J-262500D01*
G01*
X175541000Y-94271500D01*
G75*
G02*
X175278500Y-94534000I-262500J0D01*
G01*
X174753500Y-94534000D01*
G75*
G02*
X174491000Y-94271500I0J262500D01*
G01*
X174491000Y-93646500D01*
G75*
G02*
X174753500Y-93384000I262500J0D01*
G01*
G37*
D11*
X125984000Y-104906000D03*
X125984000Y-96706000D03*
D12*
X125984000Y-102806000D03*
X125984000Y-100806000D03*
D13*
X125984000Y-98806000D03*
D14*
X94000000Y-115000000D03*
X94000000Y-64000000D03*
X221000000Y-64000000D03*
X221000000Y-115000000D03*
D15*
X115824000Y-68700000D03*
X111324000Y-68700000D03*
X115824000Y-62200000D03*
X111324000Y-62200000D03*
D16*
X220962600Y-72506599D03*
X220962600Y-80706601D03*
D17*
X222207200Y-74600000D03*
X222207200Y-76606600D03*
X222207200Y-78613200D03*
X219718000Y-74600000D03*
X219718000Y-76606600D03*
X219718000Y-78613200D03*
D16*
X220962600Y-85306599D03*
X220962600Y-93506601D03*
D17*
X222207200Y-87400000D03*
X222207200Y-89406600D03*
X222207200Y-91413200D03*
X219718000Y-87400000D03*
X219718000Y-89406600D03*
X219718000Y-91413200D03*
G36*
G01*
X215525000Y-91976500D02*
X215525000Y-91451500D01*
G75*
G02*
X215787500Y-91189000I262500J0D01*
G01*
X216412500Y-91189000D01*
G75*
G02*
X216675000Y-91451500I0J-262500D01*
G01*
X216675000Y-91976500D01*
G75*
G02*
X216412500Y-92239000I-262500J0D01*
G01*
X215787500Y-92239000D01*
G75*
G02*
X215525000Y-91976500I0J262500D01*
G01*
G37*
G36*
G01*
X213775000Y-91976500D02*
X213775000Y-91451500D01*
G75*
G02*
X214037500Y-91189000I262500J0D01*
G01*
X214662500Y-91189000D01*
G75*
G02*
X214925000Y-91451500I0J-262500D01*
G01*
X214925000Y-91976500D01*
G75*
G02*
X214662500Y-92239000I-262500J0D01*
G01*
X214037500Y-92239000D01*
G75*
G02*
X213775000Y-91976500I0J262500D01*
G01*
G37*
G36*
G01*
X215525000Y-89035500D02*
X215525000Y-88510500D01*
G75*
G02*
X215787500Y-88248000I262500J0D01*
G01*
X216412500Y-88248000D01*
G75*
G02*
X216675000Y-88510500I0J-262500D01*
G01*
X216675000Y-89035500D01*
G75*
G02*
X216412500Y-89298000I-262500J0D01*
G01*
X215787500Y-89298000D01*
G75*
G02*
X215525000Y-89035500I0J262500D01*
G01*
G37*
G36*
G01*
X213775000Y-89035500D02*
X213775000Y-88510500D01*
G75*
G02*
X214037500Y-88248000I262500J0D01*
G01*
X214662500Y-88248000D01*
G75*
G02*
X214925000Y-88510500I0J-262500D01*
G01*
X214925000Y-89035500D01*
G75*
G02*
X214662500Y-89298000I-262500J0D01*
G01*
X214037500Y-89298000D01*
G75*
G02*
X213775000Y-89035500I0J262500D01*
G01*
G37*
G36*
G01*
X210393000Y-91431500D02*
X210393000Y-91956500D01*
G75*
G02*
X210130500Y-92219000I-262500J0D01*
G01*
X209505500Y-92219000D01*
G75*
G02*
X209243000Y-91956500I0J262500D01*
G01*
X209243000Y-91431500D01*
G75*
G02*
X209505500Y-91169000I262500J0D01*
G01*
X210130500Y-91169000D01*
G75*
G02*
X210393000Y-91431500I0J-262500D01*
G01*
G37*
G36*
G01*
X212143000Y-91431500D02*
X212143000Y-91956500D01*
G75*
G02*
X211880500Y-92219000I-262500J0D01*
G01*
X211255500Y-92219000D01*
G75*
G02*
X210993000Y-91956500I0J262500D01*
G01*
X210993000Y-91431500D01*
G75*
G02*
X211255500Y-91169000I262500J0D01*
G01*
X211880500Y-91169000D01*
G75*
G02*
X212143000Y-91431500I0J-262500D01*
G01*
G37*
G36*
G01*
X210393000Y-88510500D02*
X210393000Y-89035500D01*
G75*
G02*
X210130500Y-89298000I-262500J0D01*
G01*
X209505500Y-89298000D01*
G75*
G02*
X209243000Y-89035500I0J262500D01*
G01*
X209243000Y-88510500D01*
G75*
G02*
X209505500Y-88248000I262500J0D01*
G01*
X210130500Y-88248000D01*
G75*
G02*
X210393000Y-88510500I0J-262500D01*
G01*
G37*
G36*
G01*
X212143000Y-88510500D02*
X212143000Y-89035500D01*
G75*
G02*
X211880500Y-89298000I-262500J0D01*
G01*
X211255500Y-89298000D01*
G75*
G02*
X210993000Y-89035500I0J262500D01*
G01*
X210993000Y-88510500D01*
G75*
G02*
X211255500Y-88248000I262500J0D01*
G01*
X211880500Y-88248000D01*
G75*
G02*
X212143000Y-88510500I0J-262500D01*
G01*
G37*
D15*
X134600000Y-111500000D03*
X132100000Y-111500000D03*
X129600000Y-111500000D03*
X134600000Y-114000000D03*
X132100000Y-114000000D03*
X129600000Y-114000000D03*
D18*
X207977500Y-69340500D03*
X207977500Y-62340500D03*
X169400000Y-69404000D03*
X169400000Y-62404000D03*
D19*
X106600000Y-62484000D03*
X100000000Y-62484000D03*
G36*
G01*
X104993456Y-96303000D02*
X102778544Y-96303000D01*
G75*
G02*
X102511000Y-96035456I0J267544D01*
G01*
X102511000Y-95045544D01*
G75*
G02*
X102778544Y-94778000I267544J0D01*
G01*
X104993456Y-94778000D01*
G75*
G02*
X105261000Y-95045544I0J-267544D01*
G01*
X105261000Y-96035456D01*
G75*
G02*
X104993456Y-96303000I-267544J0D01*
G01*
G37*
G36*
G01*
X104993456Y-99278000D02*
X102778544Y-99278000D01*
G75*
G02*
X102511000Y-99010456I0J267544D01*
G01*
X102511000Y-98020544D01*
G75*
G02*
X102778544Y-97753000I267544J0D01*
G01*
X104993456Y-97753000D01*
G75*
G02*
X105261000Y-98020544I0J-267544D01*
G01*
X105261000Y-99010456D01*
G75*
G02*
X104993456Y-99278000I-267544J0D01*
G01*
G37*
G36*
G01*
X106031456Y-77088000D02*
X103816544Y-77088000D01*
G75*
G02*
X103549000Y-76820456I0J267544D01*
G01*
X103549000Y-75830544D01*
G75*
G02*
X103816544Y-75563000I267544J0D01*
G01*
X106031456Y-75563000D01*
G75*
G02*
X106299000Y-75830544I0J-267544D01*
G01*
X106299000Y-76820456D01*
G75*
G02*
X106031456Y-77088000I-267544J0D01*
G01*
G37*
G36*
G01*
X106031456Y-80063000D02*
X103816544Y-80063000D01*
G75*
G02*
X103549000Y-79795456I0J267544D01*
G01*
X103549000Y-78805544D01*
G75*
G02*
X103816544Y-78538000I267544J0D01*
G01*
X106031456Y-78538000D01*
G75*
G02*
X106299000Y-78805544I0J-267544D01*
G01*
X106299000Y-79795456D01*
G75*
G02*
X106031456Y-80063000I-267544J0D01*
G01*
G37*
G36*
G01*
X94553456Y-77124500D02*
X92338544Y-77124500D01*
G75*
G02*
X92071000Y-76856956I0J267544D01*
G01*
X92071000Y-75867044D01*
G75*
G02*
X92338544Y-75599500I267544J0D01*
G01*
X94553456Y-75599500D01*
G75*
G02*
X94821000Y-75867044I0J-267544D01*
G01*
X94821000Y-76856956D01*
G75*
G02*
X94553456Y-77124500I-267544J0D01*
G01*
G37*
G36*
G01*
X94553456Y-80099500D02*
X92338544Y-80099500D01*
G75*
G02*
X92071000Y-79831956I0J267544D01*
G01*
X92071000Y-78842044D01*
G75*
G02*
X92338544Y-78574500I267544J0D01*
G01*
X94553456Y-78574500D01*
G75*
G02*
X94821000Y-78842044I0J-267544D01*
G01*
X94821000Y-79831956D01*
G75*
G02*
X94553456Y-80099500I-267544J0D01*
G01*
G37*
D18*
X97764000Y-94577000D03*
X97764000Y-92037000D03*
X97764000Y-89497000D03*
X97764000Y-86957000D03*
X97764000Y-81877000D03*
X97764000Y-79337000D03*
X97764000Y-76797000D03*
X109115000Y-94577000D03*
X109115000Y-92037000D03*
X109115000Y-89497000D03*
X109115000Y-86957000D03*
X109115000Y-81877000D03*
X109115000Y-79337000D03*
X109115000Y-76797000D03*
D15*
X158600000Y-111500000D03*
X156100000Y-111500000D03*
X153600000Y-111500000D03*
X158600000Y-114000000D03*
X156100000Y-114000000D03*
X153600000Y-114000000D03*
D18*
X141400000Y-69400000D03*
X141400000Y-62400000D03*
D16*
X190906599Y-64037400D03*
X199106601Y-64037400D03*
D17*
X193000000Y-62792800D03*
X195006600Y-62792800D03*
X197013200Y-62792800D03*
X193000000Y-65282000D03*
X195006600Y-65282000D03*
X197013200Y-65282000D03*
D16*
X177906599Y-64037400D03*
X186106601Y-64037400D03*
D17*
X180000000Y-62792800D03*
X182006600Y-62792800D03*
X184013200Y-62792800D03*
X180000000Y-65282000D03*
X182006600Y-65282000D03*
X184013200Y-65282000D03*
G36*
G01*
X113800500Y-65232000D02*
X113275500Y-65232000D01*
G75*
G02*
X113013000Y-64969500I0J262500D01*
G01*
X113013000Y-64344500D01*
G75*
G02*
X113275500Y-64082000I262500J0D01*
G01*
X113800500Y-64082000D01*
G75*
G02*
X114063000Y-64344500I0J-262500D01*
G01*
X114063000Y-64969500D01*
G75*
G02*
X113800500Y-65232000I-262500J0D01*
G01*
G37*
G36*
G01*
X113800500Y-66982000D02*
X113275500Y-66982000D01*
G75*
G02*
X113013000Y-66719500I0J262500D01*
G01*
X113013000Y-66094500D01*
G75*
G02*
X113275500Y-65832000I262500J0D01*
G01*
X113800500Y-65832000D01*
G75*
G02*
X114063000Y-66094500I0J-262500D01*
G01*
X114063000Y-66719500D01*
G75*
G02*
X113800500Y-66982000I-262500J0D01*
G01*
G37*
D15*
X182600000Y-111500000D03*
X180100000Y-111500000D03*
X177600000Y-111500000D03*
X182600000Y-114000000D03*
X180100000Y-114000000D03*
X177600000Y-114000000D03*
X206600000Y-111500000D03*
X204100000Y-111500000D03*
X201600000Y-111500000D03*
X206600000Y-114000000D03*
X204100000Y-114000000D03*
X201600000Y-114000000D03*
X105800000Y-104740000D03*
X105800000Y-107280000D03*
X105800000Y-109820000D03*
X105800000Y-114900000D03*
D18*
X155399500Y-69404000D03*
X155399500Y-62404000D03*
X215600000Y-102600000D03*
X222600000Y-102600000D03*
D20*
X93720000Y-99800000D03*
X96260000Y-99800000D03*
D21*
X98800000Y-99800000D03*
D20*
X112242000Y-99800000D03*
X114782000Y-99800000D03*
D21*
X117322000Y-99800000D03*
M02*
