G04 #@! TF.GenerationSoftware,KiCad,Pcbnew,(5.1.6)-1*
G04 #@! TF.CreationDate,2020-11-25T01:13:58+09:00*
G04 #@! TF.ProjectId,Mixer,4d697865-722e-46b6-9963-61645f706362,rev?*
G04 #@! TF.SameCoordinates,Original*
G04 #@! TF.FileFunction,Legend,Bot*
G04 #@! TF.FilePolarity,Positive*
%FSLAX46Y46*%
G04 Gerber Fmt 4.6, Leading zero omitted, Abs format (unit mm)*
G04 Created by KiCad (PCBNEW (5.1.6)-1) date 2020-11-25 01:13:58*
%MOMM*%
%LPD*%
G01*
G04 APERTURE LIST*
%ADD10C,0.120000*%
%ADD11C,0.150000*%
%ADD12C,3.300000*%
%ADD13C,0.100000*%
%ADD14O,1.800000X1.800000*%
%ADD15R,1.800000X1.800000*%
%ADD16C,2.100000*%
%ADD17C,2.106600*%
%ADD18C,1.420800*%
%ADD19C,1.624000*%
%ADD20O,1.000000X1.700000*%
%ADD21O,2.005000X2.100000*%
%ADD22R,2.005000X2.100000*%
G04 APERTURE END LIST*
D10*
X132318000Y-100522000D02*
X132318000Y-99122000D01*
X131618000Y-98422000D02*
X131018000Y-98422000D01*
X130318000Y-99122000D02*
X130318000Y-100522000D01*
X131018000Y-101222000D02*
X131618000Y-101222000D01*
X131618000Y-101222000D02*
G75*
G03*
X132318000Y-100522000I0J700000D01*
G01*
X130318000Y-100522000D02*
G75*
G03*
X131018000Y-101222000I700000J0D01*
G01*
X131018000Y-98422000D02*
G75*
G03*
X130318000Y-99122000I0J-700000D01*
G01*
X132318000Y-99122000D02*
G75*
G03*
X131618000Y-98422000I-700000J0D01*
G01*
X215053733Y-92224000D02*
X215396267Y-92224000D01*
X215053733Y-91204000D02*
X215396267Y-91204000D01*
X215053733Y-89283000D02*
X215396267Y-89283000D01*
X215053733Y-88263000D02*
X215396267Y-88263000D01*
X210864267Y-91184000D02*
X210521733Y-91184000D01*
X210864267Y-92204000D02*
X210521733Y-92204000D01*
X210864267Y-88263000D02*
X210521733Y-88263000D01*
X210864267Y-89283000D02*
X210521733Y-89283000D01*
X102526000Y-97630064D02*
X102526000Y-96425936D01*
X105246000Y-97630064D02*
X105246000Y-96425936D01*
X103564000Y-78415064D02*
X103564000Y-77210936D01*
X106284000Y-78415064D02*
X106284000Y-77210936D01*
X92086000Y-78451564D02*
X92086000Y-77247436D01*
X94806000Y-78451564D02*
X94806000Y-77247436D01*
X114048000Y-65703267D02*
X114048000Y-65360733D01*
X113028000Y-65703267D02*
X113028000Y-65360733D01*
D11*
X130770380Y-102088666D02*
X131484666Y-102088666D01*
X131627523Y-102041047D01*
X131722761Y-101945809D01*
X131770380Y-101802952D01*
X131770380Y-101707714D01*
X131770380Y-102564857D02*
X130770380Y-102564857D01*
X130770380Y-102945809D01*
X130818000Y-103041047D01*
X130865619Y-103088666D01*
X130960857Y-103136285D01*
X131103714Y-103136285D01*
X131198952Y-103088666D01*
X131246571Y-103041047D01*
X131294190Y-102945809D01*
X131294190Y-102564857D01*
X131770380Y-104088666D02*
X131770380Y-103517238D01*
X131770380Y-103802952D02*
X130770380Y-103802952D01*
X130913238Y-103707714D01*
X131008476Y-103612476D01*
X131056095Y-103517238D01*
X215867857Y-93670380D02*
X216201190Y-93194190D01*
X216439285Y-93670380D02*
X216439285Y-92670380D01*
X216058333Y-92670380D01*
X215963095Y-92718000D01*
X215915476Y-92765619D01*
X215867857Y-92860857D01*
X215867857Y-93003714D01*
X215915476Y-93098952D01*
X215963095Y-93146571D01*
X216058333Y-93194190D01*
X216439285Y-93194190D01*
X214963095Y-92670380D02*
X215439285Y-92670380D01*
X215486904Y-93146571D01*
X215439285Y-93098952D01*
X215344047Y-93051333D01*
X215105952Y-93051333D01*
X215010714Y-93098952D01*
X214963095Y-93146571D01*
X214915476Y-93241809D01*
X214915476Y-93479904D01*
X214963095Y-93575142D01*
X215010714Y-93622761D01*
X215105952Y-93670380D01*
X215344047Y-93670380D01*
X215439285Y-93622761D01*
X215486904Y-93575142D01*
X213963095Y-93670380D02*
X214534523Y-93670380D01*
X214248809Y-93670380D02*
X214248809Y-92670380D01*
X214344047Y-92813238D01*
X214439285Y-92908476D01*
X214534523Y-92956095D01*
X215867857Y-90749380D02*
X216201190Y-90273190D01*
X216439285Y-90749380D02*
X216439285Y-89749380D01*
X216058333Y-89749380D01*
X215963095Y-89797000D01*
X215915476Y-89844619D01*
X215867857Y-89939857D01*
X215867857Y-90082714D01*
X215915476Y-90177952D01*
X215963095Y-90225571D01*
X216058333Y-90273190D01*
X216439285Y-90273190D01*
X214963095Y-89749380D02*
X215439285Y-89749380D01*
X215486904Y-90225571D01*
X215439285Y-90177952D01*
X215344047Y-90130333D01*
X215105952Y-90130333D01*
X215010714Y-90177952D01*
X214963095Y-90225571D01*
X214915476Y-90320809D01*
X214915476Y-90558904D01*
X214963095Y-90654142D01*
X215010714Y-90701761D01*
X215105952Y-90749380D01*
X215344047Y-90749380D01*
X215439285Y-90701761D01*
X215486904Y-90654142D01*
X214296428Y-89749380D02*
X214201190Y-89749380D01*
X214105952Y-89797000D01*
X214058333Y-89844619D01*
X214010714Y-89939857D01*
X213963095Y-90130333D01*
X213963095Y-90368428D01*
X214010714Y-90558904D01*
X214058333Y-90654142D01*
X214105952Y-90701761D01*
X214201190Y-90749380D01*
X214296428Y-90749380D01*
X214391666Y-90701761D01*
X214439285Y-90654142D01*
X214486904Y-90558904D01*
X214534523Y-90368428D01*
X214534523Y-90130333D01*
X214486904Y-89939857D01*
X214439285Y-89844619D01*
X214391666Y-89797000D01*
X214296428Y-89749380D01*
X211335857Y-93670380D02*
X211669190Y-93194190D01*
X211907285Y-93670380D02*
X211907285Y-92670380D01*
X211526333Y-92670380D01*
X211431095Y-92718000D01*
X211383476Y-92765619D01*
X211335857Y-92860857D01*
X211335857Y-93003714D01*
X211383476Y-93098952D01*
X211431095Y-93146571D01*
X211526333Y-93194190D01*
X211907285Y-93194190D01*
X210478714Y-93003714D02*
X210478714Y-93670380D01*
X210716809Y-92622761D02*
X210954904Y-93337047D01*
X210335857Y-93337047D01*
X209907285Y-93670380D02*
X209716809Y-93670380D01*
X209621571Y-93622761D01*
X209573952Y-93575142D01*
X209478714Y-93432285D01*
X209431095Y-93241809D01*
X209431095Y-92860857D01*
X209478714Y-92765619D01*
X209526333Y-92718000D01*
X209621571Y-92670380D01*
X209812047Y-92670380D01*
X209907285Y-92718000D01*
X209954904Y-92765619D01*
X210002523Y-92860857D01*
X210002523Y-93098952D01*
X209954904Y-93194190D01*
X209907285Y-93241809D01*
X209812047Y-93289428D01*
X209621571Y-93289428D01*
X209526333Y-93241809D01*
X209478714Y-93194190D01*
X209431095Y-93098952D01*
X211335857Y-90749380D02*
X211669190Y-90273190D01*
X211907285Y-90749380D02*
X211907285Y-89749380D01*
X211526333Y-89749380D01*
X211431095Y-89797000D01*
X211383476Y-89844619D01*
X211335857Y-89939857D01*
X211335857Y-90082714D01*
X211383476Y-90177952D01*
X211431095Y-90225571D01*
X211526333Y-90273190D01*
X211907285Y-90273190D01*
X210478714Y-90082714D02*
X210478714Y-90749380D01*
X210716809Y-89701761D02*
X210954904Y-90416047D01*
X210335857Y-90416047D01*
X209812047Y-90177952D02*
X209907285Y-90130333D01*
X209954904Y-90082714D01*
X210002523Y-89987476D01*
X210002523Y-89939857D01*
X209954904Y-89844619D01*
X209907285Y-89797000D01*
X209812047Y-89749380D01*
X209621571Y-89749380D01*
X209526333Y-89797000D01*
X209478714Y-89844619D01*
X209431095Y-89939857D01*
X209431095Y-89987476D01*
X209478714Y-90082714D01*
X209526333Y-90130333D01*
X209621571Y-90177952D01*
X209812047Y-90177952D01*
X209907285Y-90225571D01*
X209954904Y-90273190D01*
X210002523Y-90368428D01*
X210002523Y-90558904D01*
X209954904Y-90654142D01*
X209907285Y-90701761D01*
X209812047Y-90749380D01*
X209621571Y-90749380D01*
X209526333Y-90701761D01*
X209478714Y-90654142D01*
X209431095Y-90558904D01*
X209431095Y-90368428D01*
X209478714Y-90273190D01*
X209526333Y-90225571D01*
X209621571Y-90177952D01*
X104528857Y-94083142D02*
X104576476Y-94130761D01*
X104719333Y-94178380D01*
X104814571Y-94178380D01*
X104957428Y-94130761D01*
X105052666Y-94035523D01*
X105100285Y-93940285D01*
X105147904Y-93749809D01*
X105147904Y-93606952D01*
X105100285Y-93416476D01*
X105052666Y-93321238D01*
X104957428Y-93226000D01*
X104814571Y-93178380D01*
X104719333Y-93178380D01*
X104576476Y-93226000D01*
X104528857Y-93273619D01*
X103576476Y-94178380D02*
X104147904Y-94178380D01*
X103862190Y-94178380D02*
X103862190Y-93178380D01*
X103957428Y-93321238D01*
X104052666Y-93416476D01*
X104147904Y-93464095D01*
X102719333Y-93178380D02*
X102909809Y-93178380D01*
X103005047Y-93226000D01*
X103052666Y-93273619D01*
X103147904Y-93416476D01*
X103195523Y-93606952D01*
X103195523Y-93987904D01*
X103147904Y-94083142D01*
X103100285Y-94130761D01*
X103005047Y-94178380D01*
X102814571Y-94178380D01*
X102719333Y-94130761D01*
X102671714Y-94083142D01*
X102624095Y-93987904D01*
X102624095Y-93749809D01*
X102671714Y-93654571D01*
X102719333Y-93606952D01*
X102814571Y-93559333D01*
X103005047Y-93559333D01*
X103100285Y-93606952D01*
X103147904Y-93654571D01*
X103195523Y-93749809D01*
X107561142Y-77170142D02*
X107608761Y-77122523D01*
X107656380Y-76979666D01*
X107656380Y-76884428D01*
X107608761Y-76741571D01*
X107513523Y-76646333D01*
X107418285Y-76598714D01*
X107227809Y-76551095D01*
X107084952Y-76551095D01*
X106894476Y-76598714D01*
X106799238Y-76646333D01*
X106704000Y-76741571D01*
X106656380Y-76884428D01*
X106656380Y-76979666D01*
X106704000Y-77122523D01*
X106751619Y-77170142D01*
X107656380Y-78122523D02*
X107656380Y-77551095D01*
X107656380Y-77836809D02*
X106656380Y-77836809D01*
X106799238Y-77741571D01*
X106894476Y-77646333D01*
X106942095Y-77551095D01*
X106751619Y-78503476D02*
X106704000Y-78551095D01*
X106656380Y-78646333D01*
X106656380Y-78884428D01*
X106704000Y-78979666D01*
X106751619Y-79027285D01*
X106846857Y-79074904D01*
X106942095Y-79074904D01*
X107084952Y-79027285D01*
X107656380Y-78455857D01*
X107656380Y-79074904D01*
X96083142Y-77206642D02*
X96130761Y-77159023D01*
X96178380Y-77016166D01*
X96178380Y-76920928D01*
X96130761Y-76778071D01*
X96035523Y-76682833D01*
X95940285Y-76635214D01*
X95749809Y-76587595D01*
X95606952Y-76587595D01*
X95416476Y-76635214D01*
X95321238Y-76682833D01*
X95226000Y-76778071D01*
X95178380Y-76920928D01*
X95178380Y-77016166D01*
X95226000Y-77159023D01*
X95273619Y-77206642D01*
X96178380Y-78159023D02*
X96178380Y-77587595D01*
X96178380Y-77873309D02*
X95178380Y-77873309D01*
X95321238Y-77778071D01*
X95416476Y-77682833D01*
X95464095Y-77587595D01*
X96178380Y-79111404D02*
X96178380Y-78539976D01*
X96178380Y-78825690D02*
X95178380Y-78825690D01*
X95321238Y-78730452D01*
X95416476Y-78635214D01*
X95464095Y-78539976D01*
X112212380Y-64889142D02*
X111736190Y-64555809D01*
X112212380Y-64317714D02*
X111212380Y-64317714D01*
X111212380Y-64698666D01*
X111260000Y-64793904D01*
X111307619Y-64841523D01*
X111402857Y-64889142D01*
X111545714Y-64889142D01*
X111640952Y-64841523D01*
X111688571Y-64793904D01*
X111736190Y-64698666D01*
X111736190Y-64317714D01*
X111307619Y-65270095D02*
X111260000Y-65317714D01*
X111212380Y-65412952D01*
X111212380Y-65651047D01*
X111260000Y-65746285D01*
X111307619Y-65793904D01*
X111402857Y-65841523D01*
X111498095Y-65841523D01*
X111640952Y-65793904D01*
X112212380Y-65222476D01*
X112212380Y-65841523D01*
X112212380Y-66793904D02*
X112212380Y-66222476D01*
X112212380Y-66508190D02*
X111212380Y-66508190D01*
X111355238Y-66412952D01*
X111450476Y-66317714D01*
X111498095Y-66222476D01*
%LPC*%
D12*
X94000000Y-115000000D03*
X94000000Y-64000000D03*
X221000000Y-64000000D03*
X221000000Y-115000000D03*
D13*
G36*
X130518602Y-99165889D02*
G01*
X130518602Y-99147466D01*
X130518843Y-99142565D01*
X130523653Y-99093734D01*
X130524373Y-99088881D01*
X130533945Y-99040756D01*
X130535137Y-99035995D01*
X130549381Y-98989040D01*
X130551034Y-98984421D01*
X130569811Y-98939088D01*
X130571909Y-98934651D01*
X130595040Y-98891378D01*
X130597562Y-98887171D01*
X130624822Y-98846372D01*
X130627746Y-98842430D01*
X130658874Y-98804501D01*
X130662169Y-98800866D01*
X130696866Y-98766169D01*
X130700501Y-98762874D01*
X130738430Y-98731746D01*
X130742372Y-98728822D01*
X130783171Y-98701562D01*
X130787378Y-98699040D01*
X130830651Y-98675909D01*
X130835088Y-98673811D01*
X130880421Y-98655034D01*
X130885040Y-98653381D01*
X130931995Y-98639137D01*
X130936756Y-98637945D01*
X130984881Y-98628373D01*
X130989734Y-98627653D01*
X131038565Y-98622843D01*
X131043466Y-98622602D01*
X131061889Y-98622602D01*
X131068000Y-98622000D01*
X131568000Y-98622000D01*
X131574111Y-98622602D01*
X131592534Y-98622602D01*
X131597435Y-98622843D01*
X131646266Y-98627653D01*
X131651119Y-98628373D01*
X131699244Y-98637945D01*
X131704005Y-98639137D01*
X131750960Y-98653381D01*
X131755579Y-98655034D01*
X131800912Y-98673811D01*
X131805349Y-98675909D01*
X131848622Y-98699040D01*
X131852829Y-98701562D01*
X131893628Y-98728822D01*
X131897570Y-98731746D01*
X131935499Y-98762874D01*
X131939134Y-98766169D01*
X131973831Y-98800866D01*
X131977126Y-98804501D01*
X132008254Y-98842430D01*
X132011178Y-98846372D01*
X132038438Y-98887171D01*
X132040960Y-98891378D01*
X132064091Y-98934651D01*
X132066189Y-98939088D01*
X132084966Y-98984421D01*
X132086619Y-98989040D01*
X132100863Y-99035995D01*
X132102055Y-99040756D01*
X132111627Y-99088881D01*
X132112347Y-99093734D01*
X132117157Y-99142565D01*
X132117398Y-99147466D01*
X132117398Y-99165889D01*
X132118000Y-99172000D01*
X132118000Y-99672000D01*
X132117039Y-99681755D01*
X132114194Y-99691134D01*
X132109573Y-99699779D01*
X132103355Y-99707355D01*
X132095779Y-99713573D01*
X132087134Y-99718194D01*
X132077755Y-99721039D01*
X132068000Y-99722000D01*
X130568000Y-99722000D01*
X130558245Y-99721039D01*
X130548866Y-99718194D01*
X130540221Y-99713573D01*
X130532645Y-99707355D01*
X130526427Y-99699779D01*
X130521806Y-99691134D01*
X130518961Y-99681755D01*
X130518000Y-99672000D01*
X130518000Y-99172000D01*
X130518602Y-99165889D01*
G37*
G36*
X130518961Y-99962245D02*
G01*
X130521806Y-99952866D01*
X130526427Y-99944221D01*
X130532645Y-99936645D01*
X130540221Y-99930427D01*
X130548866Y-99925806D01*
X130558245Y-99922961D01*
X130568000Y-99922000D01*
X132068000Y-99922000D01*
X132077755Y-99922961D01*
X132087134Y-99925806D01*
X132095779Y-99930427D01*
X132103355Y-99936645D01*
X132109573Y-99944221D01*
X132114194Y-99952866D01*
X132117039Y-99962245D01*
X132118000Y-99972000D01*
X132118000Y-100472000D01*
X132117398Y-100478111D01*
X132117398Y-100496534D01*
X132117157Y-100501435D01*
X132112347Y-100550266D01*
X132111627Y-100555119D01*
X132102055Y-100603244D01*
X132100863Y-100608005D01*
X132086619Y-100654960D01*
X132084966Y-100659579D01*
X132066189Y-100704912D01*
X132064091Y-100709349D01*
X132040960Y-100752622D01*
X132038438Y-100756829D01*
X132011178Y-100797628D01*
X132008254Y-100801570D01*
X131977126Y-100839499D01*
X131973831Y-100843134D01*
X131939134Y-100877831D01*
X131935499Y-100881126D01*
X131897570Y-100912254D01*
X131893628Y-100915178D01*
X131852829Y-100942438D01*
X131848622Y-100944960D01*
X131805349Y-100968091D01*
X131800912Y-100970189D01*
X131755579Y-100988966D01*
X131750960Y-100990619D01*
X131704005Y-101004863D01*
X131699244Y-101006055D01*
X131651119Y-101015627D01*
X131646266Y-101016347D01*
X131597435Y-101021157D01*
X131592534Y-101021398D01*
X131574111Y-101021398D01*
X131568000Y-101022000D01*
X131068000Y-101022000D01*
X131061889Y-101021398D01*
X131043466Y-101021398D01*
X131038565Y-101021157D01*
X130989734Y-101016347D01*
X130984881Y-101015627D01*
X130936756Y-101006055D01*
X130931995Y-101004863D01*
X130885040Y-100990619D01*
X130880421Y-100988966D01*
X130835088Y-100970189D01*
X130830651Y-100968091D01*
X130787378Y-100944960D01*
X130783171Y-100942438D01*
X130742372Y-100915178D01*
X130738430Y-100912254D01*
X130700501Y-100881126D01*
X130696866Y-100877831D01*
X130662169Y-100843134D01*
X130658874Y-100839499D01*
X130627746Y-100801570D01*
X130624822Y-100797628D01*
X130597562Y-100756829D01*
X130595040Y-100752622D01*
X130571909Y-100709349D01*
X130569811Y-100704912D01*
X130551034Y-100659579D01*
X130549381Y-100654960D01*
X130535137Y-100608005D01*
X130533945Y-100603244D01*
X130524373Y-100555119D01*
X130523653Y-100550266D01*
X130518843Y-100501435D01*
X130518602Y-100496534D01*
X130518602Y-100478111D01*
X130518000Y-100472000D01*
X130518000Y-99972000D01*
X130518961Y-99962245D01*
G37*
D14*
X125222000Y-98552000D03*
X127762000Y-98552000D03*
X125222000Y-101092000D03*
D15*
X127762000Y-101092000D03*
D16*
X115824000Y-68700000D03*
X111324000Y-68700000D03*
X115824000Y-62200000D03*
X111324000Y-62200000D03*
D17*
X220962600Y-72506599D03*
X220962600Y-80706601D03*
D18*
X222207200Y-74600000D03*
X222207200Y-76606600D03*
X222207200Y-78613200D03*
X219718000Y-74600000D03*
X219718000Y-76606600D03*
X219718000Y-78613200D03*
D17*
X220962600Y-85306599D03*
X220962600Y-93506601D03*
D18*
X222207200Y-87400000D03*
X222207200Y-89406600D03*
X222207200Y-91413200D03*
X219718000Y-87400000D03*
X219718000Y-89406600D03*
X219718000Y-91413200D03*
G36*
G01*
X215525000Y-91976500D02*
X215525000Y-91451500D01*
G75*
G02*
X215787500Y-91189000I262500J0D01*
G01*
X216412500Y-91189000D01*
G75*
G02*
X216675000Y-91451500I0J-262500D01*
G01*
X216675000Y-91976500D01*
G75*
G02*
X216412500Y-92239000I-262500J0D01*
G01*
X215787500Y-92239000D01*
G75*
G02*
X215525000Y-91976500I0J262500D01*
G01*
G37*
G36*
G01*
X213775000Y-91976500D02*
X213775000Y-91451500D01*
G75*
G02*
X214037500Y-91189000I262500J0D01*
G01*
X214662500Y-91189000D01*
G75*
G02*
X214925000Y-91451500I0J-262500D01*
G01*
X214925000Y-91976500D01*
G75*
G02*
X214662500Y-92239000I-262500J0D01*
G01*
X214037500Y-92239000D01*
G75*
G02*
X213775000Y-91976500I0J262500D01*
G01*
G37*
G36*
G01*
X215525000Y-89035500D02*
X215525000Y-88510500D01*
G75*
G02*
X215787500Y-88248000I262500J0D01*
G01*
X216412500Y-88248000D01*
G75*
G02*
X216675000Y-88510500I0J-262500D01*
G01*
X216675000Y-89035500D01*
G75*
G02*
X216412500Y-89298000I-262500J0D01*
G01*
X215787500Y-89298000D01*
G75*
G02*
X215525000Y-89035500I0J262500D01*
G01*
G37*
G36*
G01*
X213775000Y-89035500D02*
X213775000Y-88510500D01*
G75*
G02*
X214037500Y-88248000I262500J0D01*
G01*
X214662500Y-88248000D01*
G75*
G02*
X214925000Y-88510500I0J-262500D01*
G01*
X214925000Y-89035500D01*
G75*
G02*
X214662500Y-89298000I-262500J0D01*
G01*
X214037500Y-89298000D01*
G75*
G02*
X213775000Y-89035500I0J262500D01*
G01*
G37*
G36*
G01*
X210393000Y-91431500D02*
X210393000Y-91956500D01*
G75*
G02*
X210130500Y-92219000I-262500J0D01*
G01*
X209505500Y-92219000D01*
G75*
G02*
X209243000Y-91956500I0J262500D01*
G01*
X209243000Y-91431500D01*
G75*
G02*
X209505500Y-91169000I262500J0D01*
G01*
X210130500Y-91169000D01*
G75*
G02*
X210393000Y-91431500I0J-262500D01*
G01*
G37*
G36*
G01*
X212143000Y-91431500D02*
X212143000Y-91956500D01*
G75*
G02*
X211880500Y-92219000I-262500J0D01*
G01*
X211255500Y-92219000D01*
G75*
G02*
X210993000Y-91956500I0J262500D01*
G01*
X210993000Y-91431500D01*
G75*
G02*
X211255500Y-91169000I262500J0D01*
G01*
X211880500Y-91169000D01*
G75*
G02*
X212143000Y-91431500I0J-262500D01*
G01*
G37*
G36*
G01*
X210393000Y-88510500D02*
X210393000Y-89035500D01*
G75*
G02*
X210130500Y-89298000I-262500J0D01*
G01*
X209505500Y-89298000D01*
G75*
G02*
X209243000Y-89035500I0J262500D01*
G01*
X209243000Y-88510500D01*
G75*
G02*
X209505500Y-88248000I262500J0D01*
G01*
X210130500Y-88248000D01*
G75*
G02*
X210393000Y-88510500I0J-262500D01*
G01*
G37*
G36*
G01*
X212143000Y-88510500D02*
X212143000Y-89035500D01*
G75*
G02*
X211880500Y-89298000I-262500J0D01*
G01*
X211255500Y-89298000D01*
G75*
G02*
X210993000Y-89035500I0J262500D01*
G01*
X210993000Y-88510500D01*
G75*
G02*
X211255500Y-88248000I262500J0D01*
G01*
X211880500Y-88248000D01*
G75*
G02*
X212143000Y-88510500I0J-262500D01*
G01*
G37*
D16*
X134600000Y-111500000D03*
X132100000Y-111500000D03*
X129600000Y-111500000D03*
X134600000Y-114000000D03*
X132100000Y-114000000D03*
X129600000Y-114000000D03*
D19*
X207977500Y-69340500D03*
X207977500Y-62340500D03*
X169400000Y-69404000D03*
X169400000Y-62404000D03*
D14*
X126492000Y-94234000D03*
X129032000Y-94234000D03*
D15*
X131572000Y-94234000D03*
D20*
X106600000Y-62484000D03*
X100000000Y-62484000D03*
G36*
G01*
X104993456Y-96303000D02*
X102778544Y-96303000D01*
G75*
G02*
X102511000Y-96035456I0J267544D01*
G01*
X102511000Y-95045544D01*
G75*
G02*
X102778544Y-94778000I267544J0D01*
G01*
X104993456Y-94778000D01*
G75*
G02*
X105261000Y-95045544I0J-267544D01*
G01*
X105261000Y-96035456D01*
G75*
G02*
X104993456Y-96303000I-267544J0D01*
G01*
G37*
G36*
G01*
X104993456Y-99278000D02*
X102778544Y-99278000D01*
G75*
G02*
X102511000Y-99010456I0J267544D01*
G01*
X102511000Y-98020544D01*
G75*
G02*
X102778544Y-97753000I267544J0D01*
G01*
X104993456Y-97753000D01*
G75*
G02*
X105261000Y-98020544I0J-267544D01*
G01*
X105261000Y-99010456D01*
G75*
G02*
X104993456Y-99278000I-267544J0D01*
G01*
G37*
G36*
G01*
X106031456Y-77088000D02*
X103816544Y-77088000D01*
G75*
G02*
X103549000Y-76820456I0J267544D01*
G01*
X103549000Y-75830544D01*
G75*
G02*
X103816544Y-75563000I267544J0D01*
G01*
X106031456Y-75563000D01*
G75*
G02*
X106299000Y-75830544I0J-267544D01*
G01*
X106299000Y-76820456D01*
G75*
G02*
X106031456Y-77088000I-267544J0D01*
G01*
G37*
G36*
G01*
X106031456Y-80063000D02*
X103816544Y-80063000D01*
G75*
G02*
X103549000Y-79795456I0J267544D01*
G01*
X103549000Y-78805544D01*
G75*
G02*
X103816544Y-78538000I267544J0D01*
G01*
X106031456Y-78538000D01*
G75*
G02*
X106299000Y-78805544I0J-267544D01*
G01*
X106299000Y-79795456D01*
G75*
G02*
X106031456Y-80063000I-267544J0D01*
G01*
G37*
G36*
G01*
X94553456Y-77124500D02*
X92338544Y-77124500D01*
G75*
G02*
X92071000Y-76856956I0J267544D01*
G01*
X92071000Y-75867044D01*
G75*
G02*
X92338544Y-75599500I267544J0D01*
G01*
X94553456Y-75599500D01*
G75*
G02*
X94821000Y-75867044I0J-267544D01*
G01*
X94821000Y-76856956D01*
G75*
G02*
X94553456Y-77124500I-267544J0D01*
G01*
G37*
G36*
G01*
X94553456Y-80099500D02*
X92338544Y-80099500D01*
G75*
G02*
X92071000Y-79831956I0J267544D01*
G01*
X92071000Y-78842044D01*
G75*
G02*
X92338544Y-78574500I267544J0D01*
G01*
X94553456Y-78574500D01*
G75*
G02*
X94821000Y-78842044I0J-267544D01*
G01*
X94821000Y-79831956D01*
G75*
G02*
X94553456Y-80099500I-267544J0D01*
G01*
G37*
D19*
X97764000Y-94577000D03*
X97764000Y-92037000D03*
X97764000Y-89497000D03*
X97764000Y-86957000D03*
X97764000Y-81877000D03*
X97764000Y-79337000D03*
X97764000Y-76797000D03*
X109115000Y-94577000D03*
X109115000Y-92037000D03*
X109115000Y-89497000D03*
X109115000Y-86957000D03*
X109115000Y-81877000D03*
X109115000Y-79337000D03*
X109115000Y-76797000D03*
D16*
X158600000Y-111500000D03*
X156100000Y-111500000D03*
X153600000Y-111500000D03*
X158600000Y-114000000D03*
X156100000Y-114000000D03*
X153600000Y-114000000D03*
D19*
X141400000Y-69400000D03*
X141400000Y-62400000D03*
D17*
X190906599Y-64037400D03*
X199106601Y-64037400D03*
D18*
X193000000Y-62792800D03*
X195006600Y-62792800D03*
X197013200Y-62792800D03*
X193000000Y-65282000D03*
X195006600Y-65282000D03*
X197013200Y-65282000D03*
D17*
X177906599Y-64037400D03*
X186106601Y-64037400D03*
D18*
X180000000Y-62792800D03*
X182006600Y-62792800D03*
X184013200Y-62792800D03*
X180000000Y-65282000D03*
X182006600Y-65282000D03*
X184013200Y-65282000D03*
G36*
G01*
X113800500Y-65232000D02*
X113275500Y-65232000D01*
G75*
G02*
X113013000Y-64969500I0J262500D01*
G01*
X113013000Y-64344500D01*
G75*
G02*
X113275500Y-64082000I262500J0D01*
G01*
X113800500Y-64082000D01*
G75*
G02*
X114063000Y-64344500I0J-262500D01*
G01*
X114063000Y-64969500D01*
G75*
G02*
X113800500Y-65232000I-262500J0D01*
G01*
G37*
G36*
G01*
X113800500Y-66982000D02*
X113275500Y-66982000D01*
G75*
G02*
X113013000Y-66719500I0J262500D01*
G01*
X113013000Y-66094500D01*
G75*
G02*
X113275500Y-65832000I262500J0D01*
G01*
X113800500Y-65832000D01*
G75*
G02*
X114063000Y-66094500I0J-262500D01*
G01*
X114063000Y-66719500D01*
G75*
G02*
X113800500Y-66982000I-262500J0D01*
G01*
G37*
D16*
X182600000Y-111500000D03*
X180100000Y-111500000D03*
X177600000Y-111500000D03*
X182600000Y-114000000D03*
X180100000Y-114000000D03*
X177600000Y-114000000D03*
X206600000Y-111500000D03*
X204100000Y-111500000D03*
X201600000Y-111500000D03*
X206600000Y-114000000D03*
X204100000Y-114000000D03*
X201600000Y-114000000D03*
X105800000Y-104740000D03*
X105800000Y-107280000D03*
X105800000Y-109820000D03*
X105800000Y-114900000D03*
D19*
X155399500Y-69404000D03*
X155399500Y-62404000D03*
X215600000Y-102600000D03*
X222600000Y-102600000D03*
D21*
X93720000Y-99800000D03*
X96260000Y-99800000D03*
D22*
X98800000Y-99800000D03*
D21*
X112242000Y-99800000D03*
X114782000Y-99800000D03*
D22*
X117322000Y-99800000D03*
M02*
