M48
; DRILL file {KiCad (5.1.6)-1} date 07/24/20 05:49:59
; FORMAT={3:3/ absolute / metric / suppress leading zeros}
; #@! TF.CreationDate,2020-07-24T05:49:59+09:00
; #@! TF.GenerationSoftware,Kicad,Pcbnew,(5.1.6)-1
FMAT,2
METRIC,TZ
T1C0.400
T2C0.500
T3C0.762
T4C0.800
T5C0.813
T6C0.998
T7C1.000
T8C1.001
T9C1.090
T10C1.100
T11C1.499
T12C1.500
T13C3.200
%
G90
G05
T1
X77000Y-70000
X77000Y-80000
X77000Y-90000
X77000Y-100000
X77000Y-110000
X82423Y-109220
X85000Y-62000
X85000Y-117000
X85217Y-107696
X87122Y-116332
X90170Y-82804
X90424Y-98171
X90805Y-95250
X93726Y-77597
X93726Y-82804
X95000Y-62000
X95160Y-73750
X95504Y-97282
X95631Y-87249
X97028Y-100330
X97155Y-70104
X97155Y-73787
X97282Y-106045
X98425Y-67310
X99568Y-112903
X99695Y-67310
X103124Y-79756
X103124Y-83185
X103251Y-88773
X103251Y-94234
X103505Y-116967
X103632Y-107950
X104140Y-67183
X105000Y-62000
X105000Y-117000
X105156Y-91440
X105156Y-101473
X107075Y-82945
X107696Y-65405
X108204Y-101473
X109093Y-113792
X109982Y-80137
X109982Y-104267
X109982Y-107950
X110236Y-74168
X113030Y-65532
X113665Y-86995
X114808Y-74168
X114808Y-76327
X115000Y-62000
X115000Y-117000
X115316Y-80137
X115316Y-83185
X115824Y-98425
X115824Y-102489
X116205Y-109093
X117221Y-90551
X117221Y-95631
X118745Y-98425
X119126Y-73914
X119253Y-83820
X119888Y-77216
X120142Y-98933
X120904Y-91567
X121158Y-85598
X122047Y-109982
X122047Y-112649
X122047Y-115316
X122047Y-117856
X122428Y-74168
X123063Y-98171
X123952Y-85598
X124460Y-81153
X124714Y-90805
X125730Y-85725
X125857Y-77089
X125857Y-102235
X126365Y-98171
X126365Y-100330
X126746Y-104140
X126746Y-110236
X126746Y-113538
X127635Y-109347
X127635Y-115570
X127889Y-85471
X128778Y-112776
X129159Y-74168
X129540Y-86995
X129540Y-107315
X129667Y-81026
X129667Y-98806
X129794Y-91059
X130175Y-82550
X131699Y-108966
X133985Y-79248
X133985Y-83439
X133985Y-107823
X134112Y-75184
X134239Y-66929
X135000Y-118000
X135763Y-98933
X135890Y-94107
X136398Y-100584
X137160Y-88138
X137287Y-92583
X137541Y-101727
X137541Y-103886
X138176Y-89027
X138684Y-72644
X138684Y-75438
X138684Y-78994
X138938Y-114173
X140589Y-101727
X140589Y-103886
X140589Y-107315
X140716Y-93980
X140716Y-97790
X141732Y-64643
X141732Y-67691
X141986Y-74930
X141986Y-100584
X142494Y-86106
X142748Y-110744
X142875Y-82423
X143129Y-90805
X143256Y-97663
X144018Y-109855
X144399Y-114808
X144907Y-107315
X145000Y-118000
X145909Y-111111
X146000Y-62000
X146558Y-89027
X146939Y-98933
X146939Y-102235
X148590Y-93853
X150495Y-89027
X151130Y-78105
X151130Y-92456
X153162Y-64516
X153670Y-97790
X153670Y-101727
X153924Y-104648
X154305Y-72898
X154940Y-93599
X154940Y-100584
X155000Y-118000
X155575Y-87757
X156083Y-90678
X157607Y-111506
X157734Y-77089
X157734Y-82677
X158496Y-115570
X159754Y-108077
X160000Y-62000
X161163Y-109093
X162052Y-67818
X162052Y-97282
X163195Y-63754
X164338Y-67818
X165000Y-118000
X165735Y-83566
X165735Y-90551
X165735Y-97155
X168021Y-101473
X168148Y-105283
X168275Y-72517
X168275Y-95250
X169164Y-64262
X169545Y-87376
X169672Y-104902
X170688Y-90551
X170688Y-115824
X170815Y-109728
X171450Y-94488
X172371Y-103410
X172847Y-76581
X172847Y-78486
X172974Y-89408
X172974Y-95758
X173101Y-70358
X173242Y-75325
X173252Y-97350
X173482Y-104902
X173609Y-64389
X174371Y-113919
X174840Y-116840
X175133Y-87376
X175133Y-93091
X175895Y-82931
X176149Y-109855
X177927Y-66929
X177927Y-71120
X178816Y-74295
X178816Y-78486
X178816Y-81153
X181102Y-84455
X181610Y-92075
X181864Y-98552
X182499Y-80391
X182880Y-71755
X182880Y-77470
X183515Y-102108
X183527Y-94627
X184404Y-75946
X184531Y-74295
X185039Y-82931
X185160Y-116840
X185420Y-104902
X186563Y-61722
X186944Y-95758
X187452Y-81026
X187452Y-87630
X187452Y-89662
X187474Y-94234
X187706Y-73025
X187833Y-79375
X188373Y-103410
X188976Y-97524
X189230Y-67056
X189611Y-104902
X189738Y-89662
X190881Y-75438
X191389Y-112649
X192405Y-74930
X193294Y-112649
X193421Y-71628
X194437Y-94869
X194437Y-98044
X194437Y-101473
X194564Y-82296
X194564Y-86614
X195000Y-117000
X195199Y-75438
X196215Y-90932
X197104Y-68453
X197485Y-84328
X197612Y-102235
X197612Y-106045
X197612Y-114046
X199009Y-73787
X199517Y-63881
X199771Y-102235
X199771Y-106045
X200025Y-94234
X200279Y-114046
X200660Y-99568
X200787Y-96266
X201549Y-103251
X202311Y-114046
X202565Y-106045
X203327Y-95885
X203835Y-86487
X203962Y-100076
X204089Y-67056
X204724Y-76073
X204724Y-79756
X206756Y-100584
X206756Y-106045
X207391Y-73533
X208026Y-112903
X208153Y-64262
X209550Y-101981
X209804Y-72898
X209931Y-75565
X209931Y-79756
X210693Y-83820
X211201Y-72898
X212217Y-103378
X212471Y-92456
X212725Y-83820
X212979Y-109347
X212979Y-110744
X213360Y-69215
X214376Y-95250
X215000Y-62000
X215000Y-117000
X216662Y-108712
X217551Y-89535
X217551Y-92329
X220345Y-100330
X221107Y-84963
X223000Y-70000
X223000Y-80000
X223000Y-90000
X223000Y-100000
X223000Y-110000
X223000Y-110000
T3
X86995Y-78740
X86995Y-81280
X86995Y-83820
X86995Y-88900
X86995Y-91440
X86995Y-93980
X86995Y-96520
X98425Y-78867
X98425Y-81407
X98425Y-83947
X98425Y-89027
X98425Y-91567
X98425Y-94107
X98425Y-96647
T4
X208915Y-88932
X208915Y-90932
X80010Y-92075
X80010Y-94075
X215265Y-78105
X217265Y-78105
X197010Y-76835
X207010Y-76835
X163195Y-86900
X163195Y-88900
X103505Y-111125
X105505Y-111125
X108458Y-88900
X108458Y-90900
X85630Y-111125
X87630Y-111125
X126365Y-94615
X128365Y-94615
X119380Y-94615
X121380Y-94615
X110395Y-83820
X112395Y-83820
X110395Y-77470
X112395Y-77470
X100965Y-72390
X103465Y-72390
X80010Y-78780
X80010Y-81280
X112395Y-94615
X114395Y-94615
X215265Y-85090
X217265Y-85090
X148590Y-82582
X148590Y-84582
X180340Y-86900
X180340Y-88900
X197010Y-82550
X207010Y-82550
X220345Y-104045
X220345Y-106045
X161925Y-103410
X161925Y-105410
T5
X178000Y-63000
X178000Y-65489
X180007Y-63000
X180007Y-65489
X182013Y-63000
X182013Y-65489
X191000Y-63000
X191000Y-65489
X193007Y-63000
X193007Y-65489
X195013Y-63000
X195013Y-65489
T6
X107720Y-61280
X107720Y-68900
X112800Y-61280
X112800Y-68900
T7
X149000Y-111500
X149000Y-114000
X151500Y-111500
X151500Y-114000
X154000Y-111500
X154000Y-114000
X164465Y-74930
X167005Y-74930
X169545Y-74930
X131000Y-111500
X131000Y-114000
X133500Y-111500
X133500Y-114000
X136000Y-111500
X136000Y-114000
X185000Y-111500
X185000Y-114000
X187500Y-111500
X187500Y-114000
X190000Y-111500
X190000Y-114000
X215900Y-71755
X218440Y-71755
X220980Y-71755
X167000Y-111500
X167000Y-114000
X169500Y-111500
X169500Y-114000
X172000Y-111500
X172000Y-114000
X113000Y-111500
X113000Y-114000
X115500Y-111500
X115500Y-114000
X118000Y-111500
X118000Y-114000
X150495Y-74930
X153035Y-74930
X155575Y-74930
X136525Y-74930
X136525Y-77470
X136525Y-80010
T9
X95500Y-104740
X95500Y-107280
X95500Y-109820
X95500Y-114900
T10
X101600Y-103505
X104140Y-103505
X106680Y-103505
X83820Y-103505
X86360Y-103505
X88900Y-103505
T11
X175907Y-64245
X184107Y-64245
X188907Y-64245
X197107Y-64245
T12
X139400Y-62400
X139400Y-69400
X206000Y-62404
X206000Y-69404
X208000Y-109600
X208000Y-116600
X167000Y-62404
X167000Y-69404
X153200Y-62400
X153200Y-69400
T13
X80000Y-114000
X80000Y-65000
X220000Y-65000
X220000Y-114000
T2
G00X96141Y-63215
M15
G01X96141Y-62515
M16
G05
G00X102741Y-63215
M15
G01X102741Y-62515
M16
G05
T8
G00X84501Y-70000
M15
G01X84501Y-71700
M16
G05
G00X90050Y-67720
M15
G01X88350Y-67720
M16
G05
G00X90300Y-73750
M15
G01X88100Y-73750
M16
G05
T0
M30
