G04 #@! TF.GenerationSoftware,KiCad,Pcbnew,(5.1.6)-1*
G04 #@! TF.CreationDate,2020-07-24T05:51:25+09:00*
G04 #@! TF.ProjectId,Mixer,4d697865-722e-46b6-9963-61645f706362,rev?*
G04 #@! TF.SameCoordinates,Original*
G04 #@! TF.FileFunction,Soldermask,Top*
G04 #@! TF.FilePolarity,Negative*
%FSLAX46Y46*%
G04 Gerber Fmt 4.6, Leading zero omitted, Abs format (unit mm)*
G04 Created by KiCad (PCBNEW (5.1.6)-1) date 2020-07-24 05:51:25*
%MOMM*%
%LPD*%
G01*
G04 APERTURE LIST*
G04 #@! TA.AperFunction,Profile*
%ADD10C,0.050000*%
G04 #@! TD*
%ADD11C,1.700000*%
%ADD12R,1.700000X1.700000*%
%ADD13R,2.000000X2.000000*%
%ADD14R,1.700000X1.500000*%
%ADD15O,1.000000X1.700000*%
%ADD16R,0.500000X1.450000*%
%ADD17C,2.100000*%
%ADD18R,2.900000X1.100000*%
%ADD19C,1.624000*%
%ADD20C,2.106600*%
%ADD21C,1.420800*%
%ADD22R,1.300000X1.000000*%
%ADD23R,1.000000X1.300000*%
%ADD24R,0.800000X0.700000*%
%ADD25C,5.700000*%
%ADD26R,3.600120X3.600120*%
%ADD27R,3.800000X3.600120*%
%ADD28O,1.596060X1.596060*%
%ADD29R,2.000000X0.860000*%
%ADD30R,0.950000X2.000000*%
%ADD31O,2.005000X2.100000*%
%ADD32R,2.005000X2.100000*%
%ADD33O,1.800000X1.800000*%
%ADD34R,1.800000X1.800000*%
G04 APERTURE END LIST*
D10*
X116500000Y-70000000D02*
X116500000Y-60000000D01*
X132800000Y-70000000D02*
X116500000Y-70000000D01*
X132800000Y-60000000D02*
X132800000Y-70000000D01*
X132800000Y-60000000D02*
X225000000Y-60000000D01*
X225000000Y-119000000D02*
X225000000Y-60000000D01*
X75000000Y-119000000D02*
X225000000Y-119000000D01*
X75000000Y-60000000D02*
X75000000Y-119000000D01*
X116500000Y-60000000D02*
X75000000Y-60000000D01*
G36*
G01*
X217015000Y-96679000D02*
X217015000Y-96329000D01*
G75*
G02*
X217190000Y-96154000I175000J0D01*
G01*
X218590000Y-96154000D01*
G75*
G02*
X218765000Y-96329000I0J-175000D01*
G01*
X218765000Y-96679000D01*
G75*
G02*
X218590000Y-96854000I-175000J0D01*
G01*
X217190000Y-96854000D01*
G75*
G02*
X217015000Y-96679000I0J175000D01*
G01*
G37*
G36*
G01*
X217015000Y-97949000D02*
X217015000Y-97599000D01*
G75*
G02*
X217190000Y-97424000I175000J0D01*
G01*
X218590000Y-97424000D01*
G75*
G02*
X218765000Y-97599000I0J-175000D01*
G01*
X218765000Y-97949000D01*
G75*
G02*
X218590000Y-98124000I-175000J0D01*
G01*
X217190000Y-98124000D01*
G75*
G02*
X217015000Y-97949000I0J175000D01*
G01*
G37*
G36*
G01*
X217015000Y-99219000D02*
X217015000Y-98869000D01*
G75*
G02*
X217190000Y-98694000I175000J0D01*
G01*
X218590000Y-98694000D01*
G75*
G02*
X218765000Y-98869000I0J-175000D01*
G01*
X218765000Y-99219000D01*
G75*
G02*
X218590000Y-99394000I-175000J0D01*
G01*
X217190000Y-99394000D01*
G75*
G02*
X217015000Y-99219000I0J175000D01*
G01*
G37*
G36*
G01*
X217015000Y-100489000D02*
X217015000Y-100139000D01*
G75*
G02*
X217190000Y-99964000I175000J0D01*
G01*
X218590000Y-99964000D01*
G75*
G02*
X218765000Y-100139000I0J-175000D01*
G01*
X218765000Y-100489000D01*
G75*
G02*
X218590000Y-100664000I-175000J0D01*
G01*
X217190000Y-100664000D01*
G75*
G02*
X217015000Y-100489000I0J175000D01*
G01*
G37*
G36*
G01*
X211765000Y-100489000D02*
X211765000Y-100139000D01*
G75*
G02*
X211940000Y-99964000I175000J0D01*
G01*
X213340000Y-99964000D01*
G75*
G02*
X213515000Y-100139000I0J-175000D01*
G01*
X213515000Y-100489000D01*
G75*
G02*
X213340000Y-100664000I-175000J0D01*
G01*
X211940000Y-100664000D01*
G75*
G02*
X211765000Y-100489000I0J175000D01*
G01*
G37*
G36*
G01*
X211765000Y-99219000D02*
X211765000Y-98869000D01*
G75*
G02*
X211940000Y-98694000I175000J0D01*
G01*
X213340000Y-98694000D01*
G75*
G02*
X213515000Y-98869000I0J-175000D01*
G01*
X213515000Y-99219000D01*
G75*
G02*
X213340000Y-99394000I-175000J0D01*
G01*
X211940000Y-99394000D01*
G75*
G02*
X211765000Y-99219000I0J175000D01*
G01*
G37*
G36*
G01*
X211765000Y-97949000D02*
X211765000Y-97599000D01*
G75*
G02*
X211940000Y-97424000I175000J0D01*
G01*
X213340000Y-97424000D01*
G75*
G02*
X213515000Y-97599000I0J-175000D01*
G01*
X213515000Y-97949000D01*
G75*
G02*
X213340000Y-98124000I-175000J0D01*
G01*
X211940000Y-98124000D01*
G75*
G02*
X211765000Y-97949000I0J175000D01*
G01*
G37*
G36*
G01*
X211765000Y-96679000D02*
X211765000Y-96329000D01*
G75*
G02*
X211940000Y-96154000I175000J0D01*
G01*
X213340000Y-96154000D01*
G75*
G02*
X213515000Y-96329000I0J-175000D01*
G01*
X213515000Y-96679000D01*
G75*
G02*
X213340000Y-96854000I-175000J0D01*
G01*
X211940000Y-96854000D01*
G75*
G02*
X211765000Y-96679000I0J175000D01*
G01*
G37*
D11*
X220345000Y-104045000D03*
D12*
X220345000Y-106045000D03*
D11*
X208915000Y-88932000D03*
D12*
X208915000Y-90932000D03*
D11*
X161925000Y-103410000D03*
D12*
X161925000Y-105410000D03*
D11*
X148590000Y-82582000D03*
D12*
X148590000Y-84582000D03*
D13*
X98241000Y-62865000D03*
X100641000Y-62865000D03*
D14*
X96241000Y-65315000D03*
X102641000Y-65315000D03*
D15*
X102741000Y-62865000D03*
X96141000Y-62865000D03*
D16*
X100741000Y-65540000D03*
X100091000Y-65540000D03*
X98141000Y-65540000D03*
X98791000Y-65540000D03*
X99441000Y-65540000D03*
D17*
X118000000Y-111500000D03*
X115500000Y-111500000D03*
X113000000Y-111500000D03*
X118000000Y-114000000D03*
X115500000Y-114000000D03*
X113000000Y-114000000D03*
D18*
X135600000Y-70900000D03*
X135600000Y-65400000D03*
X135600000Y-62200000D03*
X143200000Y-71500000D03*
X143200000Y-69200000D03*
X143200000Y-62200000D03*
D19*
X139400000Y-69400000D03*
X139400000Y-62400000D03*
D11*
X163195000Y-86900000D03*
D12*
X163195000Y-88900000D03*
D11*
X180340000Y-86900000D03*
D12*
X180340000Y-88900000D03*
D11*
X217265000Y-78105000D03*
D12*
X215265000Y-78105000D03*
D11*
X217265000Y-85090000D03*
D12*
X215265000Y-85090000D03*
D11*
X121380000Y-94615000D03*
D12*
X119380000Y-94615000D03*
D11*
X114395000Y-94615000D03*
D12*
X112395000Y-94615000D03*
D11*
X110395000Y-83820000D03*
D12*
X112395000Y-83820000D03*
D11*
X110395000Y-77470000D03*
D12*
X112395000Y-77470000D03*
D11*
X128365000Y-94615000D03*
D12*
X126365000Y-94615000D03*
D11*
X85630000Y-111125000D03*
D12*
X87630000Y-111125000D03*
D11*
X105505000Y-111125000D03*
D12*
X103505000Y-111125000D03*
D11*
X80010000Y-94075000D03*
D12*
X80010000Y-92075000D03*
D11*
X108458000Y-90900000D03*
D12*
X108458000Y-88900000D03*
G36*
G01*
X185216000Y-75724000D02*
X185216000Y-75374000D01*
G75*
G02*
X185391000Y-75199000I175000J0D01*
G01*
X186791000Y-75199000D01*
G75*
G02*
X186966000Y-75374000I0J-175000D01*
G01*
X186966000Y-75724000D01*
G75*
G02*
X186791000Y-75899000I-175000J0D01*
G01*
X185391000Y-75899000D01*
G75*
G02*
X185216000Y-75724000I0J175000D01*
G01*
G37*
G36*
G01*
X185216000Y-76994000D02*
X185216000Y-76644000D01*
G75*
G02*
X185391000Y-76469000I175000J0D01*
G01*
X186791000Y-76469000D01*
G75*
G02*
X186966000Y-76644000I0J-175000D01*
G01*
X186966000Y-76994000D01*
G75*
G02*
X186791000Y-77169000I-175000J0D01*
G01*
X185391000Y-77169000D01*
G75*
G02*
X185216000Y-76994000I0J175000D01*
G01*
G37*
G36*
G01*
X185216000Y-78264000D02*
X185216000Y-77914000D01*
G75*
G02*
X185391000Y-77739000I175000J0D01*
G01*
X186791000Y-77739000D01*
G75*
G02*
X186966000Y-77914000I0J-175000D01*
G01*
X186966000Y-78264000D01*
G75*
G02*
X186791000Y-78439000I-175000J0D01*
G01*
X185391000Y-78439000D01*
G75*
G02*
X185216000Y-78264000I0J175000D01*
G01*
G37*
G36*
G01*
X185216000Y-79534000D02*
X185216000Y-79184000D01*
G75*
G02*
X185391000Y-79009000I175000J0D01*
G01*
X186791000Y-79009000D01*
G75*
G02*
X186966000Y-79184000I0J-175000D01*
G01*
X186966000Y-79534000D01*
G75*
G02*
X186791000Y-79709000I-175000J0D01*
G01*
X185391000Y-79709000D01*
G75*
G02*
X185216000Y-79534000I0J175000D01*
G01*
G37*
G36*
G01*
X179966000Y-79534000D02*
X179966000Y-79184000D01*
G75*
G02*
X180141000Y-79009000I175000J0D01*
G01*
X181541000Y-79009000D01*
G75*
G02*
X181716000Y-79184000I0J-175000D01*
G01*
X181716000Y-79534000D01*
G75*
G02*
X181541000Y-79709000I-175000J0D01*
G01*
X180141000Y-79709000D01*
G75*
G02*
X179966000Y-79534000I0J175000D01*
G01*
G37*
G36*
G01*
X179966000Y-78264000D02*
X179966000Y-77914000D01*
G75*
G02*
X180141000Y-77739000I175000J0D01*
G01*
X181541000Y-77739000D01*
G75*
G02*
X181716000Y-77914000I0J-175000D01*
G01*
X181716000Y-78264000D01*
G75*
G02*
X181541000Y-78439000I-175000J0D01*
G01*
X180141000Y-78439000D01*
G75*
G02*
X179966000Y-78264000I0J175000D01*
G01*
G37*
G36*
G01*
X179966000Y-76994000D02*
X179966000Y-76644000D01*
G75*
G02*
X180141000Y-76469000I175000J0D01*
G01*
X181541000Y-76469000D01*
G75*
G02*
X181716000Y-76644000I0J-175000D01*
G01*
X181716000Y-76994000D01*
G75*
G02*
X181541000Y-77169000I-175000J0D01*
G01*
X180141000Y-77169000D01*
G75*
G02*
X179966000Y-76994000I0J175000D01*
G01*
G37*
G36*
G01*
X179966000Y-75724000D02*
X179966000Y-75374000D01*
G75*
G02*
X180141000Y-75199000I175000J0D01*
G01*
X181541000Y-75199000D01*
G75*
G02*
X181716000Y-75374000I0J-175000D01*
G01*
X181716000Y-75724000D01*
G75*
G02*
X181541000Y-75899000I-175000J0D01*
G01*
X180141000Y-75899000D01*
G75*
G02*
X179966000Y-75724000I0J175000D01*
G01*
G37*
G36*
G01*
X198930000Y-93500000D02*
X198580000Y-93500000D01*
G75*
G02*
X198405000Y-93325000I0J175000D01*
G01*
X198405000Y-91925000D01*
G75*
G02*
X198580000Y-91750000I175000J0D01*
G01*
X198930000Y-91750000D01*
G75*
G02*
X199105000Y-91925000I0J-175000D01*
G01*
X199105000Y-93325000D01*
G75*
G02*
X198930000Y-93500000I-175000J0D01*
G01*
G37*
G36*
G01*
X200200000Y-93500000D02*
X199850000Y-93500000D01*
G75*
G02*
X199675000Y-93325000I0J175000D01*
G01*
X199675000Y-91925000D01*
G75*
G02*
X199850000Y-91750000I175000J0D01*
G01*
X200200000Y-91750000D01*
G75*
G02*
X200375000Y-91925000I0J-175000D01*
G01*
X200375000Y-93325000D01*
G75*
G02*
X200200000Y-93500000I-175000J0D01*
G01*
G37*
G36*
G01*
X201470000Y-93500000D02*
X201120000Y-93500000D01*
G75*
G02*
X200945000Y-93325000I0J175000D01*
G01*
X200945000Y-91925000D01*
G75*
G02*
X201120000Y-91750000I175000J0D01*
G01*
X201470000Y-91750000D01*
G75*
G02*
X201645000Y-91925000I0J-175000D01*
G01*
X201645000Y-93325000D01*
G75*
G02*
X201470000Y-93500000I-175000J0D01*
G01*
G37*
G36*
G01*
X202740000Y-93500000D02*
X202390000Y-93500000D01*
G75*
G02*
X202215000Y-93325000I0J175000D01*
G01*
X202215000Y-91925000D01*
G75*
G02*
X202390000Y-91750000I175000J0D01*
G01*
X202740000Y-91750000D01*
G75*
G02*
X202915000Y-91925000I0J-175000D01*
G01*
X202915000Y-93325000D01*
G75*
G02*
X202740000Y-93500000I-175000J0D01*
G01*
G37*
G36*
G01*
X202740000Y-98750000D02*
X202390000Y-98750000D01*
G75*
G02*
X202215000Y-98575000I0J175000D01*
G01*
X202215000Y-97175000D01*
G75*
G02*
X202390000Y-97000000I175000J0D01*
G01*
X202740000Y-97000000D01*
G75*
G02*
X202915000Y-97175000I0J-175000D01*
G01*
X202915000Y-98575000D01*
G75*
G02*
X202740000Y-98750000I-175000J0D01*
G01*
G37*
G36*
G01*
X201470000Y-98750000D02*
X201120000Y-98750000D01*
G75*
G02*
X200945000Y-98575000I0J175000D01*
G01*
X200945000Y-97175000D01*
G75*
G02*
X201120000Y-97000000I175000J0D01*
G01*
X201470000Y-97000000D01*
G75*
G02*
X201645000Y-97175000I0J-175000D01*
G01*
X201645000Y-98575000D01*
G75*
G02*
X201470000Y-98750000I-175000J0D01*
G01*
G37*
G36*
G01*
X200200000Y-98750000D02*
X199850000Y-98750000D01*
G75*
G02*
X199675000Y-98575000I0J175000D01*
G01*
X199675000Y-97175000D01*
G75*
G02*
X199850000Y-97000000I175000J0D01*
G01*
X200200000Y-97000000D01*
G75*
G02*
X200375000Y-97175000I0J-175000D01*
G01*
X200375000Y-98575000D01*
G75*
G02*
X200200000Y-98750000I-175000J0D01*
G01*
G37*
G36*
G01*
X198930000Y-98750000D02*
X198580000Y-98750000D01*
G75*
G02*
X198405000Y-98575000I0J175000D01*
G01*
X198405000Y-97175000D01*
G75*
G02*
X198580000Y-97000000I175000J0D01*
G01*
X198930000Y-97000000D01*
G75*
G02*
X199105000Y-97175000I0J-175000D01*
G01*
X199105000Y-98575000D01*
G75*
G02*
X198930000Y-98750000I-175000J0D01*
G01*
G37*
G36*
G01*
X168450000Y-93500000D02*
X168100000Y-93500000D01*
G75*
G02*
X167925000Y-93325000I0J175000D01*
G01*
X167925000Y-91925000D01*
G75*
G02*
X168100000Y-91750000I175000J0D01*
G01*
X168450000Y-91750000D01*
G75*
G02*
X168625000Y-91925000I0J-175000D01*
G01*
X168625000Y-93325000D01*
G75*
G02*
X168450000Y-93500000I-175000J0D01*
G01*
G37*
G36*
G01*
X169720000Y-93500000D02*
X169370000Y-93500000D01*
G75*
G02*
X169195000Y-93325000I0J175000D01*
G01*
X169195000Y-91925000D01*
G75*
G02*
X169370000Y-91750000I175000J0D01*
G01*
X169720000Y-91750000D01*
G75*
G02*
X169895000Y-91925000I0J-175000D01*
G01*
X169895000Y-93325000D01*
G75*
G02*
X169720000Y-93500000I-175000J0D01*
G01*
G37*
G36*
G01*
X170990000Y-93500000D02*
X170640000Y-93500000D01*
G75*
G02*
X170465000Y-93325000I0J175000D01*
G01*
X170465000Y-91925000D01*
G75*
G02*
X170640000Y-91750000I175000J0D01*
G01*
X170990000Y-91750000D01*
G75*
G02*
X171165000Y-91925000I0J-175000D01*
G01*
X171165000Y-93325000D01*
G75*
G02*
X170990000Y-93500000I-175000J0D01*
G01*
G37*
G36*
G01*
X172260000Y-93500000D02*
X171910000Y-93500000D01*
G75*
G02*
X171735000Y-93325000I0J175000D01*
G01*
X171735000Y-91925000D01*
G75*
G02*
X171910000Y-91750000I175000J0D01*
G01*
X172260000Y-91750000D01*
G75*
G02*
X172435000Y-91925000I0J-175000D01*
G01*
X172435000Y-93325000D01*
G75*
G02*
X172260000Y-93500000I-175000J0D01*
G01*
G37*
G36*
G01*
X172260000Y-98750000D02*
X171910000Y-98750000D01*
G75*
G02*
X171735000Y-98575000I0J175000D01*
G01*
X171735000Y-97175000D01*
G75*
G02*
X171910000Y-97000000I175000J0D01*
G01*
X172260000Y-97000000D01*
G75*
G02*
X172435000Y-97175000I0J-175000D01*
G01*
X172435000Y-98575000D01*
G75*
G02*
X172260000Y-98750000I-175000J0D01*
G01*
G37*
G36*
G01*
X170990000Y-98750000D02*
X170640000Y-98750000D01*
G75*
G02*
X170465000Y-98575000I0J175000D01*
G01*
X170465000Y-97175000D01*
G75*
G02*
X170640000Y-97000000I175000J0D01*
G01*
X170990000Y-97000000D01*
G75*
G02*
X171165000Y-97175000I0J-175000D01*
G01*
X171165000Y-98575000D01*
G75*
G02*
X170990000Y-98750000I-175000J0D01*
G01*
G37*
G36*
G01*
X169720000Y-98750000D02*
X169370000Y-98750000D01*
G75*
G02*
X169195000Y-98575000I0J175000D01*
G01*
X169195000Y-97175000D01*
G75*
G02*
X169370000Y-97000000I175000J0D01*
G01*
X169720000Y-97000000D01*
G75*
G02*
X169895000Y-97175000I0J-175000D01*
G01*
X169895000Y-98575000D01*
G75*
G02*
X169720000Y-98750000I-175000J0D01*
G01*
G37*
G36*
G01*
X168450000Y-98750000D02*
X168100000Y-98750000D01*
G75*
G02*
X167925000Y-98575000I0J175000D01*
G01*
X167925000Y-97175000D01*
G75*
G02*
X168100000Y-97000000I175000J0D01*
G01*
X168450000Y-97000000D01*
G75*
G02*
X168625000Y-97175000I0J-175000D01*
G01*
X168625000Y-98575000D01*
G75*
G02*
X168450000Y-98750000I-175000J0D01*
G01*
G37*
G36*
G01*
X184325000Y-93500000D02*
X183975000Y-93500000D01*
G75*
G02*
X183800000Y-93325000I0J175000D01*
G01*
X183800000Y-91925000D01*
G75*
G02*
X183975000Y-91750000I175000J0D01*
G01*
X184325000Y-91750000D01*
G75*
G02*
X184500000Y-91925000I0J-175000D01*
G01*
X184500000Y-93325000D01*
G75*
G02*
X184325000Y-93500000I-175000J0D01*
G01*
G37*
G36*
G01*
X185595000Y-93500000D02*
X185245000Y-93500000D01*
G75*
G02*
X185070000Y-93325000I0J175000D01*
G01*
X185070000Y-91925000D01*
G75*
G02*
X185245000Y-91750000I175000J0D01*
G01*
X185595000Y-91750000D01*
G75*
G02*
X185770000Y-91925000I0J-175000D01*
G01*
X185770000Y-93325000D01*
G75*
G02*
X185595000Y-93500000I-175000J0D01*
G01*
G37*
G36*
G01*
X186865000Y-93500000D02*
X186515000Y-93500000D01*
G75*
G02*
X186340000Y-93325000I0J175000D01*
G01*
X186340000Y-91925000D01*
G75*
G02*
X186515000Y-91750000I175000J0D01*
G01*
X186865000Y-91750000D01*
G75*
G02*
X187040000Y-91925000I0J-175000D01*
G01*
X187040000Y-93325000D01*
G75*
G02*
X186865000Y-93500000I-175000J0D01*
G01*
G37*
G36*
G01*
X188135000Y-93500000D02*
X187785000Y-93500000D01*
G75*
G02*
X187610000Y-93325000I0J175000D01*
G01*
X187610000Y-91925000D01*
G75*
G02*
X187785000Y-91750000I175000J0D01*
G01*
X188135000Y-91750000D01*
G75*
G02*
X188310000Y-91925000I0J-175000D01*
G01*
X188310000Y-93325000D01*
G75*
G02*
X188135000Y-93500000I-175000J0D01*
G01*
G37*
G36*
G01*
X188135000Y-98750000D02*
X187785000Y-98750000D01*
G75*
G02*
X187610000Y-98575000I0J175000D01*
G01*
X187610000Y-97175000D01*
G75*
G02*
X187785000Y-97000000I175000J0D01*
G01*
X188135000Y-97000000D01*
G75*
G02*
X188310000Y-97175000I0J-175000D01*
G01*
X188310000Y-98575000D01*
G75*
G02*
X188135000Y-98750000I-175000J0D01*
G01*
G37*
G36*
G01*
X186865000Y-98750000D02*
X186515000Y-98750000D01*
G75*
G02*
X186340000Y-98575000I0J175000D01*
G01*
X186340000Y-97175000D01*
G75*
G02*
X186515000Y-97000000I175000J0D01*
G01*
X186865000Y-97000000D01*
G75*
G02*
X187040000Y-97175000I0J-175000D01*
G01*
X187040000Y-98575000D01*
G75*
G02*
X186865000Y-98750000I-175000J0D01*
G01*
G37*
G36*
G01*
X185595000Y-98750000D02*
X185245000Y-98750000D01*
G75*
G02*
X185070000Y-98575000I0J175000D01*
G01*
X185070000Y-97175000D01*
G75*
G02*
X185245000Y-97000000I175000J0D01*
G01*
X185595000Y-97000000D01*
G75*
G02*
X185770000Y-97175000I0J-175000D01*
G01*
X185770000Y-98575000D01*
G75*
G02*
X185595000Y-98750000I-175000J0D01*
G01*
G37*
G36*
G01*
X184325000Y-98750000D02*
X183975000Y-98750000D01*
G75*
G02*
X183800000Y-98575000I0J175000D01*
G01*
X183800000Y-97175000D01*
G75*
G02*
X183975000Y-97000000I175000J0D01*
G01*
X184325000Y-97000000D01*
G75*
G02*
X184500000Y-97175000I0J-175000D01*
G01*
X184500000Y-98575000D01*
G75*
G02*
X184325000Y-98750000I-175000J0D01*
G01*
G37*
G36*
G01*
X151305000Y-91595000D02*
X150955000Y-91595000D01*
G75*
G02*
X150780000Y-91420000I0J175000D01*
G01*
X150780000Y-90020000D01*
G75*
G02*
X150955000Y-89845000I175000J0D01*
G01*
X151305000Y-89845000D01*
G75*
G02*
X151480000Y-90020000I0J-175000D01*
G01*
X151480000Y-91420000D01*
G75*
G02*
X151305000Y-91595000I-175000J0D01*
G01*
G37*
G36*
G01*
X152575000Y-91595000D02*
X152225000Y-91595000D01*
G75*
G02*
X152050000Y-91420000I0J175000D01*
G01*
X152050000Y-90020000D01*
G75*
G02*
X152225000Y-89845000I175000J0D01*
G01*
X152575000Y-89845000D01*
G75*
G02*
X152750000Y-90020000I0J-175000D01*
G01*
X152750000Y-91420000D01*
G75*
G02*
X152575000Y-91595000I-175000J0D01*
G01*
G37*
G36*
G01*
X153845000Y-91595000D02*
X153495000Y-91595000D01*
G75*
G02*
X153320000Y-91420000I0J175000D01*
G01*
X153320000Y-90020000D01*
G75*
G02*
X153495000Y-89845000I175000J0D01*
G01*
X153845000Y-89845000D01*
G75*
G02*
X154020000Y-90020000I0J-175000D01*
G01*
X154020000Y-91420000D01*
G75*
G02*
X153845000Y-91595000I-175000J0D01*
G01*
G37*
G36*
G01*
X155115000Y-91595000D02*
X154765000Y-91595000D01*
G75*
G02*
X154590000Y-91420000I0J175000D01*
G01*
X154590000Y-90020000D01*
G75*
G02*
X154765000Y-89845000I175000J0D01*
G01*
X155115000Y-89845000D01*
G75*
G02*
X155290000Y-90020000I0J-175000D01*
G01*
X155290000Y-91420000D01*
G75*
G02*
X155115000Y-91595000I-175000J0D01*
G01*
G37*
G36*
G01*
X155115000Y-96845000D02*
X154765000Y-96845000D01*
G75*
G02*
X154590000Y-96670000I0J175000D01*
G01*
X154590000Y-95270000D01*
G75*
G02*
X154765000Y-95095000I175000J0D01*
G01*
X155115000Y-95095000D01*
G75*
G02*
X155290000Y-95270000I0J-175000D01*
G01*
X155290000Y-96670000D01*
G75*
G02*
X155115000Y-96845000I-175000J0D01*
G01*
G37*
G36*
G01*
X153845000Y-96845000D02*
X153495000Y-96845000D01*
G75*
G02*
X153320000Y-96670000I0J175000D01*
G01*
X153320000Y-95270000D01*
G75*
G02*
X153495000Y-95095000I175000J0D01*
G01*
X153845000Y-95095000D01*
G75*
G02*
X154020000Y-95270000I0J-175000D01*
G01*
X154020000Y-96670000D01*
G75*
G02*
X153845000Y-96845000I-175000J0D01*
G01*
G37*
G36*
G01*
X152575000Y-96845000D02*
X152225000Y-96845000D01*
G75*
G02*
X152050000Y-96670000I0J175000D01*
G01*
X152050000Y-95270000D01*
G75*
G02*
X152225000Y-95095000I175000J0D01*
G01*
X152575000Y-95095000D01*
G75*
G02*
X152750000Y-95270000I0J-175000D01*
G01*
X152750000Y-96670000D01*
G75*
G02*
X152575000Y-96845000I-175000J0D01*
G01*
G37*
G36*
G01*
X151305000Y-96845000D02*
X150955000Y-96845000D01*
G75*
G02*
X150780000Y-96670000I0J175000D01*
G01*
X150780000Y-95270000D01*
G75*
G02*
X150955000Y-95095000I175000J0D01*
G01*
X151305000Y-95095000D01*
G75*
G02*
X151480000Y-95270000I0J-175000D01*
G01*
X151480000Y-96670000D01*
G75*
G02*
X151305000Y-96845000I-175000J0D01*
G01*
G37*
G36*
G01*
X138361000Y-91595000D02*
X138011000Y-91595000D01*
G75*
G02*
X137836000Y-91420000I0J175000D01*
G01*
X137836000Y-90020000D01*
G75*
G02*
X138011000Y-89845000I175000J0D01*
G01*
X138361000Y-89845000D01*
G75*
G02*
X138536000Y-90020000I0J-175000D01*
G01*
X138536000Y-91420000D01*
G75*
G02*
X138361000Y-91595000I-175000J0D01*
G01*
G37*
G36*
G01*
X139631000Y-91595000D02*
X139281000Y-91595000D01*
G75*
G02*
X139106000Y-91420000I0J175000D01*
G01*
X139106000Y-90020000D01*
G75*
G02*
X139281000Y-89845000I175000J0D01*
G01*
X139631000Y-89845000D01*
G75*
G02*
X139806000Y-90020000I0J-175000D01*
G01*
X139806000Y-91420000D01*
G75*
G02*
X139631000Y-91595000I-175000J0D01*
G01*
G37*
G36*
G01*
X140901000Y-91595000D02*
X140551000Y-91595000D01*
G75*
G02*
X140376000Y-91420000I0J175000D01*
G01*
X140376000Y-90020000D01*
G75*
G02*
X140551000Y-89845000I175000J0D01*
G01*
X140901000Y-89845000D01*
G75*
G02*
X141076000Y-90020000I0J-175000D01*
G01*
X141076000Y-91420000D01*
G75*
G02*
X140901000Y-91595000I-175000J0D01*
G01*
G37*
G36*
G01*
X142171000Y-91595000D02*
X141821000Y-91595000D01*
G75*
G02*
X141646000Y-91420000I0J175000D01*
G01*
X141646000Y-90020000D01*
G75*
G02*
X141821000Y-89845000I175000J0D01*
G01*
X142171000Y-89845000D01*
G75*
G02*
X142346000Y-90020000I0J-175000D01*
G01*
X142346000Y-91420000D01*
G75*
G02*
X142171000Y-91595000I-175000J0D01*
G01*
G37*
G36*
G01*
X142171000Y-96845000D02*
X141821000Y-96845000D01*
G75*
G02*
X141646000Y-96670000I0J175000D01*
G01*
X141646000Y-95270000D01*
G75*
G02*
X141821000Y-95095000I175000J0D01*
G01*
X142171000Y-95095000D01*
G75*
G02*
X142346000Y-95270000I0J-175000D01*
G01*
X142346000Y-96670000D01*
G75*
G02*
X142171000Y-96845000I-175000J0D01*
G01*
G37*
G36*
G01*
X140901000Y-96845000D02*
X140551000Y-96845000D01*
G75*
G02*
X140376000Y-96670000I0J175000D01*
G01*
X140376000Y-95270000D01*
G75*
G02*
X140551000Y-95095000I175000J0D01*
G01*
X140901000Y-95095000D01*
G75*
G02*
X141076000Y-95270000I0J-175000D01*
G01*
X141076000Y-96670000D01*
G75*
G02*
X140901000Y-96845000I-175000J0D01*
G01*
G37*
G36*
G01*
X139631000Y-96845000D02*
X139281000Y-96845000D01*
G75*
G02*
X139106000Y-96670000I0J175000D01*
G01*
X139106000Y-95270000D01*
G75*
G02*
X139281000Y-95095000I175000J0D01*
G01*
X139631000Y-95095000D01*
G75*
G02*
X139806000Y-95270000I0J-175000D01*
G01*
X139806000Y-96670000D01*
G75*
G02*
X139631000Y-96845000I-175000J0D01*
G01*
G37*
G36*
G01*
X138361000Y-96845000D02*
X138011000Y-96845000D01*
G75*
G02*
X137836000Y-96670000I0J175000D01*
G01*
X137836000Y-95270000D01*
G75*
G02*
X138011000Y-95095000I175000J0D01*
G01*
X138361000Y-95095000D01*
G75*
G02*
X138536000Y-95270000I0J-175000D01*
G01*
X138536000Y-96670000D01*
G75*
G02*
X138361000Y-96845000I-175000J0D01*
G01*
G37*
D20*
X188906599Y-64244600D03*
X197106601Y-64244600D03*
D21*
X191000000Y-63000000D03*
X193006600Y-63000000D03*
X195013200Y-63000000D03*
X191000000Y-65489200D03*
X193006600Y-65489200D03*
X195013200Y-65489200D03*
D20*
X175906599Y-64244600D03*
X184106601Y-64244600D03*
D21*
X178000000Y-63000000D03*
X180006600Y-63000000D03*
X182013200Y-63000000D03*
X178000000Y-65489200D03*
X180006600Y-65489200D03*
X182013200Y-65489200D03*
G36*
G01*
X192740000Y-69587500D02*
X192740000Y-70112500D01*
G75*
G02*
X192477500Y-70375000I-262500J0D01*
G01*
X191852500Y-70375000D01*
G75*
G02*
X191590000Y-70112500I0J262500D01*
G01*
X191590000Y-69587500D01*
G75*
G02*
X191852500Y-69325000I262500J0D01*
G01*
X192477500Y-69325000D01*
G75*
G02*
X192740000Y-69587500I0J-262500D01*
G01*
G37*
G36*
G01*
X194490000Y-69587500D02*
X194490000Y-70112500D01*
G75*
G02*
X194227500Y-70375000I-262500J0D01*
G01*
X193602500Y-70375000D01*
G75*
G02*
X193340000Y-70112500I0J262500D01*
G01*
X193340000Y-69587500D01*
G75*
G02*
X193602500Y-69325000I262500J0D01*
G01*
X194227500Y-69325000D01*
G75*
G02*
X194490000Y-69587500I0J-262500D01*
G01*
G37*
G36*
G01*
X188967500Y-77770000D02*
X189492500Y-77770000D01*
G75*
G02*
X189755000Y-78032500I0J-262500D01*
G01*
X189755000Y-78657500D01*
G75*
G02*
X189492500Y-78920000I-262500J0D01*
G01*
X188967500Y-78920000D01*
G75*
G02*
X188705000Y-78657500I0J262500D01*
G01*
X188705000Y-78032500D01*
G75*
G02*
X188967500Y-77770000I262500J0D01*
G01*
G37*
G36*
G01*
X188967500Y-76020000D02*
X189492500Y-76020000D01*
G75*
G02*
X189755000Y-76282500I0J-262500D01*
G01*
X189755000Y-76907500D01*
G75*
G02*
X189492500Y-77170000I-262500J0D01*
G01*
X188967500Y-77170000D01*
G75*
G02*
X188705000Y-76907500I0J262500D01*
G01*
X188705000Y-76282500D01*
G75*
G02*
X188967500Y-76020000I262500J0D01*
G01*
G37*
G36*
G01*
X188295000Y-69587500D02*
X188295000Y-70112500D01*
G75*
G02*
X188032500Y-70375000I-262500J0D01*
G01*
X187407500Y-70375000D01*
G75*
G02*
X187145000Y-70112500I0J262500D01*
G01*
X187145000Y-69587500D01*
G75*
G02*
X187407500Y-69325000I262500J0D01*
G01*
X188032500Y-69325000D01*
G75*
G02*
X188295000Y-69587500I0J-262500D01*
G01*
G37*
G36*
G01*
X190045000Y-69587500D02*
X190045000Y-70112500D01*
G75*
G02*
X189782500Y-70375000I-262500J0D01*
G01*
X189157500Y-70375000D01*
G75*
G02*
X188895000Y-70112500I0J262500D01*
G01*
X188895000Y-69587500D01*
G75*
G02*
X189157500Y-69325000I262500J0D01*
G01*
X189782500Y-69325000D01*
G75*
G02*
X190045000Y-69587500I0J-262500D01*
G01*
G37*
G36*
G01*
X171187500Y-87930000D02*
X171712500Y-87930000D01*
G75*
G02*
X171975000Y-88192500I0J-262500D01*
G01*
X171975000Y-88817500D01*
G75*
G02*
X171712500Y-89080000I-262500J0D01*
G01*
X171187500Y-89080000D01*
G75*
G02*
X170925000Y-88817500I0J262500D01*
G01*
X170925000Y-88192500D01*
G75*
G02*
X171187500Y-87930000I262500J0D01*
G01*
G37*
G36*
G01*
X171187500Y-86180000D02*
X171712500Y-86180000D01*
G75*
G02*
X171975000Y-86442500I0J-262500D01*
G01*
X171975000Y-87067500D01*
G75*
G02*
X171712500Y-87330000I-262500J0D01*
G01*
X171187500Y-87330000D01*
G75*
G02*
X170925000Y-87067500I0J262500D01*
G01*
X170925000Y-86442500D01*
G75*
G02*
X171187500Y-86180000I262500J0D01*
G01*
G37*
G36*
G01*
X215565000Y-105037500D02*
X215565000Y-104512500D01*
G75*
G02*
X215827500Y-104250000I262500J0D01*
G01*
X216452500Y-104250000D01*
G75*
G02*
X216715000Y-104512500I0J-262500D01*
G01*
X216715000Y-105037500D01*
G75*
G02*
X216452500Y-105300000I-262500J0D01*
G01*
X215827500Y-105300000D01*
G75*
G02*
X215565000Y-105037500I0J262500D01*
G01*
G37*
G36*
G01*
X213815000Y-105037500D02*
X213815000Y-104512500D01*
G75*
G02*
X214077500Y-104250000I262500J0D01*
G01*
X214702500Y-104250000D01*
G75*
G02*
X214965000Y-104512500I0J-262500D01*
G01*
X214965000Y-105037500D01*
G75*
G02*
X214702500Y-105300000I-262500J0D01*
G01*
X214077500Y-105300000D01*
G75*
G02*
X213815000Y-105037500I0J262500D01*
G01*
G37*
G36*
G01*
X205165000Y-105037500D02*
X205165000Y-104512500D01*
G75*
G02*
X205427500Y-104250000I262500J0D01*
G01*
X206052500Y-104250000D01*
G75*
G02*
X206315000Y-104512500I0J-262500D01*
G01*
X206315000Y-105037500D01*
G75*
G02*
X206052500Y-105300000I-262500J0D01*
G01*
X205427500Y-105300000D01*
G75*
G02*
X205165000Y-105037500I0J262500D01*
G01*
G37*
G36*
G01*
X203415000Y-105037500D02*
X203415000Y-104512500D01*
G75*
G02*
X203677500Y-104250000I262500J0D01*
G01*
X204302500Y-104250000D01*
G75*
G02*
X204565000Y-104512500I0J-262500D01*
G01*
X204565000Y-105037500D01*
G75*
G02*
X204302500Y-105300000I-262500J0D01*
G01*
X203677500Y-105300000D01*
G75*
G02*
X203415000Y-105037500I0J262500D01*
G01*
G37*
G36*
G01*
X199652500Y-115905000D02*
X199127500Y-115905000D01*
G75*
G02*
X198865000Y-115642500I0J262500D01*
G01*
X198865000Y-115017500D01*
G75*
G02*
X199127500Y-114755000I262500J0D01*
G01*
X199652500Y-114755000D01*
G75*
G02*
X199915000Y-115017500I0J-262500D01*
G01*
X199915000Y-115642500D01*
G75*
G02*
X199652500Y-115905000I-262500J0D01*
G01*
G37*
G36*
G01*
X199652500Y-117655000D02*
X199127500Y-117655000D01*
G75*
G02*
X198865000Y-117392500I0J262500D01*
G01*
X198865000Y-116767500D01*
G75*
G02*
X199127500Y-116505000I262500J0D01*
G01*
X199652500Y-116505000D01*
G75*
G02*
X199915000Y-116767500I0J-262500D01*
G01*
X199915000Y-117392500D01*
G75*
G02*
X199652500Y-117655000I-262500J0D01*
G01*
G37*
D22*
X179070000Y-95630000D03*
X179070000Y-92330000D03*
X163195000Y-95630000D03*
X163195000Y-92330000D03*
D23*
X185165000Y-100965000D03*
X181865000Y-100965000D03*
X169418000Y-100965000D03*
X166118000Y-100965000D03*
D24*
X113030000Y-100265000D03*
X113030000Y-101665000D03*
X113030000Y-104840000D03*
X113030000Y-103440000D03*
X118745000Y-104840000D03*
X118745000Y-103440000D03*
X118745000Y-100265000D03*
X118745000Y-101665000D03*
G36*
G01*
X202230000Y-77732500D02*
X202230000Y-77207500D01*
G75*
G02*
X202492500Y-76945000I262500J0D01*
G01*
X203117500Y-76945000D01*
G75*
G02*
X203380000Y-77207500I0J-262500D01*
G01*
X203380000Y-77732500D01*
G75*
G02*
X203117500Y-77995000I-262500J0D01*
G01*
X202492500Y-77995000D01*
G75*
G02*
X202230000Y-77732500I0J262500D01*
G01*
G37*
G36*
G01*
X200480000Y-77732500D02*
X200480000Y-77207500D01*
G75*
G02*
X200742500Y-76945000I262500J0D01*
G01*
X201367500Y-76945000D01*
G75*
G02*
X201630000Y-77207500I0J-262500D01*
G01*
X201630000Y-77732500D01*
G75*
G02*
X201367500Y-77995000I-262500J0D01*
G01*
X200742500Y-77995000D01*
G75*
G02*
X200480000Y-77732500I0J262500D01*
G01*
G37*
G36*
G01*
X202230000Y-83447500D02*
X202230000Y-82922500D01*
G75*
G02*
X202492500Y-82660000I262500J0D01*
G01*
X203117500Y-82660000D01*
G75*
G02*
X203380000Y-82922500I0J-262500D01*
G01*
X203380000Y-83447500D01*
G75*
G02*
X203117500Y-83710000I-262500J0D01*
G01*
X202492500Y-83710000D01*
G75*
G02*
X202230000Y-83447500I0J262500D01*
G01*
G37*
G36*
G01*
X200480000Y-83447500D02*
X200480000Y-82922500D01*
G75*
G02*
X200742500Y-82660000I262500J0D01*
G01*
X201367500Y-82660000D01*
G75*
G02*
X201630000Y-82922500I0J-262500D01*
G01*
X201630000Y-83447500D01*
G75*
G02*
X201367500Y-83710000I-262500J0D01*
G01*
X200742500Y-83710000D01*
G75*
G02*
X200480000Y-83447500I0J262500D01*
G01*
G37*
G36*
G01*
X185047500Y-87330000D02*
X184522500Y-87330000D01*
G75*
G02*
X184260000Y-87067500I0J262500D01*
G01*
X184260000Y-86442500D01*
G75*
G02*
X184522500Y-86180000I262500J0D01*
G01*
X185047500Y-86180000D01*
G75*
G02*
X185310000Y-86442500I0J-262500D01*
G01*
X185310000Y-87067500D01*
G75*
G02*
X185047500Y-87330000I-262500J0D01*
G01*
G37*
G36*
G01*
X185047500Y-89080000D02*
X184522500Y-89080000D01*
G75*
G02*
X184260000Y-88817500I0J262500D01*
G01*
X184260000Y-88192500D01*
G75*
G02*
X184522500Y-87930000I262500J0D01*
G01*
X185047500Y-87930000D01*
G75*
G02*
X185310000Y-88192500I0J-262500D01*
G01*
X185310000Y-88817500D01*
G75*
G02*
X185047500Y-89080000I-262500J0D01*
G01*
G37*
G36*
G01*
X167902500Y-87330000D02*
X167377500Y-87330000D01*
G75*
G02*
X167115000Y-87067500I0J262500D01*
G01*
X167115000Y-86442500D01*
G75*
G02*
X167377500Y-86180000I262500J0D01*
G01*
X167902500Y-86180000D01*
G75*
G02*
X168165000Y-86442500I0J-262500D01*
G01*
X168165000Y-87067500D01*
G75*
G02*
X167902500Y-87330000I-262500J0D01*
G01*
G37*
G36*
G01*
X167902500Y-89080000D02*
X167377500Y-89080000D01*
G75*
G02*
X167115000Y-88817500I0J262500D01*
G01*
X167115000Y-88192500D01*
G75*
G02*
X167377500Y-87930000I262500J0D01*
G01*
X167902500Y-87930000D01*
G75*
G02*
X168165000Y-88192500I0J-262500D01*
G01*
X168165000Y-88817500D01*
G75*
G02*
X167902500Y-89080000I-262500J0D01*
G01*
G37*
G36*
G01*
X192142500Y-77770000D02*
X192667500Y-77770000D01*
G75*
G02*
X192930000Y-78032500I0J-262500D01*
G01*
X192930000Y-78657500D01*
G75*
G02*
X192667500Y-78920000I-262500J0D01*
G01*
X192142500Y-78920000D01*
G75*
G02*
X191880000Y-78657500I0J262500D01*
G01*
X191880000Y-78032500D01*
G75*
G02*
X192142500Y-77770000I262500J0D01*
G01*
G37*
G36*
G01*
X192142500Y-76020000D02*
X192667500Y-76020000D01*
G75*
G02*
X192930000Y-76282500I0J-262500D01*
G01*
X192930000Y-76907500D01*
G75*
G02*
X192667500Y-77170000I-262500J0D01*
G01*
X192142500Y-77170000D01*
G75*
G02*
X191880000Y-76907500I0J262500D01*
G01*
X191880000Y-76282500D01*
G75*
G02*
X192142500Y-76020000I262500J0D01*
G01*
G37*
G36*
G01*
X174362500Y-76500000D02*
X174887500Y-76500000D01*
G75*
G02*
X175150000Y-76762500I0J-262500D01*
G01*
X175150000Y-77387500D01*
G75*
G02*
X174887500Y-77650000I-262500J0D01*
G01*
X174362500Y-77650000D01*
G75*
G02*
X174100000Y-77387500I0J262500D01*
G01*
X174100000Y-76762500D01*
G75*
G02*
X174362500Y-76500000I262500J0D01*
G01*
G37*
G36*
G01*
X174362500Y-74750000D02*
X174887500Y-74750000D01*
G75*
G02*
X175150000Y-75012500I0J-262500D01*
G01*
X175150000Y-75637500D01*
G75*
G02*
X174887500Y-75900000I-262500J0D01*
G01*
X174362500Y-75900000D01*
G75*
G02*
X174100000Y-75637500I0J262500D01*
G01*
X174100000Y-75012500D01*
G75*
G02*
X174362500Y-74750000I262500J0D01*
G01*
G37*
D11*
X197010000Y-76835000D03*
X207010000Y-76835000D03*
X197010000Y-82550000D03*
X207010000Y-82550000D03*
X103465000Y-72390000D03*
D12*
X100965000Y-72390000D03*
D11*
X80010000Y-78780000D03*
D12*
X80010000Y-81280000D03*
D17*
X172000000Y-111500000D03*
X169500000Y-111500000D03*
X167000000Y-111500000D03*
X172000000Y-114000000D03*
X169500000Y-114000000D03*
X167000000Y-114000000D03*
D25*
X220000000Y-65000000D03*
X80000000Y-65000000D03*
X80000000Y-114000000D03*
X220000000Y-114000000D03*
D26*
X84501000Y-70850000D03*
X89200000Y-67720000D03*
D27*
X89200000Y-73750000D03*
D17*
X154000000Y-111500000D03*
X151500000Y-111500000D03*
X149000000Y-111500000D03*
X154000000Y-114000000D03*
X151500000Y-114000000D03*
X149000000Y-114000000D03*
X136000000Y-111500000D03*
X133500000Y-111500000D03*
X131000000Y-111500000D03*
X136000000Y-114000000D03*
X133500000Y-114000000D03*
X131000000Y-114000000D03*
X190000000Y-111500000D03*
X187500000Y-111500000D03*
X185000000Y-111500000D03*
X190000000Y-114000000D03*
X187500000Y-114000000D03*
X185000000Y-114000000D03*
D28*
X112800000Y-61280000D03*
X107720000Y-61280000D03*
X107720000Y-68900000D03*
X112800000Y-68900000D03*
D19*
X86995000Y-96520000D03*
X86995000Y-93980000D03*
X86995000Y-91440000D03*
X86995000Y-88900000D03*
X86995000Y-83820000D03*
X86995000Y-81280000D03*
X86995000Y-78740000D03*
X98425000Y-96647000D03*
X98425000Y-94107000D03*
X98425000Y-91567000D03*
X98425000Y-89027000D03*
X98425000Y-83947000D03*
X98425000Y-81407000D03*
X98425000Y-78867000D03*
D17*
X95500000Y-104740000D03*
X95500000Y-107280000D03*
X95500000Y-109820000D03*
X95500000Y-114900000D03*
D18*
X202200000Y-70904000D03*
X202200000Y-65404000D03*
X202200000Y-62204000D03*
X209800000Y-71504000D03*
X209800000Y-69204000D03*
X209800000Y-62204000D03*
D19*
X206000000Y-69404000D03*
X206000000Y-62404000D03*
D18*
X163200000Y-70904000D03*
X163200000Y-65404000D03*
X163200000Y-62204000D03*
X170800000Y-71504000D03*
X170800000Y-69204000D03*
X170800000Y-62204000D03*
D19*
X167000000Y-69404000D03*
X167000000Y-62404000D03*
D18*
X149400000Y-70900000D03*
X149400000Y-65400000D03*
X149400000Y-62200000D03*
X157000000Y-71500000D03*
X157000000Y-69200000D03*
X157000000Y-62200000D03*
D19*
X153200000Y-69400000D03*
X153200000Y-62400000D03*
D18*
X211800000Y-108100000D03*
X211800000Y-113600000D03*
X211800000Y-116800000D03*
X204200000Y-107500000D03*
X204200000Y-109800000D03*
X204200000Y-116800000D03*
D19*
X208000000Y-109600000D03*
X208000000Y-116600000D03*
D29*
X131900000Y-71800000D03*
X131900000Y-73000000D03*
X131900000Y-74200000D03*
X131900000Y-75400000D03*
X131900000Y-76600000D03*
X131900000Y-77800000D03*
X131900000Y-79000000D03*
X131900000Y-80200000D03*
X131900000Y-81400000D03*
X131900000Y-82600000D03*
X131900000Y-83800000D03*
X131900000Y-85000000D03*
X131900000Y-86200000D03*
X131900000Y-87400000D03*
D30*
X129800000Y-88873000D03*
X128530000Y-88873000D03*
X127260000Y-88873000D03*
X125990000Y-88873000D03*
X124720000Y-88873000D03*
X123450000Y-88873000D03*
X122180000Y-88873000D03*
X120910000Y-88873000D03*
X119640000Y-88873000D03*
D29*
X117350000Y-87405480D03*
X117350000Y-86205480D03*
X117350000Y-85005480D03*
X117350000Y-83805480D03*
X117350000Y-82605480D03*
X117350000Y-81405480D03*
X117350000Y-80205480D03*
X117350000Y-79005480D03*
X117350000Y-77805480D03*
X117350000Y-76605480D03*
X117350000Y-75405480D03*
X117350000Y-74205480D03*
X117350000Y-73005480D03*
X117350000Y-71805480D03*
D31*
X83820000Y-103505000D03*
X86360000Y-103505000D03*
D32*
X88900000Y-103505000D03*
D31*
X101600000Y-103505000D03*
X104140000Y-103505000D03*
D32*
X106680000Y-103505000D03*
G36*
G01*
X176902500Y-76500000D02*
X177427500Y-76500000D01*
G75*
G02*
X177690000Y-76762500I0J-262500D01*
G01*
X177690000Y-77387500D01*
G75*
G02*
X177427500Y-77650000I-262500J0D01*
G01*
X176902500Y-77650000D01*
G75*
G02*
X176640000Y-77387500I0J262500D01*
G01*
X176640000Y-76762500D01*
G75*
G02*
X176902500Y-76500000I262500J0D01*
G01*
G37*
G36*
G01*
X176902500Y-74750000D02*
X177427500Y-74750000D01*
G75*
G02*
X177690000Y-75012500I0J-262500D01*
G01*
X177690000Y-75637500D01*
G75*
G02*
X177427500Y-75900000I-262500J0D01*
G01*
X176902500Y-75900000D01*
G75*
G02*
X176640000Y-75637500I0J262500D01*
G01*
X176640000Y-75012500D01*
G75*
G02*
X176902500Y-74750000I262500J0D01*
G01*
G37*
G36*
G01*
X188967500Y-82215000D02*
X189492500Y-82215000D01*
G75*
G02*
X189755000Y-82477500I0J-262500D01*
G01*
X189755000Y-83102500D01*
G75*
G02*
X189492500Y-83365000I-262500J0D01*
G01*
X188967500Y-83365000D01*
G75*
G02*
X188705000Y-83102500I0J262500D01*
G01*
X188705000Y-82477500D01*
G75*
G02*
X188967500Y-82215000I262500J0D01*
G01*
G37*
G36*
G01*
X188967500Y-80465000D02*
X189492500Y-80465000D01*
G75*
G02*
X189755000Y-80727500I0J-262500D01*
G01*
X189755000Y-81352500D01*
G75*
G02*
X189492500Y-81615000I-262500J0D01*
G01*
X188967500Y-81615000D01*
G75*
G02*
X188705000Y-81352500I0J262500D01*
G01*
X188705000Y-80727500D01*
G75*
G02*
X188967500Y-80465000I262500J0D01*
G01*
G37*
G36*
G01*
X174362500Y-80945000D02*
X174887500Y-80945000D01*
G75*
G02*
X175150000Y-81207500I0J-262500D01*
G01*
X175150000Y-81832500D01*
G75*
G02*
X174887500Y-82095000I-262500J0D01*
G01*
X174362500Y-82095000D01*
G75*
G02*
X174100000Y-81832500I0J262500D01*
G01*
X174100000Y-81207500D01*
G75*
G02*
X174362500Y-80945000I262500J0D01*
G01*
G37*
G36*
G01*
X174362500Y-79195000D02*
X174887500Y-79195000D01*
G75*
G02*
X175150000Y-79457500I0J-262500D01*
G01*
X175150000Y-80082500D01*
G75*
G02*
X174887500Y-80345000I-262500J0D01*
G01*
X174362500Y-80345000D01*
G75*
G02*
X174100000Y-80082500I0J262500D01*
G01*
X174100000Y-79457500D01*
G75*
G02*
X174362500Y-79195000I262500J0D01*
G01*
G37*
G36*
G01*
X198420000Y-72652500D02*
X198420000Y-72127500D01*
G75*
G02*
X198682500Y-71865000I262500J0D01*
G01*
X199307500Y-71865000D01*
G75*
G02*
X199570000Y-72127500I0J-262500D01*
G01*
X199570000Y-72652500D01*
G75*
G02*
X199307500Y-72915000I-262500J0D01*
G01*
X198682500Y-72915000D01*
G75*
G02*
X198420000Y-72652500I0J262500D01*
G01*
G37*
G36*
G01*
X196670000Y-72652500D02*
X196670000Y-72127500D01*
G75*
G02*
X196932500Y-71865000I262500J0D01*
G01*
X197557500Y-71865000D01*
G75*
G02*
X197820000Y-72127500I0J-262500D01*
G01*
X197820000Y-72652500D01*
G75*
G02*
X197557500Y-72915000I-262500J0D01*
G01*
X196932500Y-72915000D01*
G75*
G02*
X196670000Y-72652500I0J262500D01*
G01*
G37*
G36*
G01*
X198420000Y-87257500D02*
X198420000Y-86732500D01*
G75*
G02*
X198682500Y-86470000I262500J0D01*
G01*
X199307500Y-86470000D01*
G75*
G02*
X199570000Y-86732500I0J-262500D01*
G01*
X199570000Y-87257500D01*
G75*
G02*
X199307500Y-87520000I-262500J0D01*
G01*
X198682500Y-87520000D01*
G75*
G02*
X198420000Y-87257500I0J262500D01*
G01*
G37*
G36*
G01*
X196670000Y-87257500D02*
X196670000Y-86732500D01*
G75*
G02*
X196932500Y-86470000I262500J0D01*
G01*
X197557500Y-86470000D01*
G75*
G02*
X197820000Y-86732500I0J-262500D01*
G01*
X197820000Y-87257500D01*
G75*
G02*
X197557500Y-87520000I-262500J0D01*
G01*
X196932500Y-87520000D01*
G75*
G02*
X196670000Y-87257500I0J262500D01*
G01*
G37*
G36*
G01*
X219447500Y-90470000D02*
X219972500Y-90470000D01*
G75*
G02*
X220235000Y-90732500I0J-262500D01*
G01*
X220235000Y-91357500D01*
G75*
G02*
X219972500Y-91620000I-262500J0D01*
G01*
X219447500Y-91620000D01*
G75*
G02*
X219185000Y-91357500I0J262500D01*
G01*
X219185000Y-90732500D01*
G75*
G02*
X219447500Y-90470000I262500J0D01*
G01*
G37*
G36*
G01*
X219447500Y-88720000D02*
X219972500Y-88720000D01*
G75*
G02*
X220235000Y-88982500I0J-262500D01*
G01*
X220235000Y-89607500D01*
G75*
G02*
X219972500Y-89870000I-262500J0D01*
G01*
X219447500Y-89870000D01*
G75*
G02*
X219185000Y-89607500I0J262500D01*
G01*
X219185000Y-88982500D01*
G75*
G02*
X219447500Y-88720000I262500J0D01*
G01*
G37*
G36*
G01*
X210520000Y-76572500D02*
X210520000Y-77097500D01*
G75*
G02*
X210257500Y-77360000I-262500J0D01*
G01*
X209632500Y-77360000D01*
G75*
G02*
X209370000Y-77097500I0J262500D01*
G01*
X209370000Y-76572500D01*
G75*
G02*
X209632500Y-76310000I262500J0D01*
G01*
X210257500Y-76310000D01*
G75*
G02*
X210520000Y-76572500I0J-262500D01*
G01*
G37*
G36*
G01*
X212270000Y-76572500D02*
X212270000Y-77097500D01*
G75*
G02*
X212007500Y-77360000I-262500J0D01*
G01*
X211382500Y-77360000D01*
G75*
G02*
X211120000Y-77097500I0J262500D01*
G01*
X211120000Y-76572500D01*
G75*
G02*
X211382500Y-76310000I262500J0D01*
G01*
X212007500Y-76310000D01*
G75*
G02*
X212270000Y-76572500I0J-262500D01*
G01*
G37*
G36*
G01*
X210520000Y-82287500D02*
X210520000Y-82812500D01*
G75*
G02*
X210257500Y-83075000I-262500J0D01*
G01*
X209632500Y-83075000D01*
G75*
G02*
X209370000Y-82812500I0J262500D01*
G01*
X209370000Y-82287500D01*
G75*
G02*
X209632500Y-82025000I262500J0D01*
G01*
X210257500Y-82025000D01*
G75*
G02*
X210520000Y-82287500I0J-262500D01*
G01*
G37*
G36*
G01*
X212270000Y-82287500D02*
X212270000Y-82812500D01*
G75*
G02*
X212007500Y-83075000I-262500J0D01*
G01*
X211382500Y-83075000D01*
G75*
G02*
X211120000Y-82812500I0J262500D01*
G01*
X211120000Y-82287500D01*
G75*
G02*
X211382500Y-82025000I262500J0D01*
G01*
X212007500Y-82025000D01*
G75*
G02*
X212270000Y-82287500I0J-262500D01*
G01*
G37*
G36*
G01*
X215002500Y-90470000D02*
X215527500Y-90470000D01*
G75*
G02*
X215790000Y-90732500I0J-262500D01*
G01*
X215790000Y-91357500D01*
G75*
G02*
X215527500Y-91620000I-262500J0D01*
G01*
X215002500Y-91620000D01*
G75*
G02*
X214740000Y-91357500I0J262500D01*
G01*
X214740000Y-90732500D01*
G75*
G02*
X215002500Y-90470000I262500J0D01*
G01*
G37*
G36*
G01*
X215002500Y-88720000D02*
X215527500Y-88720000D01*
G75*
G02*
X215790000Y-88982500I0J-262500D01*
G01*
X215790000Y-89607500D01*
G75*
G02*
X215527500Y-89870000I-262500J0D01*
G01*
X215002500Y-89870000D01*
G75*
G02*
X214740000Y-89607500I0J262500D01*
G01*
X214740000Y-88982500D01*
G75*
G02*
X215002500Y-88720000I262500J0D01*
G01*
G37*
G36*
G01*
X201032500Y-112060000D02*
X201557500Y-112060000D01*
G75*
G02*
X201820000Y-112322500I0J-262500D01*
G01*
X201820000Y-112947500D01*
G75*
G02*
X201557500Y-113210000I-262500J0D01*
G01*
X201032500Y-113210000D01*
G75*
G02*
X200770000Y-112947500I0J262500D01*
G01*
X200770000Y-112322500D01*
G75*
G02*
X201032500Y-112060000I262500J0D01*
G01*
G37*
G36*
G01*
X201032500Y-110310000D02*
X201557500Y-110310000D01*
G75*
G02*
X201820000Y-110572500I0J-262500D01*
G01*
X201820000Y-111197500D01*
G75*
G02*
X201557500Y-111460000I-262500J0D01*
G01*
X201032500Y-111460000D01*
G75*
G02*
X200770000Y-111197500I0J262500D01*
G01*
X200770000Y-110572500D01*
G75*
G02*
X201032500Y-110310000I262500J0D01*
G01*
G37*
G36*
G01*
X199127500Y-112060000D02*
X199652500Y-112060000D01*
G75*
G02*
X199915000Y-112322500I0J-262500D01*
G01*
X199915000Y-112947500D01*
G75*
G02*
X199652500Y-113210000I-262500J0D01*
G01*
X199127500Y-113210000D01*
G75*
G02*
X198865000Y-112947500I0J262500D01*
G01*
X198865000Y-112322500D01*
G75*
G02*
X199127500Y-112060000I262500J0D01*
G01*
G37*
G36*
G01*
X199127500Y-110310000D02*
X199652500Y-110310000D01*
G75*
G02*
X199915000Y-110572500I0J-262500D01*
G01*
X199915000Y-111197500D01*
G75*
G02*
X199652500Y-111460000I-262500J0D01*
G01*
X199127500Y-111460000D01*
G75*
G02*
X198865000Y-111197500I0J262500D01*
G01*
X198865000Y-110572500D01*
G75*
G02*
X199127500Y-110310000I262500J0D01*
G01*
G37*
G36*
G01*
X196477500Y-98125000D02*
X195952500Y-98125000D01*
G75*
G02*
X195690000Y-97862500I0J262500D01*
G01*
X195690000Y-97237500D01*
G75*
G02*
X195952500Y-96975000I262500J0D01*
G01*
X196477500Y-96975000D01*
G75*
G02*
X196740000Y-97237500I0J-262500D01*
G01*
X196740000Y-97862500D01*
G75*
G02*
X196477500Y-98125000I-262500J0D01*
G01*
G37*
G36*
G01*
X196477500Y-99875000D02*
X195952500Y-99875000D01*
G75*
G02*
X195690000Y-99612500I0J262500D01*
G01*
X195690000Y-98987500D01*
G75*
G02*
X195952500Y-98725000I262500J0D01*
G01*
X196477500Y-98725000D01*
G75*
G02*
X196740000Y-98987500I0J-262500D01*
G01*
X196740000Y-99612500D01*
G75*
G02*
X196477500Y-99875000I-262500J0D01*
G01*
G37*
G36*
G01*
X196477500Y-93680000D02*
X195952500Y-93680000D01*
G75*
G02*
X195690000Y-93417500I0J262500D01*
G01*
X195690000Y-92792500D01*
G75*
G02*
X195952500Y-92530000I262500J0D01*
G01*
X196477500Y-92530000D01*
G75*
G02*
X196740000Y-92792500I0J-262500D01*
G01*
X196740000Y-93417500D01*
G75*
G02*
X196477500Y-93680000I-262500J0D01*
G01*
G37*
G36*
G01*
X196477500Y-95430000D02*
X195952500Y-95430000D01*
G75*
G02*
X195690000Y-95167500I0J262500D01*
G01*
X195690000Y-94542500D01*
G75*
G02*
X195952500Y-94280000I262500J0D01*
G01*
X196477500Y-94280000D01*
G75*
G02*
X196740000Y-94542500I0J-262500D01*
G01*
X196740000Y-95167500D01*
G75*
G02*
X196477500Y-95430000I-262500J0D01*
G01*
G37*
G36*
G01*
X188332500Y-87930000D02*
X188857500Y-87930000D01*
G75*
G02*
X189120000Y-88192500I0J-262500D01*
G01*
X189120000Y-88817500D01*
G75*
G02*
X188857500Y-89080000I-262500J0D01*
G01*
X188332500Y-89080000D01*
G75*
G02*
X188070000Y-88817500I0J262500D01*
G01*
X188070000Y-88192500D01*
G75*
G02*
X188332500Y-87930000I262500J0D01*
G01*
G37*
G36*
G01*
X188332500Y-86180000D02*
X188857500Y-86180000D01*
G75*
G02*
X189120000Y-86442500I0J-262500D01*
G01*
X189120000Y-87067500D01*
G75*
G02*
X188857500Y-87330000I-262500J0D01*
G01*
X188332500Y-87330000D01*
G75*
G02*
X188070000Y-87067500I0J262500D01*
G01*
X188070000Y-86442500D01*
G75*
G02*
X188332500Y-86180000I262500J0D01*
G01*
G37*
G36*
G01*
X124125000Y-104402500D02*
X124125000Y-103877500D01*
G75*
G02*
X124387500Y-103615000I262500J0D01*
G01*
X125012500Y-103615000D01*
G75*
G02*
X125275000Y-103877500I0J-262500D01*
G01*
X125275000Y-104402500D01*
G75*
G02*
X125012500Y-104665000I-262500J0D01*
G01*
X124387500Y-104665000D01*
G75*
G02*
X124125000Y-104402500I0J262500D01*
G01*
G37*
G36*
G01*
X122375000Y-104402500D02*
X122375000Y-103877500D01*
G75*
G02*
X122637500Y-103615000I262500J0D01*
G01*
X123262500Y-103615000D01*
G75*
G02*
X123525000Y-103877500I0J-262500D01*
G01*
X123525000Y-104402500D01*
G75*
G02*
X123262500Y-104665000I-262500J0D01*
G01*
X122637500Y-104665000D01*
G75*
G02*
X122375000Y-104402500I0J262500D01*
G01*
G37*
G36*
G01*
X124125000Y-100592500D02*
X124125000Y-100067500D01*
G75*
G02*
X124387500Y-99805000I262500J0D01*
G01*
X125012500Y-99805000D01*
G75*
G02*
X125275000Y-100067500I0J-262500D01*
G01*
X125275000Y-100592500D01*
G75*
G02*
X125012500Y-100855000I-262500J0D01*
G01*
X124387500Y-100855000D01*
G75*
G02*
X124125000Y-100592500I0J262500D01*
G01*
G37*
G36*
G01*
X122375000Y-100592500D02*
X122375000Y-100067500D01*
G75*
G02*
X122637500Y-99805000I262500J0D01*
G01*
X123262500Y-99805000D01*
G75*
G02*
X123525000Y-100067500I0J-262500D01*
G01*
X123525000Y-100592500D01*
G75*
G02*
X123262500Y-100855000I-262500J0D01*
G01*
X122637500Y-100855000D01*
G75*
G02*
X122375000Y-100592500I0J262500D01*
G01*
G37*
G36*
G01*
X91702500Y-111460000D02*
X91177500Y-111460000D01*
G75*
G02*
X90915000Y-111197500I0J262500D01*
G01*
X90915000Y-110572500D01*
G75*
G02*
X91177500Y-110310000I262500J0D01*
G01*
X91702500Y-110310000D01*
G75*
G02*
X91965000Y-110572500I0J-262500D01*
G01*
X91965000Y-111197500D01*
G75*
G02*
X91702500Y-111460000I-262500J0D01*
G01*
G37*
G36*
G01*
X91702500Y-113210000D02*
X91177500Y-113210000D01*
G75*
G02*
X90915000Y-112947500I0J262500D01*
G01*
X90915000Y-112322500D01*
G75*
G02*
X91177500Y-112060000I262500J0D01*
G01*
X91702500Y-112060000D01*
G75*
G02*
X91965000Y-112322500I0J-262500D01*
G01*
X91965000Y-112947500D01*
G75*
G02*
X91702500Y-113210000I-262500J0D01*
G01*
G37*
G36*
G01*
X140072500Y-75230000D02*
X140597500Y-75230000D01*
G75*
G02*
X140860000Y-75492500I0J-262500D01*
G01*
X140860000Y-76117500D01*
G75*
G02*
X140597500Y-76380000I-262500J0D01*
G01*
X140072500Y-76380000D01*
G75*
G02*
X139810000Y-76117500I0J262500D01*
G01*
X139810000Y-75492500D01*
G75*
G02*
X140072500Y-75230000I262500J0D01*
G01*
G37*
G36*
G01*
X140072500Y-73480000D02*
X140597500Y-73480000D01*
G75*
G02*
X140860000Y-73742500I0J-262500D01*
G01*
X140860000Y-74367500D01*
G75*
G02*
X140597500Y-74630000I-262500J0D01*
G01*
X140072500Y-74630000D01*
G75*
G02*
X139810000Y-74367500I0J262500D01*
G01*
X139810000Y-73742500D01*
G75*
G02*
X140072500Y-73480000I262500J0D01*
G01*
G37*
G36*
G01*
X143247500Y-75230000D02*
X143772500Y-75230000D01*
G75*
G02*
X144035000Y-75492500I0J-262500D01*
G01*
X144035000Y-76117500D01*
G75*
G02*
X143772500Y-76380000I-262500J0D01*
G01*
X143247500Y-76380000D01*
G75*
G02*
X142985000Y-76117500I0J262500D01*
G01*
X142985000Y-75492500D01*
G75*
G02*
X143247500Y-75230000I262500J0D01*
G01*
G37*
G36*
G01*
X143247500Y-73480000D02*
X143772500Y-73480000D01*
G75*
G02*
X144035000Y-73742500I0J-262500D01*
G01*
X144035000Y-74367500D01*
G75*
G02*
X143772500Y-74630000I-262500J0D01*
G01*
X143247500Y-74630000D01*
G75*
G02*
X142985000Y-74367500I0J262500D01*
G01*
X142985000Y-73742500D01*
G75*
G02*
X143247500Y-73480000I262500J0D01*
G01*
G37*
G36*
G01*
X153335000Y-87892500D02*
X153335000Y-87367500D01*
G75*
G02*
X153597500Y-87105000I262500J0D01*
G01*
X154222500Y-87105000D01*
G75*
G02*
X154485000Y-87367500I0J-262500D01*
G01*
X154485000Y-87892500D01*
G75*
G02*
X154222500Y-88155000I-262500J0D01*
G01*
X153597500Y-88155000D01*
G75*
G02*
X153335000Y-87892500I0J262500D01*
G01*
G37*
G36*
G01*
X151585000Y-87892500D02*
X151585000Y-87367500D01*
G75*
G02*
X151847500Y-87105000I262500J0D01*
G01*
X152472500Y-87105000D01*
G75*
G02*
X152735000Y-87367500I0J-262500D01*
G01*
X152735000Y-87892500D01*
G75*
G02*
X152472500Y-88155000I-262500J0D01*
G01*
X151847500Y-88155000D01*
G75*
G02*
X151585000Y-87892500I0J262500D01*
G01*
G37*
G36*
G01*
X140391000Y-87892500D02*
X140391000Y-87367500D01*
G75*
G02*
X140653500Y-87105000I262500J0D01*
G01*
X141278500Y-87105000D01*
G75*
G02*
X141541000Y-87367500I0J-262500D01*
G01*
X141541000Y-87892500D01*
G75*
G02*
X141278500Y-88155000I-262500J0D01*
G01*
X140653500Y-88155000D01*
G75*
G02*
X140391000Y-87892500I0J262500D01*
G01*
G37*
G36*
G01*
X138641000Y-87892500D02*
X138641000Y-87367500D01*
G75*
G02*
X138903500Y-87105000I262500J0D01*
G01*
X139528500Y-87105000D01*
G75*
G02*
X139791000Y-87367500I0J-262500D01*
G01*
X139791000Y-87892500D01*
G75*
G02*
X139528500Y-88155000I-262500J0D01*
G01*
X138903500Y-88155000D01*
G75*
G02*
X138641000Y-87892500I0J262500D01*
G01*
G37*
G36*
G01*
X157217500Y-91740000D02*
X157742500Y-91740000D01*
G75*
G02*
X158005000Y-92002500I0J-262500D01*
G01*
X158005000Y-92627500D01*
G75*
G02*
X157742500Y-92890000I-262500J0D01*
G01*
X157217500Y-92890000D01*
G75*
G02*
X156955000Y-92627500I0J262500D01*
G01*
X156955000Y-92002500D01*
G75*
G02*
X157217500Y-91740000I262500J0D01*
G01*
G37*
G36*
G01*
X157217500Y-89990000D02*
X157742500Y-89990000D01*
G75*
G02*
X158005000Y-90252500I0J-262500D01*
G01*
X158005000Y-90877500D01*
G75*
G02*
X157742500Y-91140000I-262500J0D01*
G01*
X157217500Y-91140000D01*
G75*
G02*
X156955000Y-90877500I0J262500D01*
G01*
X156955000Y-90252500D01*
G75*
G02*
X157217500Y-89990000I262500J0D01*
G01*
G37*
G36*
G01*
X144273500Y-91740000D02*
X144798500Y-91740000D01*
G75*
G02*
X145061000Y-92002500I0J-262500D01*
G01*
X145061000Y-92627500D01*
G75*
G02*
X144798500Y-92890000I-262500J0D01*
G01*
X144273500Y-92890000D01*
G75*
G02*
X144011000Y-92627500I0J262500D01*
G01*
X144011000Y-92002500D01*
G75*
G02*
X144273500Y-91740000I262500J0D01*
G01*
G37*
G36*
G01*
X144273500Y-89990000D02*
X144798500Y-89990000D01*
G75*
G02*
X145061000Y-90252500I0J-262500D01*
G01*
X145061000Y-90877500D01*
G75*
G02*
X144798500Y-91140000I-262500J0D01*
G01*
X144273500Y-91140000D01*
G75*
G02*
X144011000Y-90877500I0J262500D01*
G01*
X144011000Y-90252500D01*
G75*
G02*
X144273500Y-89990000I262500J0D01*
G01*
G37*
G36*
G01*
X151825000Y-99322500D02*
X151825000Y-98797500D01*
G75*
G02*
X152087500Y-98535000I262500J0D01*
G01*
X152712500Y-98535000D01*
G75*
G02*
X152975000Y-98797500I0J-262500D01*
G01*
X152975000Y-99322500D01*
G75*
G02*
X152712500Y-99585000I-262500J0D01*
G01*
X152087500Y-99585000D01*
G75*
G02*
X151825000Y-99322500I0J262500D01*
G01*
G37*
G36*
G01*
X150075000Y-99322500D02*
X150075000Y-98797500D01*
G75*
G02*
X150337500Y-98535000I262500J0D01*
G01*
X150962500Y-98535000D01*
G75*
G02*
X151225000Y-98797500I0J-262500D01*
G01*
X151225000Y-99322500D01*
G75*
G02*
X150962500Y-99585000I-262500J0D01*
G01*
X150337500Y-99585000D01*
G75*
G02*
X150075000Y-99322500I0J262500D01*
G01*
G37*
G36*
G01*
X138730000Y-99322500D02*
X138730000Y-98797500D01*
G75*
G02*
X138992500Y-98535000I262500J0D01*
G01*
X139617500Y-98535000D01*
G75*
G02*
X139880000Y-98797500I0J-262500D01*
G01*
X139880000Y-99322500D01*
G75*
G02*
X139617500Y-99585000I-262500J0D01*
G01*
X138992500Y-99585000D01*
G75*
G02*
X138730000Y-99322500I0J262500D01*
G01*
G37*
G36*
G01*
X136980000Y-99322500D02*
X136980000Y-98797500D01*
G75*
G02*
X137242500Y-98535000I262500J0D01*
G01*
X137867500Y-98535000D01*
G75*
G02*
X138130000Y-98797500I0J-262500D01*
G01*
X138130000Y-99322500D01*
G75*
G02*
X137867500Y-99585000I-262500J0D01*
G01*
X137242500Y-99585000D01*
G75*
G02*
X136980000Y-99322500I0J262500D01*
G01*
G37*
G36*
G01*
X148962500Y-104045000D02*
X149487500Y-104045000D01*
G75*
G02*
X149750000Y-104307500I0J-262500D01*
G01*
X149750000Y-104932500D01*
G75*
G02*
X149487500Y-105195000I-262500J0D01*
G01*
X148962500Y-105195000D01*
G75*
G02*
X148700000Y-104932500I0J262500D01*
G01*
X148700000Y-104307500D01*
G75*
G02*
X148962500Y-104045000I262500J0D01*
G01*
G37*
G36*
G01*
X148962500Y-102295000D02*
X149487500Y-102295000D01*
G75*
G02*
X149750000Y-102557500I0J-262500D01*
G01*
X149750000Y-103182500D01*
G75*
G02*
X149487500Y-103445000I-262500J0D01*
G01*
X148962500Y-103445000D01*
G75*
G02*
X148700000Y-103182500I0J262500D01*
G01*
X148700000Y-102557500D01*
G75*
G02*
X148962500Y-102295000I262500J0D01*
G01*
G37*
G36*
G01*
X152137500Y-104045000D02*
X152662500Y-104045000D01*
G75*
G02*
X152925000Y-104307500I0J-262500D01*
G01*
X152925000Y-104932500D01*
G75*
G02*
X152662500Y-105195000I-262500J0D01*
G01*
X152137500Y-105195000D01*
G75*
G02*
X151875000Y-104932500I0J262500D01*
G01*
X151875000Y-104307500D01*
G75*
G02*
X152137500Y-104045000I262500J0D01*
G01*
G37*
G36*
G01*
X152137500Y-102295000D02*
X152662500Y-102295000D01*
G75*
G02*
X152925000Y-102557500I0J-262500D01*
G01*
X152925000Y-103182500D01*
G75*
G02*
X152662500Y-103445000I-262500J0D01*
G01*
X152137500Y-103445000D01*
G75*
G02*
X151875000Y-103182500I0J262500D01*
G01*
X151875000Y-102557500D01*
G75*
G02*
X152137500Y-102295000I262500J0D01*
G01*
G37*
G36*
G01*
X155312500Y-104045000D02*
X155837500Y-104045000D01*
G75*
G02*
X156100000Y-104307500I0J-262500D01*
G01*
X156100000Y-104932500D01*
G75*
G02*
X155837500Y-105195000I-262500J0D01*
G01*
X155312500Y-105195000D01*
G75*
G02*
X155050000Y-104932500I0J262500D01*
G01*
X155050000Y-104307500D01*
G75*
G02*
X155312500Y-104045000I262500J0D01*
G01*
G37*
G36*
G01*
X155312500Y-102295000D02*
X155837500Y-102295000D01*
G75*
G02*
X156100000Y-102557500I0J-262500D01*
G01*
X156100000Y-103182500D01*
G75*
G02*
X155837500Y-103445000I-262500J0D01*
G01*
X155312500Y-103445000D01*
G75*
G02*
X155050000Y-103182500I0J262500D01*
G01*
X155050000Y-102557500D01*
G75*
G02*
X155312500Y-102295000I262500J0D01*
G01*
G37*
G36*
G01*
X135627500Y-103805000D02*
X136152500Y-103805000D01*
G75*
G02*
X136415000Y-104067500I0J-262500D01*
G01*
X136415000Y-104692500D01*
G75*
G02*
X136152500Y-104955000I-262500J0D01*
G01*
X135627500Y-104955000D01*
G75*
G02*
X135365000Y-104692500I0J262500D01*
G01*
X135365000Y-104067500D01*
G75*
G02*
X135627500Y-103805000I262500J0D01*
G01*
G37*
G36*
G01*
X135627500Y-102055000D02*
X136152500Y-102055000D01*
G75*
G02*
X136415000Y-102317500I0J-262500D01*
G01*
X136415000Y-102942500D01*
G75*
G02*
X136152500Y-103205000I-262500J0D01*
G01*
X135627500Y-103205000D01*
G75*
G02*
X135365000Y-102942500I0J262500D01*
G01*
X135365000Y-102317500D01*
G75*
G02*
X135627500Y-102055000I262500J0D01*
G01*
G37*
G36*
G01*
X138802500Y-103805000D02*
X139327500Y-103805000D01*
G75*
G02*
X139590000Y-104067500I0J-262500D01*
G01*
X139590000Y-104692500D01*
G75*
G02*
X139327500Y-104955000I-262500J0D01*
G01*
X138802500Y-104955000D01*
G75*
G02*
X138540000Y-104692500I0J262500D01*
G01*
X138540000Y-104067500D01*
G75*
G02*
X138802500Y-103805000I262500J0D01*
G01*
G37*
G36*
G01*
X138802500Y-102055000D02*
X139327500Y-102055000D01*
G75*
G02*
X139590000Y-102317500I0J-262500D01*
G01*
X139590000Y-102942500D01*
G75*
G02*
X139327500Y-103205000I-262500J0D01*
G01*
X138802500Y-103205000D01*
G75*
G02*
X138540000Y-102942500I0J262500D01*
G01*
X138540000Y-102317500D01*
G75*
G02*
X138802500Y-102055000I262500J0D01*
G01*
G37*
G36*
G01*
X141977500Y-103805000D02*
X142502500Y-103805000D01*
G75*
G02*
X142765000Y-104067500I0J-262500D01*
G01*
X142765000Y-104692500D01*
G75*
G02*
X142502500Y-104955000I-262500J0D01*
G01*
X141977500Y-104955000D01*
G75*
G02*
X141715000Y-104692500I0J262500D01*
G01*
X141715000Y-104067500D01*
G75*
G02*
X141977500Y-103805000I262500J0D01*
G01*
G37*
G36*
G01*
X141977500Y-102055000D02*
X142502500Y-102055000D01*
G75*
G02*
X142765000Y-102317500I0J-262500D01*
G01*
X142765000Y-102942500D01*
G75*
G02*
X142502500Y-103205000I-262500J0D01*
G01*
X141977500Y-103205000D01*
G75*
G02*
X141715000Y-102942500I0J262500D01*
G01*
X141715000Y-102317500D01*
G75*
G02*
X141977500Y-102055000I262500J0D01*
G01*
G37*
D33*
X215900000Y-71755000D03*
X218440000Y-71755000D03*
D34*
X220980000Y-71755000D03*
D33*
X169545000Y-74930000D03*
X167005000Y-74930000D03*
D34*
X164465000Y-74930000D03*
D33*
X155575000Y-74930000D03*
X153035000Y-74930000D03*
D34*
X150495000Y-74930000D03*
D33*
X136525000Y-74930000D03*
X136525000Y-77470000D03*
D34*
X136525000Y-80010000D03*
G36*
G01*
X201557500Y-115905000D02*
X201032500Y-115905000D01*
G75*
G02*
X200770000Y-115642500I0J262500D01*
G01*
X200770000Y-115017500D01*
G75*
G02*
X201032500Y-114755000I262500J0D01*
G01*
X201557500Y-114755000D01*
G75*
G02*
X201820000Y-115017500I0J-262500D01*
G01*
X201820000Y-115642500D01*
G75*
G02*
X201557500Y-115905000I-262500J0D01*
G01*
G37*
G36*
G01*
X201557500Y-117655000D02*
X201032500Y-117655000D01*
G75*
G02*
X200770000Y-117392500I0J262500D01*
G01*
X200770000Y-116767500D01*
G75*
G02*
X201032500Y-116505000I262500J0D01*
G01*
X201557500Y-116505000D01*
G75*
G02*
X201820000Y-116767500I0J-262500D01*
G01*
X201820000Y-117392500D01*
G75*
G02*
X201557500Y-117655000I-262500J0D01*
G01*
G37*
G36*
G01*
X108250000Y-73287500D02*
X108250000Y-72762500D01*
G75*
G02*
X108512500Y-72500000I262500J0D01*
G01*
X109137500Y-72500000D01*
G75*
G02*
X109400000Y-72762500I0J-262500D01*
G01*
X109400000Y-73287500D01*
G75*
G02*
X109137500Y-73550000I-262500J0D01*
G01*
X108512500Y-73550000D01*
G75*
G02*
X108250000Y-73287500I0J262500D01*
G01*
G37*
G36*
G01*
X106500000Y-73287500D02*
X106500000Y-72762500D01*
G75*
G02*
X106762500Y-72500000I262500J0D01*
G01*
X107387500Y-72500000D01*
G75*
G02*
X107650000Y-72762500I0J-262500D01*
G01*
X107650000Y-73287500D01*
G75*
G02*
X107387500Y-73550000I-262500J0D01*
G01*
X106762500Y-73550000D01*
G75*
G02*
X106500000Y-73287500I0J262500D01*
G01*
G37*
G36*
G01*
X112095000Y-72762500D02*
X112095000Y-73287500D01*
G75*
G02*
X111832500Y-73550000I-262500J0D01*
G01*
X111207500Y-73550000D01*
G75*
G02*
X110945000Y-73287500I0J262500D01*
G01*
X110945000Y-72762500D01*
G75*
G02*
X111207500Y-72500000I262500J0D01*
G01*
X111832500Y-72500000D01*
G75*
G02*
X112095000Y-72762500I0J-262500D01*
G01*
G37*
G36*
G01*
X113845000Y-72762500D02*
X113845000Y-73287500D01*
G75*
G02*
X113582500Y-73550000I-262500J0D01*
G01*
X112957500Y-73550000D01*
G75*
G02*
X112695000Y-73287500I0J262500D01*
G01*
X112695000Y-72762500D01*
G75*
G02*
X112957500Y-72500000I262500J0D01*
G01*
X113582500Y-72500000D01*
G75*
G02*
X113845000Y-72762500I0J-262500D01*
G01*
G37*
G36*
G01*
X91702500Y-115905000D02*
X91177500Y-115905000D01*
G75*
G02*
X90915000Y-115642500I0J262500D01*
G01*
X90915000Y-115017500D01*
G75*
G02*
X91177500Y-114755000I262500J0D01*
G01*
X91702500Y-114755000D01*
G75*
G02*
X91965000Y-115017500I0J-262500D01*
G01*
X91965000Y-115642500D01*
G75*
G02*
X91702500Y-115905000I-262500J0D01*
G01*
G37*
G36*
G01*
X91702500Y-117655000D02*
X91177500Y-117655000D01*
G75*
G02*
X90915000Y-117392500I0J262500D01*
G01*
X90915000Y-116767500D01*
G75*
G02*
X91177500Y-116505000I262500J0D01*
G01*
X91702500Y-116505000D01*
G75*
G02*
X91965000Y-116767500I0J-262500D01*
G01*
X91965000Y-117392500D01*
G75*
G02*
X91702500Y-117655000I-262500J0D01*
G01*
G37*
G36*
G01*
X181310000Y-81652500D02*
X181310000Y-82177500D01*
G75*
G02*
X181047500Y-82440000I-262500J0D01*
G01*
X180422500Y-82440000D01*
G75*
G02*
X180160000Y-82177500I0J262500D01*
G01*
X180160000Y-81652500D01*
G75*
G02*
X180422500Y-81390000I262500J0D01*
G01*
X181047500Y-81390000D01*
G75*
G02*
X181310000Y-81652500I0J-262500D01*
G01*
G37*
G36*
G01*
X183060000Y-81652500D02*
X183060000Y-82177500D01*
G75*
G02*
X182797500Y-82440000I-262500J0D01*
G01*
X182172500Y-82440000D01*
G75*
G02*
X181910000Y-82177500I0J262500D01*
G01*
X181910000Y-81652500D01*
G75*
G02*
X182172500Y-81390000I262500J0D01*
G01*
X182797500Y-81390000D01*
G75*
G02*
X183060000Y-81652500I0J-262500D01*
G01*
G37*
G36*
G01*
X177427500Y-80345000D02*
X176902500Y-80345000D01*
G75*
G02*
X176640000Y-80082500I0J262500D01*
G01*
X176640000Y-79457500D01*
G75*
G02*
X176902500Y-79195000I262500J0D01*
G01*
X177427500Y-79195000D01*
G75*
G02*
X177690000Y-79457500I0J-262500D01*
G01*
X177690000Y-80082500D01*
G75*
G02*
X177427500Y-80345000I-262500J0D01*
G01*
G37*
G36*
G01*
X177427500Y-82095000D02*
X176902500Y-82095000D01*
G75*
G02*
X176640000Y-81832500I0J262500D01*
G01*
X176640000Y-81207500D01*
G75*
G02*
X176902500Y-80945000I262500J0D01*
G01*
X177427500Y-80945000D01*
G75*
G02*
X177690000Y-81207500I0J-262500D01*
G01*
X177690000Y-81832500D01*
G75*
G02*
X177427500Y-82095000I-262500J0D01*
G01*
G37*
G36*
G01*
X185120000Y-72762500D02*
X185120000Y-73287500D01*
G75*
G02*
X184857500Y-73550000I-262500J0D01*
G01*
X184232500Y-73550000D01*
G75*
G02*
X183970000Y-73287500I0J262500D01*
G01*
X183970000Y-72762500D01*
G75*
G02*
X184232500Y-72500000I262500J0D01*
G01*
X184857500Y-72500000D01*
G75*
G02*
X185120000Y-72762500I0J-262500D01*
G01*
G37*
G36*
G01*
X186870000Y-72762500D02*
X186870000Y-73287500D01*
G75*
G02*
X186607500Y-73550000I-262500J0D01*
G01*
X185982500Y-73550000D01*
G75*
G02*
X185720000Y-73287500I0J262500D01*
G01*
X185720000Y-72762500D01*
G75*
G02*
X185982500Y-72500000I262500J0D01*
G01*
X186607500Y-72500000D01*
G75*
G02*
X186870000Y-72762500I0J-262500D01*
G01*
G37*
G36*
G01*
X210520000Y-74032500D02*
X210520000Y-74557500D01*
G75*
G02*
X210257500Y-74820000I-262500J0D01*
G01*
X209632500Y-74820000D01*
G75*
G02*
X209370000Y-74557500I0J262500D01*
G01*
X209370000Y-74032500D01*
G75*
G02*
X209632500Y-73770000I262500J0D01*
G01*
X210257500Y-73770000D01*
G75*
G02*
X210520000Y-74032500I0J-262500D01*
G01*
G37*
G36*
G01*
X212270000Y-74032500D02*
X212270000Y-74557500D01*
G75*
G02*
X212007500Y-74820000I-262500J0D01*
G01*
X211382500Y-74820000D01*
G75*
G02*
X211120000Y-74557500I0J262500D01*
G01*
X211120000Y-74032500D01*
G75*
G02*
X211382500Y-73770000I262500J0D01*
G01*
X212007500Y-73770000D01*
G75*
G02*
X212270000Y-74032500I0J-262500D01*
G01*
G37*
G36*
G01*
X210520000Y-84827500D02*
X210520000Y-85352500D01*
G75*
G02*
X210257500Y-85615000I-262500J0D01*
G01*
X209632500Y-85615000D01*
G75*
G02*
X209370000Y-85352500I0J262500D01*
G01*
X209370000Y-84827500D01*
G75*
G02*
X209632500Y-84565000I262500J0D01*
G01*
X210257500Y-84565000D01*
G75*
G02*
X210520000Y-84827500I0J-262500D01*
G01*
G37*
G36*
G01*
X212270000Y-84827500D02*
X212270000Y-85352500D01*
G75*
G02*
X212007500Y-85615000I-262500J0D01*
G01*
X211382500Y-85615000D01*
G75*
G02*
X211120000Y-85352500I0J262500D01*
G01*
X211120000Y-84827500D01*
G75*
G02*
X211382500Y-84565000I262500J0D01*
G01*
X212007500Y-84565000D01*
G75*
G02*
X212270000Y-84827500I0J-262500D01*
G01*
G37*
G36*
G01*
X204842500Y-97455000D02*
X205367500Y-97455000D01*
G75*
G02*
X205630000Y-97717500I0J-262500D01*
G01*
X205630000Y-98342500D01*
G75*
G02*
X205367500Y-98605000I-262500J0D01*
G01*
X204842500Y-98605000D01*
G75*
G02*
X204580000Y-98342500I0J262500D01*
G01*
X204580000Y-97717500D01*
G75*
G02*
X204842500Y-97455000I262500J0D01*
G01*
G37*
G36*
G01*
X204842500Y-95705000D02*
X205367500Y-95705000D01*
G75*
G02*
X205630000Y-95967500I0J-262500D01*
G01*
X205630000Y-96592500D01*
G75*
G02*
X205367500Y-96855000I-262500J0D01*
G01*
X204842500Y-96855000D01*
G75*
G02*
X204580000Y-96592500I0J262500D01*
G01*
X204580000Y-95967500D01*
G75*
G02*
X204842500Y-95705000I262500J0D01*
G01*
G37*
G36*
G01*
X200960000Y-101227500D02*
X200960000Y-100702500D01*
G75*
G02*
X201222500Y-100440000I262500J0D01*
G01*
X201847500Y-100440000D01*
G75*
G02*
X202110000Y-100702500I0J-262500D01*
G01*
X202110000Y-101227500D01*
G75*
G02*
X201847500Y-101490000I-262500J0D01*
G01*
X201222500Y-101490000D01*
G75*
G02*
X200960000Y-101227500I0J262500D01*
G01*
G37*
G36*
G01*
X199210000Y-101227500D02*
X199210000Y-100702500D01*
G75*
G02*
X199472500Y-100440000I262500J0D01*
G01*
X200097500Y-100440000D01*
G75*
G02*
X200360000Y-100702500I0J-262500D01*
G01*
X200360000Y-101227500D01*
G75*
G02*
X200097500Y-101490000I-262500J0D01*
G01*
X199472500Y-101490000D01*
G75*
G02*
X199210000Y-101227500I0J262500D01*
G01*
G37*
G36*
G01*
X200960000Y-89797500D02*
X200960000Y-89272500D01*
G75*
G02*
X201222500Y-89010000I262500J0D01*
G01*
X201847500Y-89010000D01*
G75*
G02*
X202110000Y-89272500I0J-262500D01*
G01*
X202110000Y-89797500D01*
G75*
G02*
X201847500Y-90060000I-262500J0D01*
G01*
X201222500Y-90060000D01*
G75*
G02*
X200960000Y-89797500I0J262500D01*
G01*
G37*
G36*
G01*
X199210000Y-89797500D02*
X199210000Y-89272500D01*
G75*
G02*
X199472500Y-89010000I262500J0D01*
G01*
X200097500Y-89010000D01*
G75*
G02*
X200360000Y-89272500I0J-262500D01*
G01*
X200360000Y-89797500D01*
G75*
G02*
X200097500Y-90060000I-262500J0D01*
G01*
X199472500Y-90060000D01*
G75*
G02*
X199210000Y-89797500I0J262500D01*
G01*
G37*
G36*
G01*
X174362500Y-97455000D02*
X174887500Y-97455000D01*
G75*
G02*
X175150000Y-97717500I0J-262500D01*
G01*
X175150000Y-98342500D01*
G75*
G02*
X174887500Y-98605000I-262500J0D01*
G01*
X174362500Y-98605000D01*
G75*
G02*
X174100000Y-98342500I0J262500D01*
G01*
X174100000Y-97717500D01*
G75*
G02*
X174362500Y-97455000I262500J0D01*
G01*
G37*
G36*
G01*
X174362500Y-95705000D02*
X174887500Y-95705000D01*
G75*
G02*
X175150000Y-95967500I0J-262500D01*
G01*
X175150000Y-96592500D01*
G75*
G02*
X174887500Y-96855000I-262500J0D01*
G01*
X174362500Y-96855000D01*
G75*
G02*
X174100000Y-96592500I0J262500D01*
G01*
X174100000Y-95967500D01*
G75*
G02*
X174362500Y-95705000I262500J0D01*
G01*
G37*
G36*
G01*
X173055000Y-100702500D02*
X173055000Y-101227500D01*
G75*
G02*
X172792500Y-101490000I-262500J0D01*
G01*
X172167500Y-101490000D01*
G75*
G02*
X171905000Y-101227500I0J262500D01*
G01*
X171905000Y-100702500D01*
G75*
G02*
X172167500Y-100440000I262500J0D01*
G01*
X172792500Y-100440000D01*
G75*
G02*
X173055000Y-100702500I0J-262500D01*
G01*
G37*
G36*
G01*
X174805000Y-100702500D02*
X174805000Y-101227500D01*
G75*
G02*
X174542500Y-101490000I-262500J0D01*
G01*
X173917500Y-101490000D01*
G75*
G02*
X173655000Y-101227500I0J262500D01*
G01*
X173655000Y-100702500D01*
G75*
G02*
X173917500Y-100440000I262500J0D01*
G01*
X174542500Y-100440000D01*
G75*
G02*
X174805000Y-100702500I0J-262500D01*
G01*
G37*
G36*
G01*
X165472500Y-95155000D02*
X165997500Y-95155000D01*
G75*
G02*
X166260000Y-95417500I0J-262500D01*
G01*
X166260000Y-96042500D01*
G75*
G02*
X165997500Y-96305000I-262500J0D01*
G01*
X165472500Y-96305000D01*
G75*
G02*
X165210000Y-96042500I0J262500D01*
G01*
X165210000Y-95417500D01*
G75*
G02*
X165472500Y-95155000I262500J0D01*
G01*
G37*
G36*
G01*
X165472500Y-93405000D02*
X165997500Y-93405000D01*
G75*
G02*
X166260000Y-93667500I0J-262500D01*
G01*
X166260000Y-94292500D01*
G75*
G02*
X165997500Y-94555000I-262500J0D01*
G01*
X165472500Y-94555000D01*
G75*
G02*
X165210000Y-94292500I0J262500D01*
G01*
X165210000Y-93667500D01*
G75*
G02*
X165472500Y-93405000I262500J0D01*
G01*
G37*
G36*
G01*
X190237500Y-97455000D02*
X190762500Y-97455000D01*
G75*
G02*
X191025000Y-97717500I0J-262500D01*
G01*
X191025000Y-98342500D01*
G75*
G02*
X190762500Y-98605000I-262500J0D01*
G01*
X190237500Y-98605000D01*
G75*
G02*
X189975000Y-98342500I0J262500D01*
G01*
X189975000Y-97717500D01*
G75*
G02*
X190237500Y-97455000I262500J0D01*
G01*
G37*
G36*
G01*
X190237500Y-95705000D02*
X190762500Y-95705000D01*
G75*
G02*
X191025000Y-95967500I0J-262500D01*
G01*
X191025000Y-96592500D01*
G75*
G02*
X190762500Y-96855000I-262500J0D01*
G01*
X190237500Y-96855000D01*
G75*
G02*
X189975000Y-96592500I0J262500D01*
G01*
X189975000Y-95967500D01*
G75*
G02*
X190237500Y-95705000I262500J0D01*
G01*
G37*
G36*
G01*
X188930000Y-100702500D02*
X188930000Y-101227500D01*
G75*
G02*
X188667500Y-101490000I-262500J0D01*
G01*
X188042500Y-101490000D01*
G75*
G02*
X187780000Y-101227500I0J262500D01*
G01*
X187780000Y-100702500D01*
G75*
G02*
X188042500Y-100440000I262500J0D01*
G01*
X188667500Y-100440000D01*
G75*
G02*
X188930000Y-100702500I0J-262500D01*
G01*
G37*
G36*
G01*
X190680000Y-100702500D02*
X190680000Y-101227500D01*
G75*
G02*
X190417500Y-101490000I-262500J0D01*
G01*
X189792500Y-101490000D01*
G75*
G02*
X189530000Y-101227500I0J262500D01*
G01*
X189530000Y-100702500D01*
G75*
G02*
X189792500Y-100440000I262500J0D01*
G01*
X190417500Y-100440000D01*
G75*
G02*
X190680000Y-100702500I0J-262500D01*
G01*
G37*
G36*
G01*
X181347500Y-95155000D02*
X181872500Y-95155000D01*
G75*
G02*
X182135000Y-95417500I0J-262500D01*
G01*
X182135000Y-96042500D01*
G75*
G02*
X181872500Y-96305000I-262500J0D01*
G01*
X181347500Y-96305000D01*
G75*
G02*
X181085000Y-96042500I0J262500D01*
G01*
X181085000Y-95417500D01*
G75*
G02*
X181347500Y-95155000I262500J0D01*
G01*
G37*
G36*
G01*
X181347500Y-93405000D02*
X181872500Y-93405000D01*
G75*
G02*
X182135000Y-93667500I0J-262500D01*
G01*
X182135000Y-94292500D01*
G75*
G02*
X181872500Y-94555000I-262500J0D01*
G01*
X181347500Y-94555000D01*
G75*
G02*
X181085000Y-94292500I0J262500D01*
G01*
X181085000Y-93667500D01*
G75*
G02*
X181347500Y-93405000I262500J0D01*
G01*
G37*
G36*
G01*
X86060000Y-100067500D02*
X86060000Y-100592500D01*
G75*
G02*
X85797500Y-100855000I-262500J0D01*
G01*
X85172500Y-100855000D01*
G75*
G02*
X84910000Y-100592500I0J262500D01*
G01*
X84910000Y-100067500D01*
G75*
G02*
X85172500Y-99805000I262500J0D01*
G01*
X85797500Y-99805000D01*
G75*
G02*
X86060000Y-100067500I0J-262500D01*
G01*
G37*
G36*
G01*
X87810000Y-100067500D02*
X87810000Y-100592500D01*
G75*
G02*
X87547500Y-100855000I-262500J0D01*
G01*
X86922500Y-100855000D01*
G75*
G02*
X86660000Y-100592500I0J262500D01*
G01*
X86660000Y-100067500D01*
G75*
G02*
X86922500Y-99805000I262500J0D01*
G01*
X87547500Y-99805000D01*
G75*
G02*
X87810000Y-100067500I0J-262500D01*
G01*
G37*
G36*
G01*
X103170000Y-100592500D02*
X103170000Y-100067500D01*
G75*
G02*
X103432500Y-99805000I262500J0D01*
G01*
X104057500Y-99805000D01*
G75*
G02*
X104320000Y-100067500I0J-262500D01*
G01*
X104320000Y-100592500D01*
G75*
G02*
X104057500Y-100855000I-262500J0D01*
G01*
X103432500Y-100855000D01*
G75*
G02*
X103170000Y-100592500I0J262500D01*
G01*
G37*
G36*
G01*
X101420000Y-100592500D02*
X101420000Y-100067500D01*
G75*
G02*
X101682500Y-99805000I262500J0D01*
G01*
X102307500Y-99805000D01*
G75*
G02*
X102570000Y-100067500I0J-262500D01*
G01*
X102570000Y-100592500D01*
G75*
G02*
X102307500Y-100855000I-262500J0D01*
G01*
X101682500Y-100855000D01*
G75*
G02*
X101420000Y-100592500I0J262500D01*
G01*
G37*
G36*
G01*
X220717500Y-98090000D02*
X221242500Y-98090000D01*
G75*
G02*
X221505000Y-98352500I0J-262500D01*
G01*
X221505000Y-98977500D01*
G75*
G02*
X221242500Y-99240000I-262500J0D01*
G01*
X220717500Y-99240000D01*
G75*
G02*
X220455000Y-98977500I0J262500D01*
G01*
X220455000Y-98352500D01*
G75*
G02*
X220717500Y-98090000I262500J0D01*
G01*
G37*
G36*
G01*
X220717500Y-96340000D02*
X221242500Y-96340000D01*
G75*
G02*
X221505000Y-96602500I0J-262500D01*
G01*
X221505000Y-97227500D01*
G75*
G02*
X221242500Y-97490000I-262500J0D01*
G01*
X220717500Y-97490000D01*
G75*
G02*
X220455000Y-97227500I0J262500D01*
G01*
X220455000Y-96602500D01*
G75*
G02*
X220717500Y-96340000I262500J0D01*
G01*
G37*
G36*
G01*
X209287500Y-99755000D02*
X209812500Y-99755000D01*
G75*
G02*
X210075000Y-100017500I0J-262500D01*
G01*
X210075000Y-100642500D01*
G75*
G02*
X209812500Y-100905000I-262500J0D01*
G01*
X209287500Y-100905000D01*
G75*
G02*
X209025000Y-100642500I0J262500D01*
G01*
X209025000Y-100017500D01*
G75*
G02*
X209287500Y-99755000I262500J0D01*
G01*
G37*
G36*
G01*
X209287500Y-98005000D02*
X209812500Y-98005000D01*
G75*
G02*
X210075000Y-98267500I0J-262500D01*
G01*
X210075000Y-98892500D01*
G75*
G02*
X209812500Y-99155000I-262500J0D01*
G01*
X209287500Y-99155000D01*
G75*
G02*
X209025000Y-98892500I0J262500D01*
G01*
X209025000Y-98267500D01*
G75*
G02*
X209287500Y-98005000I262500J0D01*
G01*
G37*
G36*
G01*
X214965000Y-93717500D02*
X214965000Y-94242500D01*
G75*
G02*
X214702500Y-94505000I-262500J0D01*
G01*
X214077500Y-94505000D01*
G75*
G02*
X213815000Y-94242500I0J262500D01*
G01*
X213815000Y-93717500D01*
G75*
G02*
X214077500Y-93455000I262500J0D01*
G01*
X214702500Y-93455000D01*
G75*
G02*
X214965000Y-93717500I0J-262500D01*
G01*
G37*
G36*
G01*
X216715000Y-93717500D02*
X216715000Y-94242500D01*
G75*
G02*
X216452500Y-94505000I-262500J0D01*
G01*
X215827500Y-94505000D01*
G75*
G02*
X215565000Y-94242500I0J262500D01*
G01*
X215565000Y-93717500D01*
G75*
G02*
X215827500Y-93455000I262500J0D01*
G01*
X216452500Y-93455000D01*
G75*
G02*
X216715000Y-93717500I0J-262500D01*
G01*
G37*
G36*
G01*
X157217500Y-95735000D02*
X157742500Y-95735000D01*
G75*
G02*
X158005000Y-95997500I0J-262500D01*
G01*
X158005000Y-96622500D01*
G75*
G02*
X157742500Y-96885000I-262500J0D01*
G01*
X157217500Y-96885000D01*
G75*
G02*
X156955000Y-96622500I0J262500D01*
G01*
X156955000Y-95997500D01*
G75*
G02*
X157217500Y-95735000I262500J0D01*
G01*
G37*
G36*
G01*
X157217500Y-93985000D02*
X157742500Y-93985000D01*
G75*
G02*
X158005000Y-94247500I0J-262500D01*
G01*
X158005000Y-94872500D01*
G75*
G02*
X157742500Y-95135000I-262500J0D01*
G01*
X157217500Y-95135000D01*
G75*
G02*
X156955000Y-94872500I0J262500D01*
G01*
X156955000Y-94247500D01*
G75*
G02*
X157217500Y-93985000I262500J0D01*
G01*
G37*
G36*
G01*
X155515000Y-98797500D02*
X155515000Y-99322500D01*
G75*
G02*
X155252500Y-99585000I-262500J0D01*
G01*
X154627500Y-99585000D01*
G75*
G02*
X154365000Y-99322500I0J262500D01*
G01*
X154365000Y-98797500D01*
G75*
G02*
X154627500Y-98535000I262500J0D01*
G01*
X155252500Y-98535000D01*
G75*
G02*
X155515000Y-98797500I0J-262500D01*
G01*
G37*
G36*
G01*
X157265000Y-98797500D02*
X157265000Y-99322500D01*
G75*
G02*
X157002500Y-99585000I-262500J0D01*
G01*
X156377500Y-99585000D01*
G75*
G02*
X156115000Y-99322500I0J262500D01*
G01*
X156115000Y-98797500D01*
G75*
G02*
X156377500Y-98535000I262500J0D01*
G01*
X157002500Y-98535000D01*
G75*
G02*
X157265000Y-98797500I0J-262500D01*
G01*
G37*
G36*
G01*
X148327500Y-91980000D02*
X148852500Y-91980000D01*
G75*
G02*
X149115000Y-92242500I0J-262500D01*
G01*
X149115000Y-92867500D01*
G75*
G02*
X148852500Y-93130000I-262500J0D01*
G01*
X148327500Y-93130000D01*
G75*
G02*
X148065000Y-92867500I0J262500D01*
G01*
X148065000Y-92242500D01*
G75*
G02*
X148327500Y-91980000I262500J0D01*
G01*
G37*
G36*
G01*
X148327500Y-90230000D02*
X148852500Y-90230000D01*
G75*
G02*
X149115000Y-90492500I0J-262500D01*
G01*
X149115000Y-91117500D01*
G75*
G02*
X148852500Y-91380000I-262500J0D01*
G01*
X148327500Y-91380000D01*
G75*
G02*
X148065000Y-91117500I0J262500D01*
G01*
X148065000Y-90492500D01*
G75*
G02*
X148327500Y-90230000I262500J0D01*
G01*
G37*
G36*
G01*
X144273500Y-95735000D02*
X144798500Y-95735000D01*
G75*
G02*
X145061000Y-95997500I0J-262500D01*
G01*
X145061000Y-96622500D01*
G75*
G02*
X144798500Y-96885000I-262500J0D01*
G01*
X144273500Y-96885000D01*
G75*
G02*
X144011000Y-96622500I0J262500D01*
G01*
X144011000Y-95997500D01*
G75*
G02*
X144273500Y-95735000I262500J0D01*
G01*
G37*
G36*
G01*
X144273500Y-93985000D02*
X144798500Y-93985000D01*
G75*
G02*
X145061000Y-94247500I0J-262500D01*
G01*
X145061000Y-94872500D01*
G75*
G02*
X144798500Y-95135000I-262500J0D01*
G01*
X144273500Y-95135000D01*
G75*
G02*
X144011000Y-94872500I0J262500D01*
G01*
X144011000Y-94247500D01*
G75*
G02*
X144273500Y-93985000I262500J0D01*
G01*
G37*
G36*
G01*
X142575000Y-98797500D02*
X142575000Y-99322500D01*
G75*
G02*
X142312500Y-99585000I-262500J0D01*
G01*
X141687500Y-99585000D01*
G75*
G02*
X141425000Y-99322500I0J262500D01*
G01*
X141425000Y-98797500D01*
G75*
G02*
X141687500Y-98535000I262500J0D01*
G01*
X142312500Y-98535000D01*
G75*
G02*
X142575000Y-98797500I0J-262500D01*
G01*
G37*
G36*
G01*
X144325000Y-98797500D02*
X144325000Y-99322500D01*
G75*
G02*
X144062500Y-99585000I-262500J0D01*
G01*
X143437500Y-99585000D01*
G75*
G02*
X143175000Y-99322500I0J262500D01*
G01*
X143175000Y-98797500D01*
G75*
G02*
X143437500Y-98535000I262500J0D01*
G01*
X144062500Y-98535000D01*
G75*
G02*
X144325000Y-98797500I0J-262500D01*
G01*
G37*
G36*
G01*
X135627500Y-91980000D02*
X136152500Y-91980000D01*
G75*
G02*
X136415000Y-92242500I0J-262500D01*
G01*
X136415000Y-92867500D01*
G75*
G02*
X136152500Y-93130000I-262500J0D01*
G01*
X135627500Y-93130000D01*
G75*
G02*
X135365000Y-92867500I0J262500D01*
G01*
X135365000Y-92242500D01*
G75*
G02*
X135627500Y-91980000I262500J0D01*
G01*
G37*
G36*
G01*
X135627500Y-90230000D02*
X136152500Y-90230000D01*
G75*
G02*
X136415000Y-90492500I0J-262500D01*
G01*
X136415000Y-91117500D01*
G75*
G02*
X136152500Y-91380000I-262500J0D01*
G01*
X135627500Y-91380000D01*
G75*
G02*
X135365000Y-91117500I0J262500D01*
G01*
X135365000Y-90492500D01*
G75*
G02*
X135627500Y-90230000I262500J0D01*
G01*
G37*
M02*
