G04 #@! TF.GenerationSoftware,KiCad,Pcbnew,(5.1.6)-1*
G04 #@! TF.CreationDate,2020-07-24T05:51:25+09:00*
G04 #@! TF.ProjectId,Mixer,4d697865-722e-46b6-9963-61645f706362,rev?*
G04 #@! TF.SameCoordinates,Original*
G04 #@! TF.FileFunction,Soldermask,Bot*
G04 #@! TF.FilePolarity,Negative*
%FSLAX46Y46*%
G04 Gerber Fmt 4.6, Leading zero omitted, Abs format (unit mm)*
G04 Created by KiCad (PCBNEW (5.1.6)-1) date 2020-07-24 05:51:25*
%MOMM*%
%LPD*%
G01*
G04 APERTURE LIST*
G04 #@! TA.AperFunction,Profile*
%ADD10C,0.050000*%
G04 #@! TD*
%ADD11C,1.700000*%
%ADD12R,1.700000X1.700000*%
%ADD13O,1.000000X1.700000*%
%ADD14C,2.100000*%
%ADD15C,1.624000*%
%ADD16C,2.106600*%
%ADD17C,1.420800*%
%ADD18C,5.700000*%
%ADD19R,3.600120X3.600120*%
%ADD20R,3.800000X3.600120*%
%ADD21O,1.596060X1.596060*%
%ADD22O,2.005000X2.100000*%
%ADD23R,2.005000X2.100000*%
%ADD24O,1.800000X1.800000*%
%ADD25R,1.800000X1.800000*%
G04 APERTURE END LIST*
D10*
X116500000Y-70000000D02*
X116500000Y-60000000D01*
X132800000Y-70000000D02*
X116500000Y-70000000D01*
X132800000Y-60000000D02*
X132800000Y-70000000D01*
X132800000Y-60000000D02*
X225000000Y-60000000D01*
X225000000Y-119000000D02*
X225000000Y-60000000D01*
X75000000Y-119000000D02*
X225000000Y-119000000D01*
X75000000Y-60000000D02*
X75000000Y-119000000D01*
X116500000Y-60000000D02*
X75000000Y-60000000D01*
D11*
X220345000Y-104045000D03*
D12*
X220345000Y-106045000D03*
D11*
X208915000Y-88932000D03*
D12*
X208915000Y-90932000D03*
D11*
X161925000Y-103410000D03*
D12*
X161925000Y-105410000D03*
D11*
X148590000Y-82582000D03*
D12*
X148590000Y-84582000D03*
D13*
X102741000Y-62865000D03*
X96141000Y-62865000D03*
G36*
G01*
X99141000Y-62602500D02*
X99141000Y-63127500D01*
G75*
G02*
X98878500Y-63390000I-262500J0D01*
G01*
X98253500Y-63390000D01*
G75*
G02*
X97991000Y-63127500I0J262500D01*
G01*
X97991000Y-62602500D01*
G75*
G02*
X98253500Y-62340000I262500J0D01*
G01*
X98878500Y-62340000D01*
G75*
G02*
X99141000Y-62602500I0J-262500D01*
G01*
G37*
G36*
G01*
X100891000Y-62602500D02*
X100891000Y-63127500D01*
G75*
G02*
X100628500Y-63390000I-262500J0D01*
G01*
X100003500Y-63390000D01*
G75*
G02*
X99741000Y-63127500I0J262500D01*
G01*
X99741000Y-62602500D01*
G75*
G02*
X100003500Y-62340000I262500J0D01*
G01*
X100628500Y-62340000D01*
G75*
G02*
X100891000Y-62602500I0J-262500D01*
G01*
G37*
D14*
X118000000Y-111500000D03*
X115500000Y-111500000D03*
X113000000Y-111500000D03*
X118000000Y-114000000D03*
X115500000Y-114000000D03*
X113000000Y-114000000D03*
D15*
X139400000Y-69400000D03*
X139400000Y-62400000D03*
D11*
X163195000Y-86900000D03*
D12*
X163195000Y-88900000D03*
D11*
X180340000Y-86900000D03*
D12*
X180340000Y-88900000D03*
D11*
X217265000Y-78105000D03*
D12*
X215265000Y-78105000D03*
D11*
X217265000Y-85090000D03*
D12*
X215265000Y-85090000D03*
D11*
X121380000Y-94615000D03*
D12*
X119380000Y-94615000D03*
D11*
X114395000Y-94615000D03*
D12*
X112395000Y-94615000D03*
D11*
X110395000Y-83820000D03*
D12*
X112395000Y-83820000D03*
D11*
X110395000Y-77470000D03*
D12*
X112395000Y-77470000D03*
D11*
X128365000Y-94615000D03*
D12*
X126365000Y-94615000D03*
D11*
X85630000Y-111125000D03*
D12*
X87630000Y-111125000D03*
D11*
X105505000Y-111125000D03*
D12*
X103505000Y-111125000D03*
D11*
X80010000Y-94075000D03*
D12*
X80010000Y-92075000D03*
D11*
X108458000Y-90900000D03*
D12*
X108458000Y-88900000D03*
D16*
X188906599Y-64244600D03*
X197106601Y-64244600D03*
D17*
X191000000Y-63000000D03*
X193006600Y-63000000D03*
X195013200Y-63000000D03*
X191000000Y-65489200D03*
X193006600Y-65489200D03*
X195013200Y-65489200D03*
D16*
X175906599Y-64244600D03*
X184106601Y-64244600D03*
D17*
X178000000Y-63000000D03*
X180006600Y-63000000D03*
X182013200Y-63000000D03*
X178000000Y-65489200D03*
X180006600Y-65489200D03*
X182013200Y-65489200D03*
G36*
G01*
X110790000Y-65667500D02*
X110790000Y-65142500D01*
G75*
G02*
X111052500Y-64880000I262500J0D01*
G01*
X111677500Y-64880000D01*
G75*
G02*
X111940000Y-65142500I0J-262500D01*
G01*
X111940000Y-65667500D01*
G75*
G02*
X111677500Y-65930000I-262500J0D01*
G01*
X111052500Y-65930000D01*
G75*
G02*
X110790000Y-65667500I0J262500D01*
G01*
G37*
G36*
G01*
X109040000Y-65667500D02*
X109040000Y-65142500D01*
G75*
G02*
X109302500Y-64880000I262500J0D01*
G01*
X109927500Y-64880000D01*
G75*
G02*
X110190000Y-65142500I0J-262500D01*
G01*
X110190000Y-65667500D01*
G75*
G02*
X109927500Y-65930000I-262500J0D01*
G01*
X109302500Y-65930000D01*
G75*
G02*
X109040000Y-65667500I0J262500D01*
G01*
G37*
D11*
X197010000Y-76835000D03*
X207010000Y-76835000D03*
X197010000Y-82550000D03*
X207010000Y-82550000D03*
X103465000Y-72390000D03*
D12*
X100965000Y-72390000D03*
D11*
X80010000Y-78780000D03*
D12*
X80010000Y-81280000D03*
D14*
X172000000Y-111500000D03*
X169500000Y-111500000D03*
X167000000Y-111500000D03*
X172000000Y-114000000D03*
X169500000Y-114000000D03*
X167000000Y-114000000D03*
D18*
X220000000Y-65000000D03*
X80000000Y-65000000D03*
X80000000Y-114000000D03*
X220000000Y-114000000D03*
D19*
X84501000Y-70850000D03*
X89200000Y-67720000D03*
D20*
X89200000Y-73750000D03*
D14*
X154000000Y-111500000D03*
X151500000Y-111500000D03*
X149000000Y-111500000D03*
X154000000Y-114000000D03*
X151500000Y-114000000D03*
X149000000Y-114000000D03*
X136000000Y-111500000D03*
X133500000Y-111500000D03*
X131000000Y-111500000D03*
X136000000Y-114000000D03*
X133500000Y-114000000D03*
X131000000Y-114000000D03*
X190000000Y-111500000D03*
X187500000Y-111500000D03*
X185000000Y-111500000D03*
X190000000Y-114000000D03*
X187500000Y-114000000D03*
X185000000Y-114000000D03*
D21*
X112800000Y-61280000D03*
X107720000Y-61280000D03*
X107720000Y-68900000D03*
X112800000Y-68900000D03*
D15*
X86995000Y-96520000D03*
X86995000Y-93980000D03*
X86995000Y-91440000D03*
X86995000Y-88900000D03*
X86995000Y-83820000D03*
X86995000Y-81280000D03*
X86995000Y-78740000D03*
X98425000Y-96647000D03*
X98425000Y-94107000D03*
X98425000Y-91567000D03*
X98425000Y-89027000D03*
X98425000Y-83947000D03*
X98425000Y-81407000D03*
X98425000Y-78867000D03*
D14*
X95500000Y-104740000D03*
X95500000Y-107280000D03*
X95500000Y-109820000D03*
X95500000Y-114900000D03*
D15*
X206000000Y-69404000D03*
X206000000Y-62404000D03*
X167000000Y-69404000D03*
X167000000Y-62404000D03*
X153200000Y-69400000D03*
X153200000Y-62400000D03*
X208000000Y-109600000D03*
X208000000Y-116600000D03*
D22*
X83820000Y-103505000D03*
X86360000Y-103505000D03*
D23*
X88900000Y-103505000D03*
D22*
X101600000Y-103505000D03*
X104140000Y-103505000D03*
D23*
X106680000Y-103505000D03*
G36*
G01*
X97730000Y-68317500D02*
X97730000Y-68842500D01*
G75*
G02*
X97467500Y-69105000I-262500J0D01*
G01*
X96842500Y-69105000D01*
G75*
G02*
X96580000Y-68842500I0J262500D01*
G01*
X96580000Y-68317500D01*
G75*
G02*
X96842500Y-68055000I262500J0D01*
G01*
X97467500Y-68055000D01*
G75*
G02*
X97730000Y-68317500I0J-262500D01*
G01*
G37*
G36*
G01*
X99480000Y-68317500D02*
X99480000Y-68842500D01*
G75*
G02*
X99217500Y-69105000I-262500J0D01*
G01*
X98592500Y-69105000D01*
G75*
G02*
X98330000Y-68842500I0J262500D01*
G01*
X98330000Y-68317500D01*
G75*
G02*
X98592500Y-68055000I262500J0D01*
G01*
X99217500Y-68055000D01*
G75*
G02*
X99480000Y-68317500I0J-262500D01*
G01*
G37*
D24*
X215900000Y-71755000D03*
X218440000Y-71755000D03*
D25*
X220980000Y-71755000D03*
D24*
X169545000Y-74930000D03*
X167005000Y-74930000D03*
D25*
X164465000Y-74930000D03*
D24*
X155575000Y-74930000D03*
X153035000Y-74930000D03*
D25*
X150495000Y-74930000D03*
D24*
X136525000Y-74930000D03*
X136525000Y-77470000D03*
D25*
X136525000Y-80010000D03*
G36*
G01*
X124555000Y-83557500D02*
X124555000Y-84082500D01*
G75*
G02*
X124292500Y-84345000I-262500J0D01*
G01*
X123667500Y-84345000D01*
G75*
G02*
X123405000Y-84082500I0J262500D01*
G01*
X123405000Y-83557500D01*
G75*
G02*
X123667500Y-83295000I262500J0D01*
G01*
X124292500Y-83295000D01*
G75*
G02*
X124555000Y-83557500I0J-262500D01*
G01*
G37*
G36*
G01*
X126305000Y-83557500D02*
X126305000Y-84082500D01*
G75*
G02*
X126042500Y-84345000I-262500J0D01*
G01*
X125417500Y-84345000D01*
G75*
G02*
X125155000Y-84082500I0J262500D01*
G01*
X125155000Y-83557500D01*
G75*
G02*
X125417500Y-83295000I262500J0D01*
G01*
X126042500Y-83295000D01*
G75*
G02*
X126305000Y-83557500I0J-262500D01*
G01*
G37*
G36*
G01*
X89272500Y-93405000D02*
X89797500Y-93405000D01*
G75*
G02*
X90060000Y-93667500I0J-262500D01*
G01*
X90060000Y-94292500D01*
G75*
G02*
X89797500Y-94555000I-262500J0D01*
G01*
X89272500Y-94555000D01*
G75*
G02*
X89010000Y-94292500I0J262500D01*
G01*
X89010000Y-93667500D01*
G75*
G02*
X89272500Y-93405000I262500J0D01*
G01*
G37*
G36*
G01*
X89272500Y-91655000D02*
X89797500Y-91655000D01*
G75*
G02*
X90060000Y-91917500I0J-262500D01*
G01*
X90060000Y-92542500D01*
G75*
G02*
X89797500Y-92805000I-262500J0D01*
G01*
X89272500Y-92805000D01*
G75*
G02*
X89010000Y-92542500I0J262500D01*
G01*
X89010000Y-91917500D01*
G75*
G02*
X89272500Y-91655000I262500J0D01*
G01*
G37*
G36*
G01*
X100702500Y-92615000D02*
X101227500Y-92615000D01*
G75*
G02*
X101490000Y-92877500I0J-262500D01*
G01*
X101490000Y-93502500D01*
G75*
G02*
X101227500Y-93765000I-262500J0D01*
G01*
X100702500Y-93765000D01*
G75*
G02*
X100440000Y-93502500I0J262500D01*
G01*
X100440000Y-92877500D01*
G75*
G02*
X100702500Y-92615000I262500J0D01*
G01*
G37*
G36*
G01*
X100702500Y-90865000D02*
X101227500Y-90865000D01*
G75*
G02*
X101490000Y-91127500I0J-262500D01*
G01*
X101490000Y-91752500D01*
G75*
G02*
X101227500Y-92015000I-262500J0D01*
G01*
X100702500Y-92015000D01*
G75*
G02*
X100440000Y-91752500I0J262500D01*
G01*
X100440000Y-91127500D01*
G75*
G02*
X100702500Y-90865000I262500J0D01*
G01*
G37*
M02*
