G04 #@! TF.GenerationSoftware,KiCad,Pcbnew,(5.1.6)-1*
G04 #@! TF.CreationDate,2020-11-25T01:17:53+09:00*
G04 #@! TF.ProjectId,Mixer,4d697865-722e-46b6-9963-61645f706362,rev?*
G04 #@! TF.SameCoordinates,Original*
G04 #@! TF.FileFunction,Soldermask,Bot*
G04 #@! TF.FilePolarity,Negative*
%FSLAX46Y46*%
G04 Gerber Fmt 4.6, Leading zero omitted, Abs format (unit mm)*
G04 Created by KiCad (PCBNEW (5.1.6)-1) date 2020-11-25 01:17:53*
%MOMM*%
%LPD*%
G01*
G04 APERTURE LIST*
%ADD10C,3.300000*%
%ADD11C,0.100000*%
%ADD12O,1.800000X1.800000*%
%ADD13R,1.800000X1.800000*%
%ADD14C,2.100000*%
%ADD15C,2.106600*%
%ADD16C,1.420800*%
%ADD17C,1.624000*%
%ADD18O,1.000000X1.700000*%
%ADD19O,2.005000X2.100000*%
%ADD20R,2.005000X2.100000*%
G04 APERTURE END LIST*
D10*
X94000000Y-115000000D03*
X94000000Y-64000000D03*
X221000000Y-64000000D03*
X221000000Y-115000000D03*
D11*
G36*
X130518602Y-99165889D02*
G01*
X130518602Y-99147466D01*
X130518843Y-99142565D01*
X130523653Y-99093734D01*
X130524373Y-99088881D01*
X130533945Y-99040756D01*
X130535137Y-99035995D01*
X130549381Y-98989040D01*
X130551034Y-98984421D01*
X130569811Y-98939088D01*
X130571909Y-98934651D01*
X130595040Y-98891378D01*
X130597562Y-98887171D01*
X130624822Y-98846372D01*
X130627746Y-98842430D01*
X130658874Y-98804501D01*
X130662169Y-98800866D01*
X130696866Y-98766169D01*
X130700501Y-98762874D01*
X130738430Y-98731746D01*
X130742372Y-98728822D01*
X130783171Y-98701562D01*
X130787378Y-98699040D01*
X130830651Y-98675909D01*
X130835088Y-98673811D01*
X130880421Y-98655034D01*
X130885040Y-98653381D01*
X130931995Y-98639137D01*
X130936756Y-98637945D01*
X130984881Y-98628373D01*
X130989734Y-98627653D01*
X131038565Y-98622843D01*
X131043466Y-98622602D01*
X131061889Y-98622602D01*
X131068000Y-98622000D01*
X131568000Y-98622000D01*
X131574111Y-98622602D01*
X131592534Y-98622602D01*
X131597435Y-98622843D01*
X131646266Y-98627653D01*
X131651119Y-98628373D01*
X131699244Y-98637945D01*
X131704005Y-98639137D01*
X131750960Y-98653381D01*
X131755579Y-98655034D01*
X131800912Y-98673811D01*
X131805349Y-98675909D01*
X131848622Y-98699040D01*
X131852829Y-98701562D01*
X131893628Y-98728822D01*
X131897570Y-98731746D01*
X131935499Y-98762874D01*
X131939134Y-98766169D01*
X131973831Y-98800866D01*
X131977126Y-98804501D01*
X132008254Y-98842430D01*
X132011178Y-98846372D01*
X132038438Y-98887171D01*
X132040960Y-98891378D01*
X132064091Y-98934651D01*
X132066189Y-98939088D01*
X132084966Y-98984421D01*
X132086619Y-98989040D01*
X132100863Y-99035995D01*
X132102055Y-99040756D01*
X132111627Y-99088881D01*
X132112347Y-99093734D01*
X132117157Y-99142565D01*
X132117398Y-99147466D01*
X132117398Y-99165889D01*
X132118000Y-99172000D01*
X132118000Y-99672000D01*
X132117039Y-99681755D01*
X132114194Y-99691134D01*
X132109573Y-99699779D01*
X132103355Y-99707355D01*
X132095779Y-99713573D01*
X132087134Y-99718194D01*
X132077755Y-99721039D01*
X132068000Y-99722000D01*
X130568000Y-99722000D01*
X130558245Y-99721039D01*
X130548866Y-99718194D01*
X130540221Y-99713573D01*
X130532645Y-99707355D01*
X130526427Y-99699779D01*
X130521806Y-99691134D01*
X130518961Y-99681755D01*
X130518000Y-99672000D01*
X130518000Y-99172000D01*
X130518602Y-99165889D01*
G37*
G36*
X130518961Y-99962245D02*
G01*
X130521806Y-99952866D01*
X130526427Y-99944221D01*
X130532645Y-99936645D01*
X130540221Y-99930427D01*
X130548866Y-99925806D01*
X130558245Y-99922961D01*
X130568000Y-99922000D01*
X132068000Y-99922000D01*
X132077755Y-99922961D01*
X132087134Y-99925806D01*
X132095779Y-99930427D01*
X132103355Y-99936645D01*
X132109573Y-99944221D01*
X132114194Y-99952866D01*
X132117039Y-99962245D01*
X132118000Y-99972000D01*
X132118000Y-100472000D01*
X132117398Y-100478111D01*
X132117398Y-100496534D01*
X132117157Y-100501435D01*
X132112347Y-100550266D01*
X132111627Y-100555119D01*
X132102055Y-100603244D01*
X132100863Y-100608005D01*
X132086619Y-100654960D01*
X132084966Y-100659579D01*
X132066189Y-100704912D01*
X132064091Y-100709349D01*
X132040960Y-100752622D01*
X132038438Y-100756829D01*
X132011178Y-100797628D01*
X132008254Y-100801570D01*
X131977126Y-100839499D01*
X131973831Y-100843134D01*
X131939134Y-100877831D01*
X131935499Y-100881126D01*
X131897570Y-100912254D01*
X131893628Y-100915178D01*
X131852829Y-100942438D01*
X131848622Y-100944960D01*
X131805349Y-100968091D01*
X131800912Y-100970189D01*
X131755579Y-100988966D01*
X131750960Y-100990619D01*
X131704005Y-101004863D01*
X131699244Y-101006055D01*
X131651119Y-101015627D01*
X131646266Y-101016347D01*
X131597435Y-101021157D01*
X131592534Y-101021398D01*
X131574111Y-101021398D01*
X131568000Y-101022000D01*
X131068000Y-101022000D01*
X131061889Y-101021398D01*
X131043466Y-101021398D01*
X131038565Y-101021157D01*
X130989734Y-101016347D01*
X130984881Y-101015627D01*
X130936756Y-101006055D01*
X130931995Y-101004863D01*
X130885040Y-100990619D01*
X130880421Y-100988966D01*
X130835088Y-100970189D01*
X130830651Y-100968091D01*
X130787378Y-100944960D01*
X130783171Y-100942438D01*
X130742372Y-100915178D01*
X130738430Y-100912254D01*
X130700501Y-100881126D01*
X130696866Y-100877831D01*
X130662169Y-100843134D01*
X130658874Y-100839499D01*
X130627746Y-100801570D01*
X130624822Y-100797628D01*
X130597562Y-100756829D01*
X130595040Y-100752622D01*
X130571909Y-100709349D01*
X130569811Y-100704912D01*
X130551034Y-100659579D01*
X130549381Y-100654960D01*
X130535137Y-100608005D01*
X130533945Y-100603244D01*
X130524373Y-100555119D01*
X130523653Y-100550266D01*
X130518843Y-100501435D01*
X130518602Y-100496534D01*
X130518602Y-100478111D01*
X130518000Y-100472000D01*
X130518000Y-99972000D01*
X130518961Y-99962245D01*
G37*
D12*
X125222000Y-98552000D03*
X127762000Y-98552000D03*
X125222000Y-101092000D03*
D13*
X127762000Y-101092000D03*
D14*
X115824000Y-68700000D03*
X111324000Y-68700000D03*
X115824000Y-62200000D03*
X111324000Y-62200000D03*
D15*
X220962600Y-72506599D03*
X220962600Y-80706601D03*
D16*
X222207200Y-74600000D03*
X222207200Y-76606600D03*
X222207200Y-78613200D03*
X219718000Y-74600000D03*
X219718000Y-76606600D03*
X219718000Y-78613200D03*
D15*
X220962600Y-85306599D03*
X220962600Y-93506601D03*
D16*
X222207200Y-87400000D03*
X222207200Y-89406600D03*
X222207200Y-91413200D03*
X219718000Y-87400000D03*
X219718000Y-89406600D03*
X219718000Y-91413200D03*
G36*
G01*
X215525000Y-91976500D02*
X215525000Y-91451500D01*
G75*
G02*
X215787500Y-91189000I262500J0D01*
G01*
X216412500Y-91189000D01*
G75*
G02*
X216675000Y-91451500I0J-262500D01*
G01*
X216675000Y-91976500D01*
G75*
G02*
X216412500Y-92239000I-262500J0D01*
G01*
X215787500Y-92239000D01*
G75*
G02*
X215525000Y-91976500I0J262500D01*
G01*
G37*
G36*
G01*
X213775000Y-91976500D02*
X213775000Y-91451500D01*
G75*
G02*
X214037500Y-91189000I262500J0D01*
G01*
X214662500Y-91189000D01*
G75*
G02*
X214925000Y-91451500I0J-262500D01*
G01*
X214925000Y-91976500D01*
G75*
G02*
X214662500Y-92239000I-262500J0D01*
G01*
X214037500Y-92239000D01*
G75*
G02*
X213775000Y-91976500I0J262500D01*
G01*
G37*
G36*
G01*
X215525000Y-89035500D02*
X215525000Y-88510500D01*
G75*
G02*
X215787500Y-88248000I262500J0D01*
G01*
X216412500Y-88248000D01*
G75*
G02*
X216675000Y-88510500I0J-262500D01*
G01*
X216675000Y-89035500D01*
G75*
G02*
X216412500Y-89298000I-262500J0D01*
G01*
X215787500Y-89298000D01*
G75*
G02*
X215525000Y-89035500I0J262500D01*
G01*
G37*
G36*
G01*
X213775000Y-89035500D02*
X213775000Y-88510500D01*
G75*
G02*
X214037500Y-88248000I262500J0D01*
G01*
X214662500Y-88248000D01*
G75*
G02*
X214925000Y-88510500I0J-262500D01*
G01*
X214925000Y-89035500D01*
G75*
G02*
X214662500Y-89298000I-262500J0D01*
G01*
X214037500Y-89298000D01*
G75*
G02*
X213775000Y-89035500I0J262500D01*
G01*
G37*
G36*
G01*
X210393000Y-91431500D02*
X210393000Y-91956500D01*
G75*
G02*
X210130500Y-92219000I-262500J0D01*
G01*
X209505500Y-92219000D01*
G75*
G02*
X209243000Y-91956500I0J262500D01*
G01*
X209243000Y-91431500D01*
G75*
G02*
X209505500Y-91169000I262500J0D01*
G01*
X210130500Y-91169000D01*
G75*
G02*
X210393000Y-91431500I0J-262500D01*
G01*
G37*
G36*
G01*
X212143000Y-91431500D02*
X212143000Y-91956500D01*
G75*
G02*
X211880500Y-92219000I-262500J0D01*
G01*
X211255500Y-92219000D01*
G75*
G02*
X210993000Y-91956500I0J262500D01*
G01*
X210993000Y-91431500D01*
G75*
G02*
X211255500Y-91169000I262500J0D01*
G01*
X211880500Y-91169000D01*
G75*
G02*
X212143000Y-91431500I0J-262500D01*
G01*
G37*
G36*
G01*
X210393000Y-88510500D02*
X210393000Y-89035500D01*
G75*
G02*
X210130500Y-89298000I-262500J0D01*
G01*
X209505500Y-89298000D01*
G75*
G02*
X209243000Y-89035500I0J262500D01*
G01*
X209243000Y-88510500D01*
G75*
G02*
X209505500Y-88248000I262500J0D01*
G01*
X210130500Y-88248000D01*
G75*
G02*
X210393000Y-88510500I0J-262500D01*
G01*
G37*
G36*
G01*
X212143000Y-88510500D02*
X212143000Y-89035500D01*
G75*
G02*
X211880500Y-89298000I-262500J0D01*
G01*
X211255500Y-89298000D01*
G75*
G02*
X210993000Y-89035500I0J262500D01*
G01*
X210993000Y-88510500D01*
G75*
G02*
X211255500Y-88248000I262500J0D01*
G01*
X211880500Y-88248000D01*
G75*
G02*
X212143000Y-88510500I0J-262500D01*
G01*
G37*
D14*
X134600000Y-111500000D03*
X132100000Y-111500000D03*
X129600000Y-111500000D03*
X134600000Y-114000000D03*
X132100000Y-114000000D03*
X129600000Y-114000000D03*
D17*
X207977500Y-69340500D03*
X207977500Y-62340500D03*
X169400000Y-69404000D03*
X169400000Y-62404000D03*
D12*
X126492000Y-94234000D03*
X129032000Y-94234000D03*
D13*
X131572000Y-94234000D03*
D18*
X106600000Y-62484000D03*
X100000000Y-62484000D03*
G36*
G01*
X104993456Y-96303000D02*
X102778544Y-96303000D01*
G75*
G02*
X102511000Y-96035456I0J267544D01*
G01*
X102511000Y-95045544D01*
G75*
G02*
X102778544Y-94778000I267544J0D01*
G01*
X104993456Y-94778000D01*
G75*
G02*
X105261000Y-95045544I0J-267544D01*
G01*
X105261000Y-96035456D01*
G75*
G02*
X104993456Y-96303000I-267544J0D01*
G01*
G37*
G36*
G01*
X104993456Y-99278000D02*
X102778544Y-99278000D01*
G75*
G02*
X102511000Y-99010456I0J267544D01*
G01*
X102511000Y-98020544D01*
G75*
G02*
X102778544Y-97753000I267544J0D01*
G01*
X104993456Y-97753000D01*
G75*
G02*
X105261000Y-98020544I0J-267544D01*
G01*
X105261000Y-99010456D01*
G75*
G02*
X104993456Y-99278000I-267544J0D01*
G01*
G37*
G36*
G01*
X106031456Y-77088000D02*
X103816544Y-77088000D01*
G75*
G02*
X103549000Y-76820456I0J267544D01*
G01*
X103549000Y-75830544D01*
G75*
G02*
X103816544Y-75563000I267544J0D01*
G01*
X106031456Y-75563000D01*
G75*
G02*
X106299000Y-75830544I0J-267544D01*
G01*
X106299000Y-76820456D01*
G75*
G02*
X106031456Y-77088000I-267544J0D01*
G01*
G37*
G36*
G01*
X106031456Y-80063000D02*
X103816544Y-80063000D01*
G75*
G02*
X103549000Y-79795456I0J267544D01*
G01*
X103549000Y-78805544D01*
G75*
G02*
X103816544Y-78538000I267544J0D01*
G01*
X106031456Y-78538000D01*
G75*
G02*
X106299000Y-78805544I0J-267544D01*
G01*
X106299000Y-79795456D01*
G75*
G02*
X106031456Y-80063000I-267544J0D01*
G01*
G37*
G36*
G01*
X94553456Y-77124500D02*
X92338544Y-77124500D01*
G75*
G02*
X92071000Y-76856956I0J267544D01*
G01*
X92071000Y-75867044D01*
G75*
G02*
X92338544Y-75599500I267544J0D01*
G01*
X94553456Y-75599500D01*
G75*
G02*
X94821000Y-75867044I0J-267544D01*
G01*
X94821000Y-76856956D01*
G75*
G02*
X94553456Y-77124500I-267544J0D01*
G01*
G37*
G36*
G01*
X94553456Y-80099500D02*
X92338544Y-80099500D01*
G75*
G02*
X92071000Y-79831956I0J267544D01*
G01*
X92071000Y-78842044D01*
G75*
G02*
X92338544Y-78574500I267544J0D01*
G01*
X94553456Y-78574500D01*
G75*
G02*
X94821000Y-78842044I0J-267544D01*
G01*
X94821000Y-79831956D01*
G75*
G02*
X94553456Y-80099500I-267544J0D01*
G01*
G37*
D17*
X97764000Y-94577000D03*
X97764000Y-92037000D03*
X97764000Y-89497000D03*
X97764000Y-86957000D03*
X97764000Y-81877000D03*
X97764000Y-79337000D03*
X97764000Y-76797000D03*
X109115000Y-94577000D03*
X109115000Y-92037000D03*
X109115000Y-89497000D03*
X109115000Y-86957000D03*
X109115000Y-81877000D03*
X109115000Y-79337000D03*
X109115000Y-76797000D03*
D14*
X158600000Y-111500000D03*
X156100000Y-111500000D03*
X153600000Y-111500000D03*
X158600000Y-114000000D03*
X156100000Y-114000000D03*
X153600000Y-114000000D03*
D17*
X141400000Y-69400000D03*
X141400000Y-62400000D03*
D15*
X190906599Y-64037400D03*
X199106601Y-64037400D03*
D16*
X193000000Y-62792800D03*
X195006600Y-62792800D03*
X197013200Y-62792800D03*
X193000000Y-65282000D03*
X195006600Y-65282000D03*
X197013200Y-65282000D03*
D15*
X177906599Y-64037400D03*
X186106601Y-64037400D03*
D16*
X180000000Y-62792800D03*
X182006600Y-62792800D03*
X184013200Y-62792800D03*
X180000000Y-65282000D03*
X182006600Y-65282000D03*
X184013200Y-65282000D03*
G36*
G01*
X113800500Y-65232000D02*
X113275500Y-65232000D01*
G75*
G02*
X113013000Y-64969500I0J262500D01*
G01*
X113013000Y-64344500D01*
G75*
G02*
X113275500Y-64082000I262500J0D01*
G01*
X113800500Y-64082000D01*
G75*
G02*
X114063000Y-64344500I0J-262500D01*
G01*
X114063000Y-64969500D01*
G75*
G02*
X113800500Y-65232000I-262500J0D01*
G01*
G37*
G36*
G01*
X113800500Y-66982000D02*
X113275500Y-66982000D01*
G75*
G02*
X113013000Y-66719500I0J262500D01*
G01*
X113013000Y-66094500D01*
G75*
G02*
X113275500Y-65832000I262500J0D01*
G01*
X113800500Y-65832000D01*
G75*
G02*
X114063000Y-66094500I0J-262500D01*
G01*
X114063000Y-66719500D01*
G75*
G02*
X113800500Y-66982000I-262500J0D01*
G01*
G37*
D14*
X182600000Y-111500000D03*
X180100000Y-111500000D03*
X177600000Y-111500000D03*
X182600000Y-114000000D03*
X180100000Y-114000000D03*
X177600000Y-114000000D03*
X206600000Y-111500000D03*
X204100000Y-111500000D03*
X201600000Y-111500000D03*
X206600000Y-114000000D03*
X204100000Y-114000000D03*
X201600000Y-114000000D03*
X105800000Y-104740000D03*
X105800000Y-107280000D03*
X105800000Y-109820000D03*
X105800000Y-114900000D03*
D17*
X155399500Y-69404000D03*
X155399500Y-62404000D03*
X215600000Y-102600000D03*
X222600000Y-102600000D03*
D19*
X93720000Y-99800000D03*
X96260000Y-99800000D03*
D20*
X98800000Y-99800000D03*
D19*
X112242000Y-99800000D03*
X114782000Y-99800000D03*
D20*
X117322000Y-99800000D03*
M02*
