G04 #@! TF.GenerationSoftware,KiCad,Pcbnew,(5.1.6)-1*
G04 #@! TF.CreationDate,2020-12-20T01:09:14+09:00*
G04 #@! TF.ProjectId,Mixer,4d697865-722e-46b6-9963-61645f706362,rev?*
G04 #@! TF.SameCoordinates,Original*
G04 #@! TF.FileFunction,Legend,Bot*
G04 #@! TF.FilePolarity,Positive*
%FSLAX46Y46*%
G04 Gerber Fmt 4.6, Leading zero omitted, Abs format (unit mm)*
G04 Created by KiCad (PCBNEW (5.1.6)-1) date 2020-12-20 01:09:14*
%MOMM*%
%LPD*%
G01*
G04 APERTURE LIST*
%ADD10C,0.150000*%
%ADD11C,0.120000*%
%ADD12C,1.100000*%
%ADD13O,3.600000X2.300000*%
%ADD14O,2.600000X1.600000*%
%ADD15R,2.600000X1.600000*%
%ADD16C,3.300000*%
%ADD17C,2.100000*%
%ADD18C,2.106600*%
%ADD19C,1.420800*%
%ADD20C,1.624000*%
%ADD21O,1.000000X1.700000*%
%ADD22O,2.005000X2.100000*%
%ADD23R,2.005000X2.100000*%
G04 APERTURE END LIST*
D10*
X130230476Y-77303380D02*
X129659047Y-77303380D01*
X129944761Y-78303380D02*
X129944761Y-77303380D01*
X129420952Y-78303380D02*
X128897142Y-77636714D01*
X129420952Y-77636714D02*
X128897142Y-78303380D01*
X127222238Y-78303380D02*
X127555571Y-77827190D01*
X127793666Y-78303380D02*
X127793666Y-77303380D01*
X127412714Y-77303380D01*
X127317476Y-77351000D01*
X127269857Y-77398619D01*
X127222238Y-77493857D01*
X127222238Y-77636714D01*
X127269857Y-77731952D01*
X127317476Y-77779571D01*
X127412714Y-77827190D01*
X127793666Y-77827190D01*
X126888904Y-78303380D02*
X126365095Y-77636714D01*
X126888904Y-77636714D02*
X126365095Y-78303380D01*
X128214238Y-81859380D02*
X128214238Y-80859380D01*
X127833285Y-80859380D01*
X127738047Y-80907000D01*
X127690428Y-80954619D01*
X127642809Y-81049857D01*
X127642809Y-81192714D01*
X127690428Y-81287952D01*
X127738047Y-81335571D01*
X127833285Y-81383190D01*
X128214238Y-81383190D01*
X127261857Y-80954619D02*
X127214238Y-80907000D01*
X127119000Y-80859380D01*
X126880904Y-80859380D01*
X126785666Y-80907000D01*
X126738047Y-80954619D01*
X126690428Y-81049857D01*
X126690428Y-81145095D01*
X126738047Y-81287952D01*
X127309476Y-81859380D01*
X126690428Y-81859380D01*
X126499952Y-81954619D02*
X125738047Y-81954619D01*
X125071380Y-81192714D02*
X125071380Y-81859380D01*
X125309476Y-80811761D02*
X125547571Y-81526047D01*
X124928523Y-81526047D01*
X130801904Y-84717000D02*
X130897142Y-84669380D01*
X131040000Y-84669380D01*
X131182857Y-84717000D01*
X131278095Y-84812238D01*
X131325714Y-84907476D01*
X131373333Y-85097952D01*
X131373333Y-85240809D01*
X131325714Y-85431285D01*
X131278095Y-85526523D01*
X131182857Y-85621761D01*
X131040000Y-85669380D01*
X130944761Y-85669380D01*
X130801904Y-85621761D01*
X130754285Y-85574142D01*
X130754285Y-85240809D01*
X130944761Y-85240809D01*
X130325714Y-85669380D02*
X130325714Y-84669380D01*
X129754285Y-85669380D01*
X129754285Y-84669380D01*
X129278095Y-85669380D02*
X129278095Y-84669380D01*
X129040000Y-84669380D01*
X128897142Y-84717000D01*
X128801904Y-84812238D01*
X128754285Y-84907476D01*
X128706666Y-85097952D01*
X128706666Y-85240809D01*
X128754285Y-85431285D01*
X128801904Y-85526523D01*
X128897142Y-85621761D01*
X129040000Y-85669380D01*
X129278095Y-85669380D01*
X128278095Y-85669380D02*
X128278095Y-84669380D01*
X128040000Y-84669380D01*
X127897142Y-84717000D01*
X127801904Y-84812238D01*
X127754285Y-84907476D01*
X127706666Y-85097952D01*
X127706666Y-85240809D01*
X127754285Y-85431285D01*
X127801904Y-85526523D01*
X127897142Y-85621761D01*
X128040000Y-85669380D01*
X128278095Y-85669380D01*
X126555238Y-84669380D02*
X126221904Y-85669380D01*
X125888571Y-84669380D01*
X125555238Y-85669380D02*
X125555238Y-84669380D01*
X125317142Y-84669380D01*
X125174285Y-84717000D01*
X125079047Y-84812238D01*
X125031428Y-84907476D01*
X124983809Y-85097952D01*
X124983809Y-85240809D01*
X125031428Y-85431285D01*
X125079047Y-85526523D01*
X125174285Y-85621761D01*
X125317142Y-85669380D01*
X125555238Y-85669380D01*
X124555238Y-85669380D02*
X124555238Y-84669380D01*
X124317142Y-84669380D01*
X124174285Y-84717000D01*
X124079047Y-84812238D01*
X124031428Y-84907476D01*
X123983809Y-85097952D01*
X123983809Y-85240809D01*
X124031428Y-85431285D01*
X124079047Y-85526523D01*
X124174285Y-85621761D01*
X124317142Y-85669380D01*
X124555238Y-85669380D01*
X123555238Y-85669380D02*
X123555238Y-84669380D01*
X122888571Y-84669380D02*
X122698095Y-84669380D01*
X122602857Y-84717000D01*
X122507619Y-84812238D01*
X122460000Y-85002714D01*
X122460000Y-85336047D01*
X122507619Y-85526523D01*
X122602857Y-85621761D01*
X122698095Y-85669380D01*
X122888571Y-85669380D01*
X122983809Y-85621761D01*
X123079047Y-85526523D01*
X123126666Y-85336047D01*
X123126666Y-85002714D01*
X123079047Y-84812238D01*
X122983809Y-84717000D01*
X122888571Y-84669380D01*
X125245666Y-72953571D02*
X124912333Y-72953571D01*
X124769476Y-73477380D02*
X125245666Y-73477380D01*
X125245666Y-72477380D01*
X124769476Y-72477380D01*
X124388523Y-73191666D02*
X123912333Y-73191666D01*
X124483761Y-73477380D02*
X124150428Y-72477380D01*
X123817095Y-73477380D01*
X123483761Y-73477380D02*
X123483761Y-72477380D01*
X122912333Y-73477380D01*
X122912333Y-72477380D01*
D11*
X127827000Y-83566000D02*
G75*
G03*
X127827000Y-83566000I-700000J0D01*
G01*
X122493000Y-73025000D02*
G75*
G03*
X122493000Y-73025000I-700000J0D01*
G01*
X130240000Y-81407000D02*
G75*
G03*
X130240000Y-81407000I-700000J0D01*
G01*
X130240000Y-83566000D02*
G75*
G03*
X130240000Y-83566000I-700000J0D01*
G01*
X127827000Y-79375000D02*
G75*
G03*
X127827000Y-79375000I-700000J0D01*
G01*
X130240000Y-79375000D02*
G75*
G03*
X130240000Y-79375000I-700000J0D01*
G01*
X188851000Y-94951733D02*
X188851000Y-95294267D01*
X187831000Y-94951733D02*
X187831000Y-95294267D01*
X175526000Y-94662733D02*
X175526000Y-95005267D01*
X174506000Y-94662733D02*
X174506000Y-95005267D01*
X215053733Y-92224000D02*
X215396267Y-92224000D01*
X215053733Y-91204000D02*
X215396267Y-91204000D01*
X215053733Y-89283000D02*
X215396267Y-89283000D01*
X215053733Y-88263000D02*
X215396267Y-88263000D01*
X210864267Y-91184000D02*
X210521733Y-91184000D01*
X210864267Y-92204000D02*
X210521733Y-92204000D01*
X210864267Y-88263000D02*
X210521733Y-88263000D01*
X210864267Y-89283000D02*
X210521733Y-89283000D01*
X102526000Y-97630064D02*
X102526000Y-96425936D01*
X105246000Y-97630064D02*
X105246000Y-96425936D01*
X103564000Y-78415064D02*
X103564000Y-77210936D01*
X106284000Y-78415064D02*
X106284000Y-77210936D01*
X92086000Y-78451564D02*
X92086000Y-77247436D01*
X94806000Y-78451564D02*
X94806000Y-77247436D01*
X114048000Y-65703267D02*
X114048000Y-65360733D01*
X113028000Y-65703267D02*
X113028000Y-65360733D01*
D10*
X187301142Y-94480142D02*
X187348761Y-94432523D01*
X187396380Y-94289666D01*
X187396380Y-94194428D01*
X187348761Y-94051571D01*
X187253523Y-93956333D01*
X187158285Y-93908714D01*
X186967809Y-93861095D01*
X186824952Y-93861095D01*
X186634476Y-93908714D01*
X186539238Y-93956333D01*
X186444000Y-94051571D01*
X186396380Y-94194428D01*
X186396380Y-94289666D01*
X186444000Y-94432523D01*
X186491619Y-94480142D01*
X186491619Y-94861095D02*
X186444000Y-94908714D01*
X186396380Y-95003952D01*
X186396380Y-95242047D01*
X186444000Y-95337285D01*
X186491619Y-95384904D01*
X186586857Y-95432523D01*
X186682095Y-95432523D01*
X186824952Y-95384904D01*
X187396380Y-94813476D01*
X187396380Y-95432523D01*
X186396380Y-96051571D02*
X186396380Y-96146809D01*
X186444000Y-96242047D01*
X186491619Y-96289666D01*
X186586857Y-96337285D01*
X186777333Y-96384904D01*
X187015428Y-96384904D01*
X187205904Y-96337285D01*
X187301142Y-96289666D01*
X187348761Y-96242047D01*
X187396380Y-96146809D01*
X187396380Y-96051571D01*
X187348761Y-95956333D01*
X187301142Y-95908714D01*
X187205904Y-95861095D01*
X187015428Y-95813476D01*
X186777333Y-95813476D01*
X186586857Y-95861095D01*
X186491619Y-95908714D01*
X186444000Y-95956333D01*
X186396380Y-96051571D01*
X173943142Y-94191142D02*
X173990761Y-94143523D01*
X174038380Y-94000666D01*
X174038380Y-93905428D01*
X173990761Y-93762571D01*
X173895523Y-93667333D01*
X173800285Y-93619714D01*
X173609809Y-93572095D01*
X173466952Y-93572095D01*
X173276476Y-93619714D01*
X173181238Y-93667333D01*
X173086000Y-93762571D01*
X173038380Y-93905428D01*
X173038380Y-94000666D01*
X173086000Y-94143523D01*
X173133619Y-94191142D01*
X174038380Y-95143523D02*
X174038380Y-94572095D01*
X174038380Y-94857809D02*
X173038380Y-94857809D01*
X173181238Y-94762571D01*
X173276476Y-94667333D01*
X173324095Y-94572095D01*
X174038380Y-95619714D02*
X174038380Y-95810190D01*
X173990761Y-95905428D01*
X173943142Y-95953047D01*
X173800285Y-96048285D01*
X173609809Y-96095904D01*
X173228857Y-96095904D01*
X173133619Y-96048285D01*
X173086000Y-96000666D01*
X173038380Y-95905428D01*
X173038380Y-95714952D01*
X173086000Y-95619714D01*
X173133619Y-95572095D01*
X173228857Y-95524476D01*
X173466952Y-95524476D01*
X173562190Y-95572095D01*
X173609809Y-95619714D01*
X173657428Y-95714952D01*
X173657428Y-95905428D01*
X173609809Y-96000666D01*
X173562190Y-96048285D01*
X173466952Y-96095904D01*
X215867857Y-93670380D02*
X216201190Y-93194190D01*
X216439285Y-93670380D02*
X216439285Y-92670380D01*
X216058333Y-92670380D01*
X215963095Y-92718000D01*
X215915476Y-92765619D01*
X215867857Y-92860857D01*
X215867857Y-93003714D01*
X215915476Y-93098952D01*
X215963095Y-93146571D01*
X216058333Y-93194190D01*
X216439285Y-93194190D01*
X214963095Y-92670380D02*
X215439285Y-92670380D01*
X215486904Y-93146571D01*
X215439285Y-93098952D01*
X215344047Y-93051333D01*
X215105952Y-93051333D01*
X215010714Y-93098952D01*
X214963095Y-93146571D01*
X214915476Y-93241809D01*
X214915476Y-93479904D01*
X214963095Y-93575142D01*
X215010714Y-93622761D01*
X215105952Y-93670380D01*
X215344047Y-93670380D01*
X215439285Y-93622761D01*
X215486904Y-93575142D01*
X213963095Y-93670380D02*
X214534523Y-93670380D01*
X214248809Y-93670380D02*
X214248809Y-92670380D01*
X214344047Y-92813238D01*
X214439285Y-92908476D01*
X214534523Y-92956095D01*
X215867857Y-90749380D02*
X216201190Y-90273190D01*
X216439285Y-90749380D02*
X216439285Y-89749380D01*
X216058333Y-89749380D01*
X215963095Y-89797000D01*
X215915476Y-89844619D01*
X215867857Y-89939857D01*
X215867857Y-90082714D01*
X215915476Y-90177952D01*
X215963095Y-90225571D01*
X216058333Y-90273190D01*
X216439285Y-90273190D01*
X214963095Y-89749380D02*
X215439285Y-89749380D01*
X215486904Y-90225571D01*
X215439285Y-90177952D01*
X215344047Y-90130333D01*
X215105952Y-90130333D01*
X215010714Y-90177952D01*
X214963095Y-90225571D01*
X214915476Y-90320809D01*
X214915476Y-90558904D01*
X214963095Y-90654142D01*
X215010714Y-90701761D01*
X215105952Y-90749380D01*
X215344047Y-90749380D01*
X215439285Y-90701761D01*
X215486904Y-90654142D01*
X214296428Y-89749380D02*
X214201190Y-89749380D01*
X214105952Y-89797000D01*
X214058333Y-89844619D01*
X214010714Y-89939857D01*
X213963095Y-90130333D01*
X213963095Y-90368428D01*
X214010714Y-90558904D01*
X214058333Y-90654142D01*
X214105952Y-90701761D01*
X214201190Y-90749380D01*
X214296428Y-90749380D01*
X214391666Y-90701761D01*
X214439285Y-90654142D01*
X214486904Y-90558904D01*
X214534523Y-90368428D01*
X214534523Y-90130333D01*
X214486904Y-89939857D01*
X214439285Y-89844619D01*
X214391666Y-89797000D01*
X214296428Y-89749380D01*
X211335857Y-93670380D02*
X211669190Y-93194190D01*
X211907285Y-93670380D02*
X211907285Y-92670380D01*
X211526333Y-92670380D01*
X211431095Y-92718000D01*
X211383476Y-92765619D01*
X211335857Y-92860857D01*
X211335857Y-93003714D01*
X211383476Y-93098952D01*
X211431095Y-93146571D01*
X211526333Y-93194190D01*
X211907285Y-93194190D01*
X210478714Y-93003714D02*
X210478714Y-93670380D01*
X210716809Y-92622761D02*
X210954904Y-93337047D01*
X210335857Y-93337047D01*
X209907285Y-93670380D02*
X209716809Y-93670380D01*
X209621571Y-93622761D01*
X209573952Y-93575142D01*
X209478714Y-93432285D01*
X209431095Y-93241809D01*
X209431095Y-92860857D01*
X209478714Y-92765619D01*
X209526333Y-92718000D01*
X209621571Y-92670380D01*
X209812047Y-92670380D01*
X209907285Y-92718000D01*
X209954904Y-92765619D01*
X210002523Y-92860857D01*
X210002523Y-93098952D01*
X209954904Y-93194190D01*
X209907285Y-93241809D01*
X209812047Y-93289428D01*
X209621571Y-93289428D01*
X209526333Y-93241809D01*
X209478714Y-93194190D01*
X209431095Y-93098952D01*
X211335857Y-90749380D02*
X211669190Y-90273190D01*
X211907285Y-90749380D02*
X211907285Y-89749380D01*
X211526333Y-89749380D01*
X211431095Y-89797000D01*
X211383476Y-89844619D01*
X211335857Y-89939857D01*
X211335857Y-90082714D01*
X211383476Y-90177952D01*
X211431095Y-90225571D01*
X211526333Y-90273190D01*
X211907285Y-90273190D01*
X210478714Y-90082714D02*
X210478714Y-90749380D01*
X210716809Y-89701761D02*
X210954904Y-90416047D01*
X210335857Y-90416047D01*
X209812047Y-90177952D02*
X209907285Y-90130333D01*
X209954904Y-90082714D01*
X210002523Y-89987476D01*
X210002523Y-89939857D01*
X209954904Y-89844619D01*
X209907285Y-89797000D01*
X209812047Y-89749380D01*
X209621571Y-89749380D01*
X209526333Y-89797000D01*
X209478714Y-89844619D01*
X209431095Y-89939857D01*
X209431095Y-89987476D01*
X209478714Y-90082714D01*
X209526333Y-90130333D01*
X209621571Y-90177952D01*
X209812047Y-90177952D01*
X209907285Y-90225571D01*
X209954904Y-90273190D01*
X210002523Y-90368428D01*
X210002523Y-90558904D01*
X209954904Y-90654142D01*
X209907285Y-90701761D01*
X209812047Y-90749380D01*
X209621571Y-90749380D01*
X209526333Y-90701761D01*
X209478714Y-90654142D01*
X209431095Y-90558904D01*
X209431095Y-90368428D01*
X209478714Y-90273190D01*
X209526333Y-90225571D01*
X209621571Y-90177952D01*
X104528857Y-94083142D02*
X104576476Y-94130761D01*
X104719333Y-94178380D01*
X104814571Y-94178380D01*
X104957428Y-94130761D01*
X105052666Y-94035523D01*
X105100285Y-93940285D01*
X105147904Y-93749809D01*
X105147904Y-93606952D01*
X105100285Y-93416476D01*
X105052666Y-93321238D01*
X104957428Y-93226000D01*
X104814571Y-93178380D01*
X104719333Y-93178380D01*
X104576476Y-93226000D01*
X104528857Y-93273619D01*
X103576476Y-94178380D02*
X104147904Y-94178380D01*
X103862190Y-94178380D02*
X103862190Y-93178380D01*
X103957428Y-93321238D01*
X104052666Y-93416476D01*
X104147904Y-93464095D01*
X102719333Y-93178380D02*
X102909809Y-93178380D01*
X103005047Y-93226000D01*
X103052666Y-93273619D01*
X103147904Y-93416476D01*
X103195523Y-93606952D01*
X103195523Y-93987904D01*
X103147904Y-94083142D01*
X103100285Y-94130761D01*
X103005047Y-94178380D01*
X102814571Y-94178380D01*
X102719333Y-94130761D01*
X102671714Y-94083142D01*
X102624095Y-93987904D01*
X102624095Y-93749809D01*
X102671714Y-93654571D01*
X102719333Y-93606952D01*
X102814571Y-93559333D01*
X103005047Y-93559333D01*
X103100285Y-93606952D01*
X103147904Y-93654571D01*
X103195523Y-93749809D01*
X107561142Y-77170142D02*
X107608761Y-77122523D01*
X107656380Y-76979666D01*
X107656380Y-76884428D01*
X107608761Y-76741571D01*
X107513523Y-76646333D01*
X107418285Y-76598714D01*
X107227809Y-76551095D01*
X107084952Y-76551095D01*
X106894476Y-76598714D01*
X106799238Y-76646333D01*
X106704000Y-76741571D01*
X106656380Y-76884428D01*
X106656380Y-76979666D01*
X106704000Y-77122523D01*
X106751619Y-77170142D01*
X107656380Y-78122523D02*
X107656380Y-77551095D01*
X107656380Y-77836809D02*
X106656380Y-77836809D01*
X106799238Y-77741571D01*
X106894476Y-77646333D01*
X106942095Y-77551095D01*
X106751619Y-78503476D02*
X106704000Y-78551095D01*
X106656380Y-78646333D01*
X106656380Y-78884428D01*
X106704000Y-78979666D01*
X106751619Y-79027285D01*
X106846857Y-79074904D01*
X106942095Y-79074904D01*
X107084952Y-79027285D01*
X107656380Y-78455857D01*
X107656380Y-79074904D01*
X96083142Y-77206642D02*
X96130761Y-77159023D01*
X96178380Y-77016166D01*
X96178380Y-76920928D01*
X96130761Y-76778071D01*
X96035523Y-76682833D01*
X95940285Y-76635214D01*
X95749809Y-76587595D01*
X95606952Y-76587595D01*
X95416476Y-76635214D01*
X95321238Y-76682833D01*
X95226000Y-76778071D01*
X95178380Y-76920928D01*
X95178380Y-77016166D01*
X95226000Y-77159023D01*
X95273619Y-77206642D01*
X96178380Y-78159023D02*
X96178380Y-77587595D01*
X96178380Y-77873309D02*
X95178380Y-77873309D01*
X95321238Y-77778071D01*
X95416476Y-77682833D01*
X95464095Y-77587595D01*
X96178380Y-79111404D02*
X96178380Y-78539976D01*
X96178380Y-78825690D02*
X95178380Y-78825690D01*
X95321238Y-78730452D01*
X95416476Y-78635214D01*
X95464095Y-78539976D01*
X112212380Y-64889142D02*
X111736190Y-64555809D01*
X112212380Y-64317714D02*
X111212380Y-64317714D01*
X111212380Y-64698666D01*
X111260000Y-64793904D01*
X111307619Y-64841523D01*
X111402857Y-64889142D01*
X111545714Y-64889142D01*
X111640952Y-64841523D01*
X111688571Y-64793904D01*
X111736190Y-64698666D01*
X111736190Y-64317714D01*
X111307619Y-65270095D02*
X111260000Y-65317714D01*
X111212380Y-65412952D01*
X111212380Y-65651047D01*
X111260000Y-65746285D01*
X111307619Y-65793904D01*
X111402857Y-65841523D01*
X111498095Y-65841523D01*
X111640952Y-65793904D01*
X112212380Y-65222476D01*
X112212380Y-65841523D01*
X112212380Y-66793904D02*
X112212380Y-66222476D01*
X112212380Y-66508190D02*
X111212380Y-66508190D01*
X111355238Y-66412952D01*
X111450476Y-66317714D01*
X111498095Y-66222476D01*
%LPC*%
D12*
X127127000Y-83566000D03*
X121793000Y-73025000D03*
X129540000Y-81407000D03*
X129540000Y-83566000D03*
X127127000Y-79375000D03*
X129540000Y-79375000D03*
G36*
G01*
X188078500Y-95423000D02*
X188603500Y-95423000D01*
G75*
G02*
X188866000Y-95685500I0J-262500D01*
G01*
X188866000Y-96310500D01*
G75*
G02*
X188603500Y-96573000I-262500J0D01*
G01*
X188078500Y-96573000D01*
G75*
G02*
X187816000Y-96310500I0J262500D01*
G01*
X187816000Y-95685500D01*
G75*
G02*
X188078500Y-95423000I262500J0D01*
G01*
G37*
G36*
G01*
X188078500Y-93673000D02*
X188603500Y-93673000D01*
G75*
G02*
X188866000Y-93935500I0J-262500D01*
G01*
X188866000Y-94560500D01*
G75*
G02*
X188603500Y-94823000I-262500J0D01*
G01*
X188078500Y-94823000D01*
G75*
G02*
X187816000Y-94560500I0J262500D01*
G01*
X187816000Y-93935500D01*
G75*
G02*
X188078500Y-93673000I262500J0D01*
G01*
G37*
G36*
G01*
X174753500Y-95134000D02*
X175278500Y-95134000D01*
G75*
G02*
X175541000Y-95396500I0J-262500D01*
G01*
X175541000Y-96021500D01*
G75*
G02*
X175278500Y-96284000I-262500J0D01*
G01*
X174753500Y-96284000D01*
G75*
G02*
X174491000Y-96021500I0J262500D01*
G01*
X174491000Y-95396500D01*
G75*
G02*
X174753500Y-95134000I262500J0D01*
G01*
G37*
G36*
G01*
X174753500Y-93384000D02*
X175278500Y-93384000D01*
G75*
G02*
X175541000Y-93646500I0J-262500D01*
G01*
X175541000Y-94271500D01*
G75*
G02*
X175278500Y-94534000I-262500J0D01*
G01*
X174753500Y-94534000D01*
G75*
G02*
X174491000Y-94271500I0J262500D01*
G01*
X174491000Y-93646500D01*
G75*
G02*
X174753500Y-93384000I262500J0D01*
G01*
G37*
D13*
X125984000Y-104906000D03*
X125984000Y-96706000D03*
D14*
X125984000Y-102806000D03*
X125984000Y-100806000D03*
D15*
X125984000Y-98806000D03*
D16*
X94000000Y-115000000D03*
X94000000Y-64000000D03*
X221000000Y-64000000D03*
X221000000Y-115000000D03*
D17*
X115824000Y-68700000D03*
X111324000Y-68700000D03*
X115824000Y-62200000D03*
X111324000Y-62200000D03*
D18*
X220962600Y-72506599D03*
X220962600Y-80706601D03*
D19*
X222207200Y-74600000D03*
X222207200Y-76606600D03*
X222207200Y-78613200D03*
X219718000Y-74600000D03*
X219718000Y-76606600D03*
X219718000Y-78613200D03*
D18*
X220962600Y-85306599D03*
X220962600Y-93506601D03*
D19*
X222207200Y-87400000D03*
X222207200Y-89406600D03*
X222207200Y-91413200D03*
X219718000Y-87400000D03*
X219718000Y-89406600D03*
X219718000Y-91413200D03*
G36*
G01*
X215525000Y-91976500D02*
X215525000Y-91451500D01*
G75*
G02*
X215787500Y-91189000I262500J0D01*
G01*
X216412500Y-91189000D01*
G75*
G02*
X216675000Y-91451500I0J-262500D01*
G01*
X216675000Y-91976500D01*
G75*
G02*
X216412500Y-92239000I-262500J0D01*
G01*
X215787500Y-92239000D01*
G75*
G02*
X215525000Y-91976500I0J262500D01*
G01*
G37*
G36*
G01*
X213775000Y-91976500D02*
X213775000Y-91451500D01*
G75*
G02*
X214037500Y-91189000I262500J0D01*
G01*
X214662500Y-91189000D01*
G75*
G02*
X214925000Y-91451500I0J-262500D01*
G01*
X214925000Y-91976500D01*
G75*
G02*
X214662500Y-92239000I-262500J0D01*
G01*
X214037500Y-92239000D01*
G75*
G02*
X213775000Y-91976500I0J262500D01*
G01*
G37*
G36*
G01*
X215525000Y-89035500D02*
X215525000Y-88510500D01*
G75*
G02*
X215787500Y-88248000I262500J0D01*
G01*
X216412500Y-88248000D01*
G75*
G02*
X216675000Y-88510500I0J-262500D01*
G01*
X216675000Y-89035500D01*
G75*
G02*
X216412500Y-89298000I-262500J0D01*
G01*
X215787500Y-89298000D01*
G75*
G02*
X215525000Y-89035500I0J262500D01*
G01*
G37*
G36*
G01*
X213775000Y-89035500D02*
X213775000Y-88510500D01*
G75*
G02*
X214037500Y-88248000I262500J0D01*
G01*
X214662500Y-88248000D01*
G75*
G02*
X214925000Y-88510500I0J-262500D01*
G01*
X214925000Y-89035500D01*
G75*
G02*
X214662500Y-89298000I-262500J0D01*
G01*
X214037500Y-89298000D01*
G75*
G02*
X213775000Y-89035500I0J262500D01*
G01*
G37*
G36*
G01*
X210393000Y-91431500D02*
X210393000Y-91956500D01*
G75*
G02*
X210130500Y-92219000I-262500J0D01*
G01*
X209505500Y-92219000D01*
G75*
G02*
X209243000Y-91956500I0J262500D01*
G01*
X209243000Y-91431500D01*
G75*
G02*
X209505500Y-91169000I262500J0D01*
G01*
X210130500Y-91169000D01*
G75*
G02*
X210393000Y-91431500I0J-262500D01*
G01*
G37*
G36*
G01*
X212143000Y-91431500D02*
X212143000Y-91956500D01*
G75*
G02*
X211880500Y-92219000I-262500J0D01*
G01*
X211255500Y-92219000D01*
G75*
G02*
X210993000Y-91956500I0J262500D01*
G01*
X210993000Y-91431500D01*
G75*
G02*
X211255500Y-91169000I262500J0D01*
G01*
X211880500Y-91169000D01*
G75*
G02*
X212143000Y-91431500I0J-262500D01*
G01*
G37*
G36*
G01*
X210393000Y-88510500D02*
X210393000Y-89035500D01*
G75*
G02*
X210130500Y-89298000I-262500J0D01*
G01*
X209505500Y-89298000D01*
G75*
G02*
X209243000Y-89035500I0J262500D01*
G01*
X209243000Y-88510500D01*
G75*
G02*
X209505500Y-88248000I262500J0D01*
G01*
X210130500Y-88248000D01*
G75*
G02*
X210393000Y-88510500I0J-262500D01*
G01*
G37*
G36*
G01*
X212143000Y-88510500D02*
X212143000Y-89035500D01*
G75*
G02*
X211880500Y-89298000I-262500J0D01*
G01*
X211255500Y-89298000D01*
G75*
G02*
X210993000Y-89035500I0J262500D01*
G01*
X210993000Y-88510500D01*
G75*
G02*
X211255500Y-88248000I262500J0D01*
G01*
X211880500Y-88248000D01*
G75*
G02*
X212143000Y-88510500I0J-262500D01*
G01*
G37*
D17*
X134600000Y-111500000D03*
X132100000Y-111500000D03*
X129600000Y-111500000D03*
X134600000Y-114000000D03*
X132100000Y-114000000D03*
X129600000Y-114000000D03*
D20*
X207977500Y-69340500D03*
X207977500Y-62340500D03*
X169400000Y-69404000D03*
X169400000Y-62404000D03*
D21*
X106600000Y-62484000D03*
X100000000Y-62484000D03*
G36*
G01*
X104993456Y-96303000D02*
X102778544Y-96303000D01*
G75*
G02*
X102511000Y-96035456I0J267544D01*
G01*
X102511000Y-95045544D01*
G75*
G02*
X102778544Y-94778000I267544J0D01*
G01*
X104993456Y-94778000D01*
G75*
G02*
X105261000Y-95045544I0J-267544D01*
G01*
X105261000Y-96035456D01*
G75*
G02*
X104993456Y-96303000I-267544J0D01*
G01*
G37*
G36*
G01*
X104993456Y-99278000D02*
X102778544Y-99278000D01*
G75*
G02*
X102511000Y-99010456I0J267544D01*
G01*
X102511000Y-98020544D01*
G75*
G02*
X102778544Y-97753000I267544J0D01*
G01*
X104993456Y-97753000D01*
G75*
G02*
X105261000Y-98020544I0J-267544D01*
G01*
X105261000Y-99010456D01*
G75*
G02*
X104993456Y-99278000I-267544J0D01*
G01*
G37*
G36*
G01*
X106031456Y-77088000D02*
X103816544Y-77088000D01*
G75*
G02*
X103549000Y-76820456I0J267544D01*
G01*
X103549000Y-75830544D01*
G75*
G02*
X103816544Y-75563000I267544J0D01*
G01*
X106031456Y-75563000D01*
G75*
G02*
X106299000Y-75830544I0J-267544D01*
G01*
X106299000Y-76820456D01*
G75*
G02*
X106031456Y-77088000I-267544J0D01*
G01*
G37*
G36*
G01*
X106031456Y-80063000D02*
X103816544Y-80063000D01*
G75*
G02*
X103549000Y-79795456I0J267544D01*
G01*
X103549000Y-78805544D01*
G75*
G02*
X103816544Y-78538000I267544J0D01*
G01*
X106031456Y-78538000D01*
G75*
G02*
X106299000Y-78805544I0J-267544D01*
G01*
X106299000Y-79795456D01*
G75*
G02*
X106031456Y-80063000I-267544J0D01*
G01*
G37*
G36*
G01*
X94553456Y-77124500D02*
X92338544Y-77124500D01*
G75*
G02*
X92071000Y-76856956I0J267544D01*
G01*
X92071000Y-75867044D01*
G75*
G02*
X92338544Y-75599500I267544J0D01*
G01*
X94553456Y-75599500D01*
G75*
G02*
X94821000Y-75867044I0J-267544D01*
G01*
X94821000Y-76856956D01*
G75*
G02*
X94553456Y-77124500I-267544J0D01*
G01*
G37*
G36*
G01*
X94553456Y-80099500D02*
X92338544Y-80099500D01*
G75*
G02*
X92071000Y-79831956I0J267544D01*
G01*
X92071000Y-78842044D01*
G75*
G02*
X92338544Y-78574500I267544J0D01*
G01*
X94553456Y-78574500D01*
G75*
G02*
X94821000Y-78842044I0J-267544D01*
G01*
X94821000Y-79831956D01*
G75*
G02*
X94553456Y-80099500I-267544J0D01*
G01*
G37*
D20*
X97764000Y-94577000D03*
X97764000Y-92037000D03*
X97764000Y-89497000D03*
X97764000Y-86957000D03*
X97764000Y-81877000D03*
X97764000Y-79337000D03*
X97764000Y-76797000D03*
X109115000Y-94577000D03*
X109115000Y-92037000D03*
X109115000Y-89497000D03*
X109115000Y-86957000D03*
X109115000Y-81877000D03*
X109115000Y-79337000D03*
X109115000Y-76797000D03*
D17*
X158600000Y-111500000D03*
X156100000Y-111500000D03*
X153600000Y-111500000D03*
X158600000Y-114000000D03*
X156100000Y-114000000D03*
X153600000Y-114000000D03*
D20*
X141400000Y-69400000D03*
X141400000Y-62400000D03*
D18*
X190906599Y-64037400D03*
X199106601Y-64037400D03*
D19*
X193000000Y-62792800D03*
X195006600Y-62792800D03*
X197013200Y-62792800D03*
X193000000Y-65282000D03*
X195006600Y-65282000D03*
X197013200Y-65282000D03*
D18*
X177906599Y-64037400D03*
X186106601Y-64037400D03*
D19*
X180000000Y-62792800D03*
X182006600Y-62792800D03*
X184013200Y-62792800D03*
X180000000Y-65282000D03*
X182006600Y-65282000D03*
X184013200Y-65282000D03*
G36*
G01*
X113800500Y-65232000D02*
X113275500Y-65232000D01*
G75*
G02*
X113013000Y-64969500I0J262500D01*
G01*
X113013000Y-64344500D01*
G75*
G02*
X113275500Y-64082000I262500J0D01*
G01*
X113800500Y-64082000D01*
G75*
G02*
X114063000Y-64344500I0J-262500D01*
G01*
X114063000Y-64969500D01*
G75*
G02*
X113800500Y-65232000I-262500J0D01*
G01*
G37*
G36*
G01*
X113800500Y-66982000D02*
X113275500Y-66982000D01*
G75*
G02*
X113013000Y-66719500I0J262500D01*
G01*
X113013000Y-66094500D01*
G75*
G02*
X113275500Y-65832000I262500J0D01*
G01*
X113800500Y-65832000D01*
G75*
G02*
X114063000Y-66094500I0J-262500D01*
G01*
X114063000Y-66719500D01*
G75*
G02*
X113800500Y-66982000I-262500J0D01*
G01*
G37*
D17*
X182600000Y-111500000D03*
X180100000Y-111500000D03*
X177600000Y-111500000D03*
X182600000Y-114000000D03*
X180100000Y-114000000D03*
X177600000Y-114000000D03*
X206600000Y-111500000D03*
X204100000Y-111500000D03*
X201600000Y-111500000D03*
X206600000Y-114000000D03*
X204100000Y-114000000D03*
X201600000Y-114000000D03*
X105800000Y-104740000D03*
X105800000Y-107280000D03*
X105800000Y-109820000D03*
X105800000Y-114900000D03*
D20*
X155399500Y-69404000D03*
X155399500Y-62404000D03*
X215600000Y-102600000D03*
X222600000Y-102600000D03*
D22*
X93720000Y-99800000D03*
X96260000Y-99800000D03*
D23*
X98800000Y-99800000D03*
D22*
X112242000Y-99800000D03*
X114782000Y-99800000D03*
D23*
X117322000Y-99800000D03*
M02*
